<?xml version="1.0" encoding="utf-8" standalone="no"?>
<!DOCTYPE svg PUBLIC "-//W3C//DTD SVG 1.1//EN"
  "http://www.w3.org/Graphics/SVG/1.1/DTD/svg11.dtd">
<svg xmlns:xlink="http://www.w3.org/1999/xlink" width="856.297812pt" height="424.87625pt" viewBox="0 0 856.297812 424.87625" xmlns="http://www.w3.org/2000/svg" version="1.1">
 <metadata>
  <rdf:RDF xmlns:dc="http://purl.org/dc/elements/1.1/" xmlns:cc="http://creativecommons.org/ns#" xmlns:rdf="http://www.w3.org/1999/02/22-rdf-syntax-ns#">
   <cc:Work>
    <dc:type rdf:resource="http://purl.org/dc/dcmitype/StillImage"/>
    <dc:date>2024-10-24T16:41:09.809531</dc:date>
    <dc:format>image/svg+xml</dc:format>
    <dc:creator>
     <cc:Agent>
      <dc:title>Matplotlib v3.9.2, https://matplotlib.org/</dc:title>
     </cc:Agent>
    </dc:creator>
   </cc:Work>
  </rdf:RDF>
 </metadata>
 <defs>
  <style type="text/css">*{stroke-linejoin: round; stroke-linecap: butt}</style>
 </defs>
 <g id="figure_1">
  <g id="patch_1">
   <path d="M 0 424.87625 
L 856.297812 424.87625 
L 856.297812 0 
L 0 0 
z
" style="fill: #ffffff"/>
  </g>
  <g id="axes_1">
   <g id="patch_2">
    <path d="M 53.328125 120.198125 
L 670.268125 120.198125 
L 670.268125 22.318125 
L 53.328125 22.318125 
z
" style="fill: #ffffff"/>
   </g>
   <g id="matplotlib.axis_1">
    <g id="xtick_1">
     <g id="line2d_1">
      <path d="M 81.370852 120.198125 
L 81.370852 22.318125 
" clip-path="url(#p67004e0c97)" style="fill: none; stroke-dasharray: 1.85,0.8; stroke-dashoffset: 0; stroke: #b0b0b0; stroke-width: 0.5"/>
     </g>
     <g id="line2d_2">
      <defs>
       <path id="mb47acddf7b" d="M 0 0 
L 0 3.5 
" style="stroke: #000000; stroke-width: 0.8"/>
      </defs>
      <g>
       <use xlink:href="#mb47acddf7b" x="81.370852" y="120.198125" style="stroke: #000000; stroke-width: 0.8"/>
      </g>
     </g>
     <g id="text_1">
      <!-- 01 -->
      <g transform="translate(75.008352 134.796562) scale(0.1 -0.1)">
       <defs>
        <path id="DejaVuSans-30" d="M 2034 4250 
Q 1547 4250 1301 3770 
Q 1056 3291 1056 2328 
Q 1056 1369 1301 889 
Q 1547 409 2034 409 
Q 2525 409 2770 889 
Q 3016 1369 3016 2328 
Q 3016 3291 2770 3770 
Q 2525 4250 2034 4250 
z
M 2034 4750 
Q 2819 4750 3233 4129 
Q 3647 3509 3647 2328 
Q 3647 1150 3233 529 
Q 2819 -91 2034 -91 
Q 1250 -91 836 529 
Q 422 1150 422 2328 
Q 422 3509 836 4129 
Q 1250 4750 2034 4750 
z
" transform="scale(0.015625)"/>
        <path id="DejaVuSans-31" d="M 794 531 
L 1825 531 
L 1825 4091 
L 703 3866 
L 703 4441 
L 1819 4666 
L 2450 4666 
L 2450 531 
L 3481 531 
L 3481 0 
L 794 0 
L 794 531 
z
" transform="scale(0.015625)"/>
       </defs>
       <use xlink:href="#DejaVuSans-30"/>
       <use xlink:href="#DejaVuSans-31" x="63.623047"/>
      </g>
     </g>
    </g>
    <g id="xtick_2">
     <g id="line2d_3">
      <path d="M 137.460202 120.198125 
L 137.460202 22.318125 
" clip-path="url(#p67004e0c97)" style="fill: none; stroke-dasharray: 1.85,0.8; stroke-dashoffset: 0; stroke: #b0b0b0; stroke-width: 0.5"/>
     </g>
     <g id="line2d_4">
      <g>
       <use xlink:href="#mb47acddf7b" x="137.460202" y="120.198125" style="stroke: #000000; stroke-width: 0.8"/>
      </g>
     </g>
     <g id="text_2">
      <!-- 02 -->
      <g transform="translate(131.097702 134.796562) scale(0.1 -0.1)">
       <defs>
        <path id="DejaVuSans-32" d="M 1228 531 
L 3431 531 
L 3431 0 
L 469 0 
L 469 531 
Q 828 903 1448 1529 
Q 2069 2156 2228 2338 
Q 2531 2678 2651 2914 
Q 2772 3150 2772 3378 
Q 2772 3750 2511 3984 
Q 2250 4219 1831 4219 
Q 1534 4219 1204 4116 
Q 875 4013 500 3803 
L 500 4441 
Q 881 4594 1212 4672 
Q 1544 4750 1819 4750 
Q 2544 4750 2975 4387 
Q 3406 4025 3406 3419 
Q 3406 3131 3298 2873 
Q 3191 2616 2906 2266 
Q 2828 2175 2409 1742 
Q 1991 1309 1228 531 
z
" transform="scale(0.015625)"/>
       </defs>
       <use xlink:href="#DejaVuSans-30"/>
       <use xlink:href="#DejaVuSans-32" x="63.623047"/>
      </g>
     </g>
    </g>
    <g id="xtick_3">
     <g id="line2d_5">
      <path d="M 193.549552 120.198125 
L 193.549552 22.318125 
" clip-path="url(#p67004e0c97)" style="fill: none; stroke-dasharray: 1.85,0.8; stroke-dashoffset: 0; stroke: #b0b0b0; stroke-width: 0.5"/>
     </g>
     <g id="line2d_6">
      <g>
       <use xlink:href="#mb47acddf7b" x="193.549552" y="120.198125" style="stroke: #000000; stroke-width: 0.8"/>
      </g>
     </g>
     <g id="text_3">
      <!-- 03 -->
      <g transform="translate(187.187052 134.796562) scale(0.1 -0.1)">
       <defs>
        <path id="DejaVuSans-33" d="M 2597 2516 
Q 3050 2419 3304 2112 
Q 3559 1806 3559 1356 
Q 3559 666 3084 287 
Q 2609 -91 1734 -91 
Q 1441 -91 1130 -33 
Q 819 25 488 141 
L 488 750 
Q 750 597 1062 519 
Q 1375 441 1716 441 
Q 2309 441 2620 675 
Q 2931 909 2931 1356 
Q 2931 1769 2642 2001 
Q 2353 2234 1838 2234 
L 1294 2234 
L 1294 2753 
L 1863 2753 
Q 2328 2753 2575 2939 
Q 2822 3125 2822 3475 
Q 2822 3834 2567 4026 
Q 2313 4219 1838 4219 
Q 1578 4219 1281 4162 
Q 984 4106 628 3988 
L 628 4550 
Q 988 4650 1302 4700 
Q 1616 4750 1894 4750 
Q 2613 4750 3031 4423 
Q 3450 4097 3450 3541 
Q 3450 3153 3228 2886 
Q 3006 2619 2597 2516 
z
" transform="scale(0.015625)"/>
       </defs>
       <use xlink:href="#DejaVuSans-30"/>
       <use xlink:href="#DejaVuSans-33" x="63.623047"/>
      </g>
     </g>
    </g>
    <g id="xtick_4">
     <g id="line2d_7">
      <path d="M 249.638901 120.198125 
L 249.638901 22.318125 
" clip-path="url(#p67004e0c97)" style="fill: none; stroke-dasharray: 1.85,0.8; stroke-dashoffset: 0; stroke: #b0b0b0; stroke-width: 0.5"/>
     </g>
     <g id="line2d_8">
      <g>
       <use xlink:href="#mb47acddf7b" x="249.638901" y="120.198125" style="stroke: #000000; stroke-width: 0.8"/>
      </g>
     </g>
     <g id="text_4">
      <!-- 04 -->
      <g transform="translate(243.276401 134.796562) scale(0.1 -0.1)">
       <defs>
        <path id="DejaVuSans-34" d="M 2419 4116 
L 825 1625 
L 2419 1625 
L 2419 4116 
z
M 2253 4666 
L 3047 4666 
L 3047 1625 
L 3713 1625 
L 3713 1100 
L 3047 1100 
L 3047 0 
L 2419 0 
L 2419 1100 
L 313 1100 
L 313 1709 
L 2253 4666 
z
" transform="scale(0.015625)"/>
       </defs>
       <use xlink:href="#DejaVuSans-30"/>
       <use xlink:href="#DejaVuSans-34" x="63.623047"/>
      </g>
     </g>
    </g>
    <g id="xtick_5">
     <g id="line2d_9">
      <path d="M 305.728251 120.198125 
L 305.728251 22.318125 
" clip-path="url(#p67004e0c97)" style="fill: none; stroke-dasharray: 1.85,0.8; stroke-dashoffset: 0; stroke: #b0b0b0; stroke-width: 0.5"/>
     </g>
     <g id="line2d_10">
      <g>
       <use xlink:href="#mb47acddf7b" x="305.728251" y="120.198125" style="stroke: #000000; stroke-width: 0.8"/>
      </g>
     </g>
     <g id="text_5">
      <!-- 05 -->
      <g transform="translate(299.365751 134.796562) scale(0.1 -0.1)">
       <defs>
        <path id="DejaVuSans-35" d="M 691 4666 
L 3169 4666 
L 3169 4134 
L 1269 4134 
L 1269 2991 
Q 1406 3038 1543 3061 
Q 1681 3084 1819 3084 
Q 2600 3084 3056 2656 
Q 3513 2228 3513 1497 
Q 3513 744 3044 326 
Q 2575 -91 1722 -91 
Q 1428 -91 1123 -41 
Q 819 9 494 109 
L 494 744 
Q 775 591 1075 516 
Q 1375 441 1709 441 
Q 2250 441 2565 725 
Q 2881 1009 2881 1497 
Q 2881 1984 2565 2268 
Q 2250 2553 1709 2553 
Q 1456 2553 1204 2497 
Q 953 2441 691 2322 
L 691 4666 
z
" transform="scale(0.015625)"/>
       </defs>
       <use xlink:href="#DejaVuSans-30"/>
       <use xlink:href="#DejaVuSans-35" x="63.623047"/>
      </g>
     </g>
    </g>
    <g id="xtick_6">
     <g id="line2d_11">
      <path d="M 361.8176 120.198125 
L 361.8176 22.318125 
" clip-path="url(#p67004e0c97)" style="fill: none; stroke-dasharray: 1.85,0.8; stroke-dashoffset: 0; stroke: #b0b0b0; stroke-width: 0.5"/>
     </g>
     <g id="line2d_12">
      <g>
       <use xlink:href="#mb47acddf7b" x="361.8176" y="120.198125" style="stroke: #000000; stroke-width: 0.8"/>
      </g>
     </g>
     <g id="text_6">
      <!-- 06 -->
      <g transform="translate(355.4551 134.796562) scale(0.1 -0.1)">
       <defs>
        <path id="DejaVuSans-36" d="M 2113 2584 
Q 1688 2584 1439 2293 
Q 1191 2003 1191 1497 
Q 1191 994 1439 701 
Q 1688 409 2113 409 
Q 2538 409 2786 701 
Q 3034 994 3034 1497 
Q 3034 2003 2786 2293 
Q 2538 2584 2113 2584 
z
M 3366 4563 
L 3366 3988 
Q 3128 4100 2886 4159 
Q 2644 4219 2406 4219 
Q 1781 4219 1451 3797 
Q 1122 3375 1075 2522 
Q 1259 2794 1537 2939 
Q 1816 3084 2150 3084 
Q 2853 3084 3261 2657 
Q 3669 2231 3669 1497 
Q 3669 778 3244 343 
Q 2819 -91 2113 -91 
Q 1303 -91 875 529 
Q 447 1150 447 2328 
Q 447 3434 972 4092 
Q 1497 4750 2381 4750 
Q 2619 4750 2861 4703 
Q 3103 4656 3366 4563 
z
" transform="scale(0.015625)"/>
       </defs>
       <use xlink:href="#DejaVuSans-30"/>
       <use xlink:href="#DejaVuSans-36" x="63.623047"/>
      </g>
     </g>
    </g>
    <g id="xtick_7">
     <g id="line2d_13">
      <path d="M 417.90695 120.198125 
L 417.90695 22.318125 
" clip-path="url(#p67004e0c97)" style="fill: none; stroke-dasharray: 1.85,0.8; stroke-dashoffset: 0; stroke: #b0b0b0; stroke-width: 0.5"/>
     </g>
     <g id="line2d_14">
      <g>
       <use xlink:href="#mb47acddf7b" x="417.90695" y="120.198125" style="stroke: #000000; stroke-width: 0.8"/>
      </g>
     </g>
     <g id="text_7">
      <!-- 07 -->
      <g transform="translate(411.54445 134.796562) scale(0.1 -0.1)">
       <defs>
        <path id="DejaVuSans-37" d="M 525 4666 
L 3525 4666 
L 3525 4397 
L 1831 0 
L 1172 0 
L 2766 4134 
L 525 4134 
L 525 4666 
z
" transform="scale(0.015625)"/>
       </defs>
       <use xlink:href="#DejaVuSans-30"/>
       <use xlink:href="#DejaVuSans-37" x="63.623047"/>
      </g>
     </g>
    </g>
    <g id="xtick_8">
     <g id="line2d_15">
      <path d="M 473.9963 120.198125 
L 473.9963 22.318125 
" clip-path="url(#p67004e0c97)" style="fill: none; stroke-dasharray: 1.85,0.8; stroke-dashoffset: 0; stroke: #b0b0b0; stroke-width: 0.5"/>
     </g>
     <g id="line2d_16">
      <g>
       <use xlink:href="#mb47acddf7b" x="473.9963" y="120.198125" style="stroke: #000000; stroke-width: 0.8"/>
      </g>
     </g>
     <g id="text_8">
      <!-- 08 -->
      <g transform="translate(467.6338 134.796562) scale(0.1 -0.1)">
       <defs>
        <path id="DejaVuSans-38" d="M 2034 2216 
Q 1584 2216 1326 1975 
Q 1069 1734 1069 1313 
Q 1069 891 1326 650 
Q 1584 409 2034 409 
Q 2484 409 2743 651 
Q 3003 894 3003 1313 
Q 3003 1734 2745 1975 
Q 2488 2216 2034 2216 
z
M 1403 2484 
Q 997 2584 770 2862 
Q 544 3141 544 3541 
Q 544 4100 942 4425 
Q 1341 4750 2034 4750 
Q 2731 4750 3128 4425 
Q 3525 4100 3525 3541 
Q 3525 3141 3298 2862 
Q 3072 2584 2669 2484 
Q 3125 2378 3379 2068 
Q 3634 1759 3634 1313 
Q 3634 634 3220 271 
Q 2806 -91 2034 -91 
Q 1263 -91 848 271 
Q 434 634 434 1313 
Q 434 1759 690 2068 
Q 947 2378 1403 2484 
z
M 1172 3481 
Q 1172 3119 1398 2916 
Q 1625 2713 2034 2713 
Q 2441 2713 2670 2916 
Q 2900 3119 2900 3481 
Q 2900 3844 2670 4047 
Q 2441 4250 2034 4250 
Q 1625 4250 1398 4047 
Q 1172 3844 1172 3481 
z
" transform="scale(0.015625)"/>
       </defs>
       <use xlink:href="#DejaVuSans-30"/>
       <use xlink:href="#DejaVuSans-38" x="63.623047"/>
      </g>
     </g>
    </g>
    <g id="xtick_9">
     <g id="line2d_17">
      <path d="M 530.085649 120.198125 
L 530.085649 22.318125 
" clip-path="url(#p67004e0c97)" style="fill: none; stroke-dasharray: 1.85,0.8; stroke-dashoffset: 0; stroke: #b0b0b0; stroke-width: 0.5"/>
     </g>
     <g id="line2d_18">
      <g>
       <use xlink:href="#mb47acddf7b" x="530.085649" y="120.198125" style="stroke: #000000; stroke-width: 0.8"/>
      </g>
     </g>
     <g id="text_9">
      <!-- 09 -->
      <g transform="translate(523.723149 134.796562) scale(0.1 -0.1)">
       <defs>
        <path id="DejaVuSans-39" d="M 703 97 
L 703 672 
Q 941 559 1184 500 
Q 1428 441 1663 441 
Q 2288 441 2617 861 
Q 2947 1281 2994 2138 
Q 2813 1869 2534 1725 
Q 2256 1581 1919 1581 
Q 1219 1581 811 2004 
Q 403 2428 403 3163 
Q 403 3881 828 4315 
Q 1253 4750 1959 4750 
Q 2769 4750 3195 4129 
Q 3622 3509 3622 2328 
Q 3622 1225 3098 567 
Q 2575 -91 1691 -91 
Q 1453 -91 1209 -44 
Q 966 3 703 97 
z
M 1959 2075 
Q 2384 2075 2632 2365 
Q 2881 2656 2881 3163 
Q 2881 3666 2632 3958 
Q 2384 4250 1959 4250 
Q 1534 4250 1286 3958 
Q 1038 3666 1038 3163 
Q 1038 2656 1286 2365 
Q 1534 2075 1959 2075 
z
" transform="scale(0.015625)"/>
       </defs>
       <use xlink:href="#DejaVuSans-30"/>
       <use xlink:href="#DejaVuSans-39" x="63.623047"/>
      </g>
     </g>
    </g>
    <g id="xtick_10">
     <g id="line2d_19">
      <path d="M 586.174999 120.198125 
L 586.174999 22.318125 
" clip-path="url(#p67004e0c97)" style="fill: none; stroke-dasharray: 1.85,0.8; stroke-dashoffset: 0; stroke: #b0b0b0; stroke-width: 0.5"/>
     </g>
     <g id="line2d_20">
      <g>
       <use xlink:href="#mb47acddf7b" x="586.174999" y="120.198125" style="stroke: #000000; stroke-width: 0.8"/>
      </g>
     </g>
     <g id="text_10">
      <!-- 10 -->
      <g transform="translate(579.812499 134.796562) scale(0.1 -0.1)">
       <use xlink:href="#DejaVuSans-31"/>
       <use xlink:href="#DejaVuSans-30" x="63.623047"/>
      </g>
     </g>
    </g>
    <g id="xtick_11">
     <g id="line2d_21">
      <path d="M 642.264349 120.198125 
L 642.264349 22.318125 
" clip-path="url(#p67004e0c97)" style="fill: none; stroke-dasharray: 1.85,0.8; stroke-dashoffset: 0; stroke: #b0b0b0; stroke-width: 0.5"/>
     </g>
     <g id="line2d_22">
      <g>
       <use xlink:href="#mb47acddf7b" x="642.264349" y="120.198125" style="stroke: #000000; stroke-width: 0.8"/>
      </g>
     </g>
     <g id="text_11">
      <!-- 11 -->
      <g transform="translate(635.901849 134.796562) scale(0.1 -0.1)">
       <use xlink:href="#DejaVuSans-31"/>
       <use xlink:href="#DejaVuSans-31" x="63.623047"/>
      </g>
     </g>
    </g>
   </g>
   <g id="matplotlib.axis_2">
    <g id="ytick_1">
     <g id="line2d_23">
      <path d="M 53.328125 120.198125 
L 670.268125 120.198125 
" clip-path="url(#p67004e0c97)" style="fill: none; stroke-dasharray: 1.85,0.8; stroke-dashoffset: 0; stroke: #b0b0b0; stroke-width: 0.5"/>
     </g>
     <g id="line2d_24">
      <defs>
       <path id="m2545ac149b" d="M 0 0 
L -3.5 0 
" style="stroke: #000000; stroke-width: 0.8"/>
      </defs>
      <g>
       <use xlink:href="#m2545ac149b" x="53.328125" y="120.198125" style="stroke: #000000; stroke-width: 0.8"/>
      </g>
     </g>
     <g id="text_12">
      <!-- 0 -->
      <g transform="translate(39.965625 123.997344) scale(0.1 -0.1)">
       <use xlink:href="#DejaVuSans-30"/>
      </g>
     </g>
    </g>
    <g id="ytick_2">
     <g id="line2d_25">
      <path d="M 53.328125 93.009236 
L 670.268125 93.009236 
" clip-path="url(#p67004e0c97)" style="fill: none; stroke-dasharray: 1.85,0.8; stroke-dashoffset: 0; stroke: #b0b0b0; stroke-width: 0.5"/>
     </g>
     <g id="line2d_26">
      <g>
       <use xlink:href="#m2545ac149b" x="53.328125" y="93.009236" style="stroke: #000000; stroke-width: 0.8"/>
      </g>
     </g>
     <g id="text_13">
      <!-- 500 -->
      <g transform="translate(27.240625 96.808455) scale(0.1 -0.1)">
       <use xlink:href="#DejaVuSans-35"/>
       <use xlink:href="#DejaVuSans-30" x="63.623047"/>
       <use xlink:href="#DejaVuSans-30" x="127.246094"/>
      </g>
     </g>
    </g>
    <g id="ytick_3">
     <g id="line2d_27">
      <path d="M 53.328125 65.820347 
L 670.268125 65.820347 
" clip-path="url(#p67004e0c97)" style="fill: none; stroke-dasharray: 1.85,0.8; stroke-dashoffset: 0; stroke: #b0b0b0; stroke-width: 0.5"/>
     </g>
     <g id="line2d_28">
      <g>
       <use xlink:href="#m2545ac149b" x="53.328125" y="65.820347" style="stroke: #000000; stroke-width: 0.8"/>
      </g>
     </g>
     <g id="text_14">
      <!-- 1000 -->
      <g transform="translate(20.878125 69.619566) scale(0.1 -0.1)">
       <use xlink:href="#DejaVuSans-31"/>
       <use xlink:href="#DejaVuSans-30" x="63.623047"/>
       <use xlink:href="#DejaVuSans-30" x="127.246094"/>
       <use xlink:href="#DejaVuSans-30" x="190.869141"/>
      </g>
     </g>
    </g>
    <g id="ytick_4">
     <g id="line2d_29">
      <path d="M 53.328125 38.631458 
L 670.268125 38.631458 
" clip-path="url(#p67004e0c97)" style="fill: none; stroke-dasharray: 1.85,0.8; stroke-dashoffset: 0; stroke: #b0b0b0; stroke-width: 0.5"/>
     </g>
     <g id="line2d_30">
      <g>
       <use xlink:href="#m2545ac149b" x="53.328125" y="38.631458" style="stroke: #000000; stroke-width: 0.8"/>
      </g>
     </g>
     <g id="text_15">
      <!-- 1500 -->
      <g transform="translate(20.878125 42.430677) scale(0.1 -0.1)">
       <use xlink:href="#DejaVuSans-31"/>
       <use xlink:href="#DejaVuSans-35" x="63.623047"/>
       <use xlink:href="#DejaVuSans-30" x="127.246094"/>
       <use xlink:href="#DejaVuSans-30" x="190.869141"/>
      </g>
     </g>
    </g>
    <g id="text_16">
     <!-- W/m² -->
     <g transform="translate(14.798438 84.76125) rotate(-90) scale(0.1 -0.1)">
      <defs>
       <path id="DejaVuSans-57" d="M 213 4666 
L 850 4666 
L 1831 722 
L 2809 4666 
L 3519 4666 
L 4500 722 
L 5478 4666 
L 6119 4666 
L 4947 0 
L 4153 0 
L 3169 4050 
L 2175 0 
L 1381 0 
L 213 4666 
z
" transform="scale(0.015625)"/>
       <path id="DejaVuSans-2f" d="M 1625 4666 
L 2156 4666 
L 531 -594 
L 0 -594 
L 1625 4666 
z
" transform="scale(0.015625)"/>
       <path id="DejaVuSans-6d" d="M 3328 2828 
Q 3544 3216 3844 3400 
Q 4144 3584 4550 3584 
Q 5097 3584 5394 3201 
Q 5691 2819 5691 2113 
L 5691 0 
L 5113 0 
L 5113 2094 
Q 5113 2597 4934 2840 
Q 4756 3084 4391 3084 
Q 3944 3084 3684 2787 
Q 3425 2491 3425 1978 
L 3425 0 
L 2847 0 
L 2847 2094 
Q 2847 2600 2669 2842 
Q 2491 3084 2119 3084 
Q 1678 3084 1418 2786 
Q 1159 2488 1159 1978 
L 1159 0 
L 581 0 
L 581 3500 
L 1159 3500 
L 1159 2956 
Q 1356 3278 1631 3431 
Q 1906 3584 2284 3584 
Q 2666 3584 2933 3390 
Q 3200 3197 3328 2828 
z
" transform="scale(0.015625)"/>
       <path id="DejaVuSans-b2" d="M 838 2444 
L 2163 2444 
L 2163 2088 
L 294 2088 
L 294 2431 
Q 400 2528 597 2703 
Q 1672 3656 1672 3950 
Q 1672 4156 1509 4282 
Q 1347 4409 1081 4409 
Q 919 4409 728 4354 
Q 538 4300 313 4191 
L 313 4575 
Q 553 4663 761 4706 
Q 969 4750 1147 4750 
Q 1600 4750 1872 4544 
Q 2144 4338 2144 4000 
Q 2144 3566 1109 2678 
Q 934 2528 838 2444 
z
" transform="scale(0.015625)"/>
      </defs>
      <use xlink:href="#DejaVuSans-57"/>
      <use xlink:href="#DejaVuSans-2f" x="98.876953"/>
      <use xlink:href="#DejaVuSans-6d" x="132.568359"/>
      <use xlink:href="#DejaVuSans-b2" x="229.980469"/>
     </g>
    </g>
   </g>
   <g id="line2d_31">
    <path d="M 448.950847 62.848547 
L 448.989798 62.867199 
L 449.028749 58.987399 
M 559.415705 57.883584 
" clip-path="url(#p67004e0c97)" style="fill: none; stroke: #0000ff; stroke-width: 1.5; stroke-linecap: square"/>
    <defs>
     <path id="mfdcf060bf3" d="M -3 0 
L 3 0 
M 0 3 
L 0 -3 
" style="stroke: #0000ff"/>
    </defs>
    <g clip-path="url(#p67004e0c97)">
     <use xlink:href="#mfdcf060bf3" x="224.710301" y="62.840934" style="fill: #0000ff; stroke: #0000ff"/>
     <use xlink:href="#mfdcf060bf3" x="272.03569" y="63.273836" style="fill: #0000ff; stroke: #0000ff"/>
     <use xlink:href="#mfdcf060bf3" x="280.877553" y="63.714405" style="fill: #0000ff; stroke: #0000ff"/>
     <use xlink:href="#mfdcf060bf3" x="448.950847" y="62.848547" style="fill: #0000ff; stroke: #0000ff"/>
     <use xlink:href="#mfdcf060bf3" x="448.989798" y="62.867199" style="fill: #0000ff; stroke: #0000ff"/>
     <use xlink:href="#mfdcf060bf3" x="449.028749" y="58.987399" style="fill: #0000ff; stroke: #0000ff"/>
     <use xlink:href="#mfdcf060bf3" x="502.430484" y="56.003745" style="fill: #0000ff; stroke: #0000ff"/>
     <use xlink:href="#mfdcf060bf3" x="559.415705" y="57.883584" style="fill: #0000ff; stroke: #0000ff"/>
    </g>
   </g>
   <g id="line2d_32">
    <path d="M 81.370852 120.198125 
L 94.536269 120.198125 
L 94.808926 118.255735 
L 98.080804 94.717005 
L 100.028351 82.283774 
L 101.586389 73.689887 
L 102.910721 67.545893 
L 104.079249 63.12639 
L 105.091973 60.117823 
L 105.987845 58.125629 
L 106.727912 56.969036 
L 107.390078 56.316496 
L 107.974342 56.04365 
L 108.480705 56.037914 
L 108.987067 56.246475 
L 109.53238 56.70995 
L 110.155595 57.540737 
L 110.856712 58.85432 
L 111.674681 60.883313 
L 112.609504 63.835626 
L 113.661179 67.925443 
L 114.868658 73.552908 
L 116.270892 81.205977 
L 117.945782 91.667078 
L 120.088084 106.578795 
L 122.074582 120.198125 
L 150.625619 120.198125 
L 150.859324 118.560473 
L 154.131203 95.024409 
L 156.07875 82.573985 
L 157.636787 73.956813 
L 158.961119 67.786921 
L 160.129647 63.340381 
L 161.142372 60.305579 
L 162.038243 58.288291 
L 162.817262 57.06021 
L 163.479428 56.408688 
L 164.063692 56.136378 
L 164.570054 56.13083 
L 165.076416 56.339319 
L 165.62173 56.802431 
L 166.244945 57.632437 
L 166.946061 58.944684 
L 167.764031 60.971513 
L 168.698854 63.92058 
L 169.750529 68.005802 
L 170.958008 73.62684 
L 172.360242 81.271052 
L 174.035132 91.719907 
L 176.177434 106.613975 
L 178.163931 120.198125 
L 206.714968 120.198125 
L 206.909723 118.863607 
L 210.220553 95.065348 
L 212.1681 82.629629 
L 213.726137 74.022764 
L 215.050469 67.860357 
L 216.218997 63.419307 
L 217.231721 60.38834 
L 218.127593 58.373689 
L 218.906612 57.147302 
L 219.568778 56.496771 
L 220.153042 56.224989 
L 220.659404 56.219633 
L 221.165766 56.428068 
L 221.711079 56.890845 
L 222.334294 57.72012 
L 223.035411 59.031104 
L 223.853381 61.055882 
L 224.788203 64.001863 
L 225.839879 68.082709 
L 227.047358 73.697619 
L 228.449591 81.333377 
L 230.124482 91.770533 
L 232.266783 106.647726 
L 234.21433 120.198125 
L 262.804318 120.198125 
L 262.960122 119.165177 
L 266.309902 95.104064 
L 268.257449 82.682407 
L 269.815487 74.085408 
L 271.139819 67.930173 
L 272.308347 63.494389 
L 273.321071 60.467108 
L 274.216943 58.454995 
L 274.995961 57.230246 
L 275.658127 56.580678 
L 276.242391 56.309415 
L 276.748754 56.304256 
L 277.255116 56.512652 
L 277.800429 56.975124 
L 278.423644 57.803718 
L 279.124761 59.113515 
L 279.94273 61.136355 
L 280.877553 64.079414 
L 281.929228 68.156106 
L 283.136707 73.765191 
L 284.538941 81.392906 
L 286.213831 91.818919 
L 288.356133 106.680024 
L 290.30368 120.198125 
L 318.893668 120.198125 
L 319.049471 119.176115 
L 322.399252 95.140533 
L 324.346799 82.732284 
L 325.904836 74.1447 
L 327.229168 67.996317 
L 328.397696 63.565572 
L 329.410421 60.541823 
L 330.306292 58.53215 
L 331.085311 57.308979 
L 331.747477 56.660346 
L 332.331741 56.389593 
L 332.838103 56.384635 
L 333.344465 56.593008 
L 333.889778 57.055204 
L 334.512993 57.883167 
L 335.21411 59.191854 
L 336.03208 61.212871 
L 336.966903 64.153172 
L 338.018578 68.225937 
L 339.226057 73.829507 
L 340.628291 81.449594 
L 342.303181 91.86503 
L 344.445482 106.71085 
L 346.393029 120.198125 
L 374.983017 120.198125 
L 375.09987 119.474909 
L 378.488602 95.174737 
L 380.436148 82.779227 
L 381.994186 74.200601 
L 383.318518 68.058744 
L 384.487046 63.632804 
L 385.49977 60.612431 
L 386.395642 58.605096 
L 387.174661 57.383443 
L 387.836827 56.735715 
L 388.421091 56.465462 
L 388.927453 56.460709 
L 389.433815 56.669075 
L 390.018079 57.17341 
L 390.641294 58.020644 
L 391.381362 59.435673 
L 392.199332 61.504871 
L 393.134154 64.497314 
L 394.22478 68.791977 
L 395.47121 74.680211 
L 396.912395 82.645584 
L 398.626236 93.455573 
L 400.84644 108.994828 
L 402.482379 120.198125 
L 431.072367 120.198125 
L 431.18922 119.483647 
L 434.577951 95.206655 
L 436.525498 82.823207 
L 438.083536 74.253072 
L 439.407867 68.117409 
L 440.576396 63.696038 
L 441.58912 60.67888 
L 442.484992 58.673778 
L 443.26401 57.453582 
L 443.926176 56.806729 
L 444.51044 56.536965 
L 445.016802 56.532421 
L 445.523165 56.740796 
L 446.107429 57.244891 
L 446.730644 58.091575 
L 447.470711 59.505562 
L 448.288681 61.573124 
L 449.223504 64.563093 
L 450.31413 68.854089 
L 451.56056 74.737173 
L 453.001745 82.695441 
L 454.715586 93.495624 
L 456.935789 109.020555 
L 458.571729 120.198125 
L 487.161717 120.198125 
L 487.278569 119.491441 
L 490.667301 95.236271 
L 492.614848 82.864196 
L 494.172885 74.302077 
L 495.497217 68.172272 
L 496.665745 63.755229 
L 497.67847 60.741124 
L 498.574341 58.738148 
L 499.35336 57.519346 
L 500.015526 56.873335 
L 500.59979 56.604051 
L 501.106152 56.599719 
L 501.612514 56.808117 
L 502.196778 57.312005 
L 502.819993 58.158191 
L 503.560061 59.571221 
L 504.378031 61.637268 
L 505.312853 64.624937 
L 506.40348 68.912515 
L 507.64991 74.790785 
L 509.091094 82.742402 
L 510.804935 93.533394 
L 513.025139 109.044877 
L 514.661078 120.198125 
L 543.251066 120.198125 
L 543.367919 119.498293 
L 546.756651 95.263568 
L 548.704197 82.902168 
L 550.262235 74.347585 
L 551.586567 68.223295 
L 552.755095 63.810334 
L 553.767819 60.799116 
L 554.663691 58.798159 
L 555.44271 57.580686 
L 556.104875 56.935485 
L 556.68914 56.666668 
L 557.195502 56.662552 
L 557.701864 56.870989 
L 558.286128 57.374702 
L 558.909343 58.220443 
L 559.649411 59.6326 
L 560.46738 61.697256 
L 561.402203 64.682801 
L 562.492829 68.96721 
L 563.739259 74.841008 
L 565.180444 82.786433 
L 566.894285 93.568854 
L 569.114489 109.067778 
L 570.750428 120.198125 
L 599.340416 120.198125 
L 599.457269 119.504206 
L 602.846 95.288532 
L 604.793547 82.937101 
L 606.351585 74.389565 
L 607.675916 68.270443 
L 608.844445 63.861317 
L 609.857169 60.852817 
L 610.75304 58.853768 
L 611.532059 57.637558 
L 612.194225 56.993135 
L 612.778489 56.724773 
L 613.284851 56.720875 
L 613.791214 56.929365 
L 614.375478 57.432936 
L 614.998693 58.278285 
L 615.73876 59.689655 
L 616.55673 61.753043 
L 617.491553 64.736641 
L 618.582179 69.018134 
L 619.828609 74.887804 
L 621.269793 82.827503 
L 622.983635 93.60198 
L 625.203838 109.089244 
L 626.839778 120.198125 
L 642.225398 120.198125 
L 642.225398 120.198125 
" clip-path="url(#p67004e0c97)" style="fill: none; stroke: #000000; stroke-width: 1.5; stroke-linecap: square"/>
   </g>
   <g id="patch_3">
    <path d="M 53.328125 120.198125 
L 53.328125 22.318125 
" style="fill: none; stroke: #000000; stroke-width: 0.8; stroke-linejoin: miter; stroke-linecap: square"/>
   </g>
   <g id="patch_4">
    <path d="M 670.268125 120.198125 
L 670.268125 22.318125 
" style="fill: none; stroke: #000000; stroke-width: 0.8; stroke-linejoin: miter; stroke-linecap: square"/>
   </g>
   <g id="patch_5">
    <path d="M 53.328125 120.198125 
L 670.268125 120.198125 
" style="fill: none; stroke: #000000; stroke-width: 0.8; stroke-linejoin: miter; stroke-linecap: square"/>
   </g>
   <g id="patch_6">
    <path d="M 53.328125 22.318125 
L 670.268125 22.318125 
" style="fill: none; stroke: #000000; stroke-width: 0.8; stroke-linejoin: miter; stroke-linecap: square"/>
   </g>
   <g id="text_17">
    <!-- Overirradiance Events - GHI  do dia 01 ao dia 10 de June de 2024 -->
    <g transform="translate(165.3975 16.318125) scale(0.12 -0.12)">
     <defs>
      <path id="DejaVuSans-4f" d="M 2522 4238 
Q 1834 4238 1429 3725 
Q 1025 3213 1025 2328 
Q 1025 1447 1429 934 
Q 1834 422 2522 422 
Q 3209 422 3611 934 
Q 4013 1447 4013 2328 
Q 4013 3213 3611 3725 
Q 3209 4238 2522 4238 
z
M 2522 4750 
Q 3503 4750 4090 4092 
Q 4678 3434 4678 2328 
Q 4678 1225 4090 567 
Q 3503 -91 2522 -91 
Q 1538 -91 948 565 
Q 359 1222 359 2328 
Q 359 3434 948 4092 
Q 1538 4750 2522 4750 
z
" transform="scale(0.015625)"/>
      <path id="DejaVuSans-76" d="M 191 3500 
L 800 3500 
L 1894 563 
L 2988 3500 
L 3597 3500 
L 2284 0 
L 1503 0 
L 191 3500 
z
" transform="scale(0.015625)"/>
      <path id="DejaVuSans-65" d="M 3597 1894 
L 3597 1613 
L 953 1613 
Q 991 1019 1311 708 
Q 1631 397 2203 397 
Q 2534 397 2845 478 
Q 3156 559 3463 722 
L 3463 178 
Q 3153 47 2828 -22 
Q 2503 -91 2169 -91 
Q 1331 -91 842 396 
Q 353 884 353 1716 
Q 353 2575 817 3079 
Q 1281 3584 2069 3584 
Q 2775 3584 3186 3129 
Q 3597 2675 3597 1894 
z
M 3022 2063 
Q 3016 2534 2758 2815 
Q 2500 3097 2075 3097 
Q 1594 3097 1305 2825 
Q 1016 2553 972 2059 
L 3022 2063 
z
" transform="scale(0.015625)"/>
      <path id="DejaVuSans-72" d="M 2631 2963 
Q 2534 3019 2420 3045 
Q 2306 3072 2169 3072 
Q 1681 3072 1420 2755 
Q 1159 2438 1159 1844 
L 1159 0 
L 581 0 
L 581 3500 
L 1159 3500 
L 1159 2956 
Q 1341 3275 1631 3429 
Q 1922 3584 2338 3584 
Q 2397 3584 2469 3576 
Q 2541 3569 2628 3553 
L 2631 2963 
z
" transform="scale(0.015625)"/>
      <path id="DejaVuSans-69" d="M 603 3500 
L 1178 3500 
L 1178 0 
L 603 0 
L 603 3500 
z
M 603 4863 
L 1178 4863 
L 1178 4134 
L 603 4134 
L 603 4863 
z
" transform="scale(0.015625)"/>
      <path id="DejaVuSans-61" d="M 2194 1759 
Q 1497 1759 1228 1600 
Q 959 1441 959 1056 
Q 959 750 1161 570 
Q 1363 391 1709 391 
Q 2188 391 2477 730 
Q 2766 1069 2766 1631 
L 2766 1759 
L 2194 1759 
z
M 3341 1997 
L 3341 0 
L 2766 0 
L 2766 531 
Q 2569 213 2275 61 
Q 1981 -91 1556 -91 
Q 1019 -91 701 211 
Q 384 513 384 1019 
Q 384 1609 779 1909 
Q 1175 2209 1959 2209 
L 2766 2209 
L 2766 2266 
Q 2766 2663 2505 2880 
Q 2244 3097 1772 3097 
Q 1472 3097 1187 3025 
Q 903 2953 641 2809 
L 641 3341 
Q 956 3463 1253 3523 
Q 1550 3584 1831 3584 
Q 2591 3584 2966 3190 
Q 3341 2797 3341 1997 
z
" transform="scale(0.015625)"/>
      <path id="DejaVuSans-64" d="M 2906 2969 
L 2906 4863 
L 3481 4863 
L 3481 0 
L 2906 0 
L 2906 525 
Q 2725 213 2448 61 
Q 2172 -91 1784 -91 
Q 1150 -91 751 415 
Q 353 922 353 1747 
Q 353 2572 751 3078 
Q 1150 3584 1784 3584 
Q 2172 3584 2448 3432 
Q 2725 3281 2906 2969 
z
M 947 1747 
Q 947 1113 1208 752 
Q 1469 391 1925 391 
Q 2381 391 2643 752 
Q 2906 1113 2906 1747 
Q 2906 2381 2643 2742 
Q 2381 3103 1925 3103 
Q 1469 3103 1208 2742 
Q 947 2381 947 1747 
z
" transform="scale(0.015625)"/>
      <path id="DejaVuSans-6e" d="M 3513 2113 
L 3513 0 
L 2938 0 
L 2938 2094 
Q 2938 2591 2744 2837 
Q 2550 3084 2163 3084 
Q 1697 3084 1428 2787 
Q 1159 2491 1159 1978 
L 1159 0 
L 581 0 
L 581 3500 
L 1159 3500 
L 1159 2956 
Q 1366 3272 1645 3428 
Q 1925 3584 2291 3584 
Q 2894 3584 3203 3211 
Q 3513 2838 3513 2113 
z
" transform="scale(0.015625)"/>
      <path id="DejaVuSans-63" d="M 3122 3366 
L 3122 2828 
Q 2878 2963 2633 3030 
Q 2388 3097 2138 3097 
Q 1578 3097 1268 2742 
Q 959 2388 959 1747 
Q 959 1106 1268 751 
Q 1578 397 2138 397 
Q 2388 397 2633 464 
Q 2878 531 3122 666 
L 3122 134 
Q 2881 22 2623 -34 
Q 2366 -91 2075 -91 
Q 1284 -91 818 406 
Q 353 903 353 1747 
Q 353 2603 823 3093 
Q 1294 3584 2113 3584 
Q 2378 3584 2631 3529 
Q 2884 3475 3122 3366 
z
" transform="scale(0.015625)"/>
      <path id="DejaVuSans-20" transform="scale(0.015625)"/>
      <path id="DejaVuSans-45" d="M 628 4666 
L 3578 4666 
L 3578 4134 
L 1259 4134 
L 1259 2753 
L 3481 2753 
L 3481 2222 
L 1259 2222 
L 1259 531 
L 3634 531 
L 3634 0 
L 628 0 
L 628 4666 
z
" transform="scale(0.015625)"/>
      <path id="DejaVuSans-74" d="M 1172 4494 
L 1172 3500 
L 2356 3500 
L 2356 3053 
L 1172 3053 
L 1172 1153 
Q 1172 725 1289 603 
Q 1406 481 1766 481 
L 2356 481 
L 2356 0 
L 1766 0 
Q 1100 0 847 248 
Q 594 497 594 1153 
L 594 3053 
L 172 3053 
L 172 3500 
L 594 3500 
L 594 4494 
L 1172 4494 
z
" transform="scale(0.015625)"/>
      <path id="DejaVuSans-73" d="M 2834 3397 
L 2834 2853 
Q 2591 2978 2328 3040 
Q 2066 3103 1784 3103 
Q 1356 3103 1142 2972 
Q 928 2841 928 2578 
Q 928 2378 1081 2264 
Q 1234 2150 1697 2047 
L 1894 2003 
Q 2506 1872 2764 1633 
Q 3022 1394 3022 966 
Q 3022 478 2636 193 
Q 2250 -91 1575 -91 
Q 1294 -91 989 -36 
Q 684 19 347 128 
L 347 722 
Q 666 556 975 473 
Q 1284 391 1588 391 
Q 1994 391 2212 530 
Q 2431 669 2431 922 
Q 2431 1156 2273 1281 
Q 2116 1406 1581 1522 
L 1381 1569 
Q 847 1681 609 1914 
Q 372 2147 372 2553 
Q 372 3047 722 3315 
Q 1072 3584 1716 3584 
Q 2034 3584 2315 3537 
Q 2597 3491 2834 3397 
z
" transform="scale(0.015625)"/>
      <path id="DejaVuSans-2d" d="M 313 2009 
L 1997 2009 
L 1997 1497 
L 313 1497 
L 313 2009 
z
" transform="scale(0.015625)"/>
      <path id="DejaVuSans-47" d="M 3809 666 
L 3809 1919 
L 2778 1919 
L 2778 2438 
L 4434 2438 
L 4434 434 
Q 4069 175 3628 42 
Q 3188 -91 2688 -91 
Q 1594 -91 976 548 
Q 359 1188 359 2328 
Q 359 3472 976 4111 
Q 1594 4750 2688 4750 
Q 3144 4750 3555 4637 
Q 3966 4525 4313 4306 
L 4313 3634 
Q 3963 3931 3569 4081 
Q 3175 4231 2741 4231 
Q 1884 4231 1454 3753 
Q 1025 3275 1025 2328 
Q 1025 1384 1454 906 
Q 1884 428 2741 428 
Q 3075 428 3337 486 
Q 3600 544 3809 666 
z
" transform="scale(0.015625)"/>
      <path id="DejaVuSans-48" d="M 628 4666 
L 1259 4666 
L 1259 2753 
L 3553 2753 
L 3553 4666 
L 4184 4666 
L 4184 0 
L 3553 0 
L 3553 2222 
L 1259 2222 
L 1259 0 
L 628 0 
L 628 4666 
z
" transform="scale(0.015625)"/>
      <path id="DejaVuSans-49" d="M 628 4666 
L 1259 4666 
L 1259 0 
L 628 0 
L 628 4666 
z
" transform="scale(0.015625)"/>
      <path id="DejaVuSans-6f" d="M 1959 3097 
Q 1497 3097 1228 2736 
Q 959 2375 959 1747 
Q 959 1119 1226 758 
Q 1494 397 1959 397 
Q 2419 397 2687 759 
Q 2956 1122 2956 1747 
Q 2956 2369 2687 2733 
Q 2419 3097 1959 3097 
z
M 1959 3584 
Q 2709 3584 3137 3096 
Q 3566 2609 3566 1747 
Q 3566 888 3137 398 
Q 2709 -91 1959 -91 
Q 1206 -91 779 398 
Q 353 888 353 1747 
Q 353 2609 779 3096 
Q 1206 3584 1959 3584 
z
" transform="scale(0.015625)"/>
      <path id="DejaVuSans-4a" d="M 628 4666 
L 1259 4666 
L 1259 325 
Q 1259 -519 939 -900 
Q 619 -1281 -91 -1281 
L -331 -1281 
L -331 -750 
L -134 -750 
Q 284 -750 456 -515 
Q 628 -281 628 325 
L 628 4666 
z
" transform="scale(0.015625)"/>
      <path id="DejaVuSans-75" d="M 544 1381 
L 544 3500 
L 1119 3500 
L 1119 1403 
Q 1119 906 1312 657 
Q 1506 409 1894 409 
Q 2359 409 2629 706 
Q 2900 1003 2900 1516 
L 2900 3500 
L 3475 3500 
L 3475 0 
L 2900 0 
L 2900 538 
Q 2691 219 2414 64 
Q 2138 -91 1772 -91 
Q 1169 -91 856 284 
Q 544 659 544 1381 
z
M 1991 3584 
L 1991 3584 
z
" transform="scale(0.015625)"/>
     </defs>
     <use xlink:href="#DejaVuSans-4f"/>
     <use xlink:href="#DejaVuSans-76" x="78.710938"/>
     <use xlink:href="#DejaVuSans-65" x="137.890625"/>
     <use xlink:href="#DejaVuSans-72" x="199.414062"/>
     <use xlink:href="#DejaVuSans-69" x="240.527344"/>
     <use xlink:href="#DejaVuSans-72" x="268.310547"/>
     <use xlink:href="#DejaVuSans-72" x="307.673828"/>
     <use xlink:href="#DejaVuSans-61" x="348.787109"/>
     <use xlink:href="#DejaVuSans-64" x="410.066406"/>
     <use xlink:href="#DejaVuSans-69" x="473.542969"/>
     <use xlink:href="#DejaVuSans-61" x="501.326172"/>
     <use xlink:href="#DejaVuSans-6e" x="562.605469"/>
     <use xlink:href="#DejaVuSans-63" x="625.984375"/>
     <use xlink:href="#DejaVuSans-65" x="680.964844"/>
     <use xlink:href="#DejaVuSans-20" x="742.488281"/>
     <use xlink:href="#DejaVuSans-45" x="774.275391"/>
     <use xlink:href="#DejaVuSans-76" x="837.458984"/>
     <use xlink:href="#DejaVuSans-65" x="896.638672"/>
     <use xlink:href="#DejaVuSans-6e" x="958.162109"/>
     <use xlink:href="#DejaVuSans-74" x="1021.541016"/>
     <use xlink:href="#DejaVuSans-73" x="1060.75"/>
     <use xlink:href="#DejaVuSans-20" x="1112.849609"/>
     <use xlink:href="#DejaVuSans-2d" x="1144.636719"/>
     <use xlink:href="#DejaVuSans-20" x="1180.720703"/>
     <use xlink:href="#DejaVuSans-47" x="1212.507812"/>
     <use xlink:href="#DejaVuSans-48" x="1289.998047"/>
     <use xlink:href="#DejaVuSans-49" x="1365.193359"/>
     <use xlink:href="#DejaVuSans-20" x="1394.685547"/>
     <use xlink:href="#DejaVuSans-20" x="1426.472656"/>
     <use xlink:href="#DejaVuSans-64" x="1458.259766"/>
     <use xlink:href="#DejaVuSans-6f" x="1521.736328"/>
     <use xlink:href="#DejaVuSans-20" x="1582.917969"/>
     <use xlink:href="#DejaVuSans-64" x="1614.705078"/>
     <use xlink:href="#DejaVuSans-69" x="1678.181641"/>
     <use xlink:href="#DejaVuSans-61" x="1705.964844"/>
     <use xlink:href="#DejaVuSans-20" x="1767.244141"/>
     <use xlink:href="#DejaVuSans-30" x="1799.03125"/>
     <use xlink:href="#DejaVuSans-31" x="1862.654297"/>
     <use xlink:href="#DejaVuSans-20" x="1926.277344"/>
     <use xlink:href="#DejaVuSans-61" x="1958.064453"/>
     <use xlink:href="#DejaVuSans-6f" x="2019.34375"/>
     <use xlink:href="#DejaVuSans-20" x="2080.525391"/>
     <use xlink:href="#DejaVuSans-64" x="2112.3125"/>
     <use xlink:href="#DejaVuSans-69" x="2175.789062"/>
     <use xlink:href="#DejaVuSans-61" x="2203.572266"/>
     <use xlink:href="#DejaVuSans-20" x="2264.851562"/>
     <use xlink:href="#DejaVuSans-31" x="2296.638672"/>
     <use xlink:href="#DejaVuSans-30" x="2360.261719"/>
     <use xlink:href="#DejaVuSans-20" x="2423.884766"/>
     <use xlink:href="#DejaVuSans-64" x="2455.671875"/>
     <use xlink:href="#DejaVuSans-65" x="2519.148438"/>
     <use xlink:href="#DejaVuSans-20" x="2580.671875"/>
     <use xlink:href="#DejaVuSans-4a" x="2612.458984"/>
     <use xlink:href="#DejaVuSans-75" x="2641.951172"/>
     <use xlink:href="#DejaVuSans-6e" x="2705.330078"/>
     <use xlink:href="#DejaVuSans-65" x="2768.708984"/>
     <use xlink:href="#DejaVuSans-20" x="2830.232422"/>
     <use xlink:href="#DejaVuSans-64" x="2862.019531"/>
     <use xlink:href="#DejaVuSans-65" x="2925.496094"/>
     <use xlink:href="#DejaVuSans-20" x="2987.019531"/>
     <use xlink:href="#DejaVuSans-32" x="3018.806641"/>
     <use xlink:href="#DejaVuSans-30" x="3082.429688"/>
     <use xlink:href="#DejaVuSans-32" x="3146.052734"/>
     <use xlink:href="#DejaVuSans-34" x="3209.675781"/>
    </g>
   </g>
   <g id="legend_1">
    <g id="patch_7">
     <path d="M 677.268125 44.99625 
L 847.097813 44.99625 
Q 849.097813 44.99625 849.097813 42.99625 
L 849.097813 29.318125 
Q 849.097813 27.318125 847.097813 27.318125 
L 677.268125 27.318125 
Q 675.268125 27.318125 675.268125 29.318125 
L 675.268125 42.99625 
Q 675.268125 44.99625 677.268125 44.99625 
z
" style="fill: #ffffff; opacity: 0.8; stroke: #cccccc; stroke-linejoin: miter"/>
    </g>
    <g id="line2d_33">
     <path d="M 679.268125 35.416562 
L 689.268125 35.416562 
L 699.268125 35.416562 
" style="fill: none; stroke: #0000ff; stroke-width: 1.5; stroke-linecap: square"/>
     <g>
      <use xlink:href="#mfdcf060bf3" x="689.268125" y="35.416562" style="fill: #0000ff; stroke: #0000ff"/>
     </g>
    </g>
    <g id="text_18">
     <!-- OverIrradiance -->
     <g transform="translate(707.268125 38.916562) scale(0.1 -0.1)">
      <use xlink:href="#DejaVuSans-4f"/>
      <use xlink:href="#DejaVuSans-76" x="78.710938"/>
      <use xlink:href="#DejaVuSans-65" x="137.890625"/>
      <use xlink:href="#DejaVuSans-72" x="199.414062"/>
      <use xlink:href="#DejaVuSans-49" x="240.527344"/>
      <use xlink:href="#DejaVuSans-72" x="270.019531"/>
      <use xlink:href="#DejaVuSans-72" x="309.382812"/>
      <use xlink:href="#DejaVuSans-61" x="350.496094"/>
      <use xlink:href="#DejaVuSans-64" x="411.775391"/>
      <use xlink:href="#DejaVuSans-69" x="475.251953"/>
      <use xlink:href="#DejaVuSans-61" x="503.035156"/>
      <use xlink:href="#DejaVuSans-6e" x="564.314453"/>
      <use xlink:href="#DejaVuSans-63" x="627.693359"/>
      <use xlink:href="#DejaVuSans-65" x="682.673828"/>
     </g>
    </g>
    <g id="line2d_34">
     <path d="M 801.691563 35.416562 
L 811.691563 35.416562 
L 821.691563 35.416562 
" style="fill: none; stroke: #000000; stroke-width: 1.5; stroke-linecap: square"/>
    </g>
    <g id="text_19">
     <!-- Ioh -->
     <g transform="translate(829.691563 38.916562) scale(0.1 -0.1)">
      <defs>
       <path id="DejaVuSans-68" d="M 3513 2113 
L 3513 0 
L 2938 0 
L 2938 2094 
Q 2938 2591 2744 2837 
Q 2550 3084 2163 3084 
Q 1697 3084 1428 2787 
Q 1159 2491 1159 1978 
L 1159 0 
L 581 0 
L 581 4863 
L 1159 4863 
L 1159 2956 
Q 1366 3272 1645 3428 
Q 1925 3584 2291 3584 
Q 2894 3584 3203 3211 
Q 3513 2838 3513 2113 
z
" transform="scale(0.015625)"/>
      </defs>
      <use xlink:href="#DejaVuSans-49"/>
      <use xlink:href="#DejaVuSans-6f" x="29.492188"/>
      <use xlink:href="#DejaVuSans-68" x="90.673828"/>
     </g>
    </g>
   </g>
  </g>
  <g id="axes_2">
   <g id="patch_8">
    <path d="M 53.328125 260.598125 
L 670.268125 260.598125 
L 670.268125 162.718125 
L 53.328125 162.718125 
z
" style="fill: #ffffff"/>
   </g>
   <g id="matplotlib.axis_3">
    <g id="xtick_12">
     <g id="line2d_35">
      <path d="M 81.370852 260.598125 
L 81.370852 162.718125 
" clip-path="url(#pb7f4266cd0)" style="fill: none; stroke-dasharray: 1.85,0.8; stroke-dashoffset: 0; stroke: #b0b0b0; stroke-width: 0.5"/>
     </g>
     <g id="line2d_36">
      <g>
       <use xlink:href="#mb47acddf7b" x="81.370852" y="260.598125" style="stroke: #000000; stroke-width: 0.8"/>
      </g>
     </g>
     <g id="text_20">
      <!-- 11 -->
      <g transform="translate(75.008352 275.196562) scale(0.1 -0.1)">
       <use xlink:href="#DejaVuSans-31"/>
       <use xlink:href="#DejaVuSans-31" x="63.623047"/>
      </g>
     </g>
    </g>
    <g id="xtick_13">
     <g id="line2d_37">
      <path d="M 137.460202 260.598125 
L 137.460202 162.718125 
" clip-path="url(#pb7f4266cd0)" style="fill: none; stroke-dasharray: 1.85,0.8; stroke-dashoffset: 0; stroke: #b0b0b0; stroke-width: 0.5"/>
     </g>
     <g id="line2d_38">
      <g>
       <use xlink:href="#mb47acddf7b" x="137.460202" y="260.598125" style="stroke: #000000; stroke-width: 0.8"/>
      </g>
     </g>
     <g id="text_21">
      <!-- 12 -->
      <g transform="translate(131.097702 275.196562) scale(0.1 -0.1)">
       <use xlink:href="#DejaVuSans-31"/>
       <use xlink:href="#DejaVuSans-32" x="63.623047"/>
      </g>
     </g>
    </g>
    <g id="xtick_14">
     <g id="line2d_39">
      <path d="M 193.549552 260.598125 
L 193.549552 162.718125 
" clip-path="url(#pb7f4266cd0)" style="fill: none; stroke-dasharray: 1.85,0.8; stroke-dashoffset: 0; stroke: #b0b0b0; stroke-width: 0.5"/>
     </g>
     <g id="line2d_40">
      <g>
       <use xlink:href="#mb47acddf7b" x="193.549552" y="260.598125" style="stroke: #000000; stroke-width: 0.8"/>
      </g>
     </g>
     <g id="text_22">
      <!-- 13 -->
      <g transform="translate(187.187052 275.196562) scale(0.1 -0.1)">
       <use xlink:href="#DejaVuSans-31"/>
       <use xlink:href="#DejaVuSans-33" x="63.623047"/>
      </g>
     </g>
    </g>
    <g id="xtick_15">
     <g id="line2d_41">
      <path d="M 249.638901 260.598125 
L 249.638901 162.718125 
" clip-path="url(#pb7f4266cd0)" style="fill: none; stroke-dasharray: 1.85,0.8; stroke-dashoffset: 0; stroke: #b0b0b0; stroke-width: 0.5"/>
     </g>
     <g id="line2d_42">
      <g>
       <use xlink:href="#mb47acddf7b" x="249.638901" y="260.598125" style="stroke: #000000; stroke-width: 0.8"/>
      </g>
     </g>
     <g id="text_23">
      <!-- 14 -->
      <g transform="translate(243.276401 275.196562) scale(0.1 -0.1)">
       <use xlink:href="#DejaVuSans-31"/>
       <use xlink:href="#DejaVuSans-34" x="63.623047"/>
      </g>
     </g>
    </g>
    <g id="xtick_16">
     <g id="line2d_43">
      <path d="M 305.728251 260.598125 
L 305.728251 162.718125 
" clip-path="url(#pb7f4266cd0)" style="fill: none; stroke-dasharray: 1.85,0.8; stroke-dashoffset: 0; stroke: #b0b0b0; stroke-width: 0.5"/>
     </g>
     <g id="line2d_44">
      <g>
       <use xlink:href="#mb47acddf7b" x="305.728251" y="260.598125" style="stroke: #000000; stroke-width: 0.8"/>
      </g>
     </g>
     <g id="text_24">
      <!-- 15 -->
      <g transform="translate(299.365751 275.196562) scale(0.1 -0.1)">
       <use xlink:href="#DejaVuSans-31"/>
       <use xlink:href="#DejaVuSans-35" x="63.623047"/>
      </g>
     </g>
    </g>
    <g id="xtick_17">
     <g id="line2d_45">
      <path d="M 361.8176 260.598125 
L 361.8176 162.718125 
" clip-path="url(#pb7f4266cd0)" style="fill: none; stroke-dasharray: 1.85,0.8; stroke-dashoffset: 0; stroke: #b0b0b0; stroke-width: 0.5"/>
     </g>
     <g id="line2d_46">
      <g>
       <use xlink:href="#mb47acddf7b" x="361.8176" y="260.598125" style="stroke: #000000; stroke-width: 0.8"/>
      </g>
     </g>
     <g id="text_25">
      <!-- 16 -->
      <g transform="translate(355.4551 275.196562) scale(0.1 -0.1)">
       <use xlink:href="#DejaVuSans-31"/>
       <use xlink:href="#DejaVuSans-36" x="63.623047"/>
      </g>
     </g>
    </g>
    <g id="xtick_18">
     <g id="line2d_47">
      <path d="M 417.90695 260.598125 
L 417.90695 162.718125 
" clip-path="url(#pb7f4266cd0)" style="fill: none; stroke-dasharray: 1.85,0.8; stroke-dashoffset: 0; stroke: #b0b0b0; stroke-width: 0.5"/>
     </g>
     <g id="line2d_48">
      <g>
       <use xlink:href="#mb47acddf7b" x="417.90695" y="260.598125" style="stroke: #000000; stroke-width: 0.8"/>
      </g>
     </g>
     <g id="text_26">
      <!-- 17 -->
      <g transform="translate(411.54445 275.196562) scale(0.1 -0.1)">
       <use xlink:href="#DejaVuSans-31"/>
       <use xlink:href="#DejaVuSans-37" x="63.623047"/>
      </g>
     </g>
    </g>
    <g id="xtick_19">
     <g id="line2d_49">
      <path d="M 473.9963 260.598125 
L 473.9963 162.718125 
" clip-path="url(#pb7f4266cd0)" style="fill: none; stroke-dasharray: 1.85,0.8; stroke-dashoffset: 0; stroke: #b0b0b0; stroke-width: 0.5"/>
     </g>
     <g id="line2d_50">
      <g>
       <use xlink:href="#mb47acddf7b" x="473.9963" y="260.598125" style="stroke: #000000; stroke-width: 0.8"/>
      </g>
     </g>
     <g id="text_27">
      <!-- 18 -->
      <g transform="translate(467.6338 275.196562) scale(0.1 -0.1)">
       <use xlink:href="#DejaVuSans-31"/>
       <use xlink:href="#DejaVuSans-38" x="63.623047"/>
      </g>
     </g>
    </g>
    <g id="xtick_20">
     <g id="line2d_51">
      <path d="M 530.085649 260.598125 
L 530.085649 162.718125 
" clip-path="url(#pb7f4266cd0)" style="fill: none; stroke-dasharray: 1.85,0.8; stroke-dashoffset: 0; stroke: #b0b0b0; stroke-width: 0.5"/>
     </g>
     <g id="line2d_52">
      <g>
       <use xlink:href="#mb47acddf7b" x="530.085649" y="260.598125" style="stroke: #000000; stroke-width: 0.8"/>
      </g>
     </g>
     <g id="text_28">
      <!-- 19 -->
      <g transform="translate(523.723149 275.196562) scale(0.1 -0.1)">
       <use xlink:href="#DejaVuSans-31"/>
       <use xlink:href="#DejaVuSans-39" x="63.623047"/>
      </g>
     </g>
    </g>
    <g id="xtick_21">
     <g id="line2d_53">
      <path d="M 586.174999 260.598125 
L 586.174999 162.718125 
" clip-path="url(#pb7f4266cd0)" style="fill: none; stroke-dasharray: 1.85,0.8; stroke-dashoffset: 0; stroke: #b0b0b0; stroke-width: 0.5"/>
     </g>
     <g id="line2d_54">
      <g>
       <use xlink:href="#mb47acddf7b" x="586.174999" y="260.598125" style="stroke: #000000; stroke-width: 0.8"/>
      </g>
     </g>
     <g id="text_29">
      <!-- 20 -->
      <g transform="translate(579.812499 275.196562) scale(0.1 -0.1)">
       <use xlink:href="#DejaVuSans-32"/>
       <use xlink:href="#DejaVuSans-30" x="63.623047"/>
      </g>
     </g>
    </g>
    <g id="xtick_22">
     <g id="line2d_55">
      <path d="M 642.264349 260.598125 
L 642.264349 162.718125 
" clip-path="url(#pb7f4266cd0)" style="fill: none; stroke-dasharray: 1.85,0.8; stroke-dashoffset: 0; stroke: #b0b0b0; stroke-width: 0.5"/>
     </g>
     <g id="line2d_56">
      <g>
       <use xlink:href="#mb47acddf7b" x="642.264349" y="260.598125" style="stroke: #000000; stroke-width: 0.8"/>
      </g>
     </g>
     <g id="text_30">
      <!-- 21 -->
      <g transform="translate(635.901849 275.196562) scale(0.1 -0.1)">
       <use xlink:href="#DejaVuSans-32"/>
       <use xlink:href="#DejaVuSans-31" x="63.623047"/>
      </g>
     </g>
    </g>
   </g>
   <g id="matplotlib.axis_4">
    <g id="ytick_5">
     <g id="line2d_57">
      <path d="M 53.328125 260.598125 
L 670.268125 260.598125 
" clip-path="url(#pb7f4266cd0)" style="fill: none; stroke-dasharray: 1.85,0.8; stroke-dashoffset: 0; stroke: #b0b0b0; stroke-width: 0.5"/>
     </g>
     <g id="line2d_58">
      <g>
       <use xlink:href="#m2545ac149b" x="53.328125" y="260.598125" style="stroke: #000000; stroke-width: 0.8"/>
      </g>
     </g>
     <g id="text_31">
      <!-- 0 -->
      <g transform="translate(39.965625 264.397344) scale(0.1 -0.1)">
       <use xlink:href="#DejaVuSans-30"/>
      </g>
     </g>
    </g>
    <g id="ytick_6">
     <g id="line2d_59">
      <path d="M 53.328125 233.409236 
L 670.268125 233.409236 
" clip-path="url(#pb7f4266cd0)" style="fill: none; stroke-dasharray: 1.85,0.8; stroke-dashoffset: 0; stroke: #b0b0b0; stroke-width: 0.5"/>
     </g>
     <g id="line2d_60">
      <g>
       <use xlink:href="#m2545ac149b" x="53.328125" y="233.409236" style="stroke: #000000; stroke-width: 0.8"/>
      </g>
     </g>
     <g id="text_32">
      <!-- 500 -->
      <g transform="translate(27.240625 237.208455) scale(0.1 -0.1)">
       <use xlink:href="#DejaVuSans-35"/>
       <use xlink:href="#DejaVuSans-30" x="63.623047"/>
       <use xlink:href="#DejaVuSans-30" x="127.246094"/>
      </g>
     </g>
    </g>
    <g id="ytick_7">
     <g id="line2d_61">
      <path d="M 53.328125 206.220347 
L 670.268125 206.220347 
" clip-path="url(#pb7f4266cd0)" style="fill: none; stroke-dasharray: 1.85,0.8; stroke-dashoffset: 0; stroke: #b0b0b0; stroke-width: 0.5"/>
     </g>
     <g id="line2d_62">
      <g>
       <use xlink:href="#m2545ac149b" x="53.328125" y="206.220347" style="stroke: #000000; stroke-width: 0.8"/>
      </g>
     </g>
     <g id="text_33">
      <!-- 1000 -->
      <g transform="translate(20.878125 210.019566) scale(0.1 -0.1)">
       <use xlink:href="#DejaVuSans-31"/>
       <use xlink:href="#DejaVuSans-30" x="63.623047"/>
       <use xlink:href="#DejaVuSans-30" x="127.246094"/>
       <use xlink:href="#DejaVuSans-30" x="190.869141"/>
      </g>
     </g>
    </g>
    <g id="ytick_8">
     <g id="line2d_63">
      <path d="M 53.328125 179.031458 
L 670.268125 179.031458 
" clip-path="url(#pb7f4266cd0)" style="fill: none; stroke-dasharray: 1.85,0.8; stroke-dashoffset: 0; stroke: #b0b0b0; stroke-width: 0.5"/>
     </g>
     <g id="line2d_64">
      <g>
       <use xlink:href="#m2545ac149b" x="53.328125" y="179.031458" style="stroke: #000000; stroke-width: 0.8"/>
      </g>
     </g>
     <g id="text_34">
      <!-- 1500 -->
      <g transform="translate(20.878125 182.830677) scale(0.1 -0.1)">
       <use xlink:href="#DejaVuSans-31"/>
       <use xlink:href="#DejaVuSans-35" x="63.623047"/>
       <use xlink:href="#DejaVuSans-30" x="127.246094"/>
       <use xlink:href="#DejaVuSans-30" x="190.869141"/>
      </g>
     </g>
    </g>
    <g id="text_35">
     <!-- W/m² -->
     <g transform="translate(14.798438 225.16125) rotate(-90) scale(0.1 -0.1)">
      <use xlink:href="#DejaVuSans-57"/>
      <use xlink:href="#DejaVuSans-2f" x="98.876953"/>
      <use xlink:href="#DejaVuSans-6d" x="132.568359"/>
      <use xlink:href="#DejaVuSans-b2" x="229.980469"/>
     </g>
    </g>
   </g>
   <g id="line2d_65">
    <path d="M 446.808546 196.940127 
L 446.847496 197.777218 
L 446.886447 195.879815 
M 557.662913 197.431756 
L 557.701864 197.623656 
M 615.037644 198.959663 
" clip-path="url(#pb7f4266cd0)" style="fill: none; stroke: #0000ff; stroke-width: 1.5; stroke-linecap: square"/>
    <g clip-path="url(#pb7f4266cd0)">
     <use xlink:href="#mfdcf060bf3" x="107.506931" y="197.097496" style="fill: #0000ff; stroke: #0000ff"/>
     <use xlink:href="#mfdcf060bf3" x="160.285451" y="201.867025" style="fill: #0000ff; stroke: #0000ff"/>
     <use xlink:href="#mfdcf060bf3" x="162.116145" y="197.994675" style="fill: #0000ff; stroke: #0000ff"/>
     <use xlink:href="#mfdcf060bf3" x="334.902503" y="195.996129" style="fill: #0000ff; stroke: #0000ff"/>
     <use xlink:href="#mfdcf060bf3" x="446.808546" y="196.940127" style="fill: #0000ff; stroke: #0000ff"/>
     <use xlink:href="#mfdcf060bf3" x="446.847496" y="197.777218" style="fill: #0000ff; stroke: #0000ff"/>
     <use xlink:href="#mfdcf060bf3" x="446.886447" y="195.879815" style="fill: #0000ff; stroke: #0000ff"/>
     <use xlink:href="#mfdcf060bf3" x="448.950847" y="201.618138" style="fill: #0000ff; stroke: #0000ff"/>
     <use xlink:href="#mfdcf060bf3" x="555.637464" y="196.732295" style="fill: #0000ff; stroke: #0000ff"/>
     <use xlink:href="#mfdcf060bf3" x="557.662913" y="197.431756" style="fill: #0000ff; stroke: #0000ff"/>
     <use xlink:href="#mfdcf060bf3" x="557.701864" y="197.623656" style="fill: #0000ff; stroke: #0000ff"/>
     <use xlink:href="#mfdcf060bf3" x="560.272626" y="196.848337" style="fill: #0000ff; stroke: #0000ff"/>
     <use xlink:href="#mfdcf060bf3" x="615.037644" y="198.959663" style="fill: #0000ff; stroke: #0000ff"/>
    </g>
   </g>
   <g id="line2d_66">
    <path d="M 81.370852 260.598125 
L 94.536269 260.598125 
L 94.614171 260.196867 
L 98.002902 235.973339 
L 99.950449 223.59915 
L 101.508487 215.024615 
L 102.87177 208.713685 
L 104.040298 204.308141 
L 105.053022 201.30219 
L 105.948894 199.304936 
L 106.727912 198.089922 
L 107.390078 197.446242 
L 107.974342 197.178323 
L 108.480705 197.174645 
L 108.987067 197.383205 
L 109.571331 197.886665 
L 110.194546 198.731674 
L 110.934614 200.142343 
L 111.752583 202.204589 
L 112.687406 205.186418 
L 113.778032 209.46525 
L 115.024462 215.331141 
L 116.465647 223.265581 
L 118.179488 234.032747 
L 120.399691 249.50926 
L 122.035631 260.598125 
L 150.66457 260.488272 
L 154.092252 235.993423 
L 156.039799 223.627781 
L 157.597836 215.059321 
L 158.961119 208.752992 
L 160.129647 204.350775 
L 161.142372 201.347199 
L 162.038243 199.351627 
L 162.817262 198.137742 
L 163.479428 197.494769 
L 164.063692 197.22728 
L 164.570054 197.223825 
L 165.076416 197.432468 
L 165.66068 197.935851 
L 166.283895 198.780572 
L 167.023963 200.190628 
L 167.841933 202.251855 
L 168.776755 205.232095 
L 169.867382 209.508524 
L 171.113812 215.370985 
L 172.554996 223.300639 
L 174.268838 234.061135 
L 176.489041 249.527811 
L 178.12498 260.598125 
L 206.753919 260.491044 
L 210.181602 236.011157 
L 212.129149 223.653329 
L 213.687186 215.090439 
L 215.050469 208.78834 
L 216.218997 204.389192 
L 217.231721 201.387816 
L 218.127593 199.39381 
L 218.906612 198.180984 
L 219.568778 197.538684 
L 220.153042 197.27161 
L 220.659404 197.268381 
L 221.165766 197.477121 
L 221.75003 197.980459 
L 222.373245 198.824945 
L 223.113313 200.234474 
L 223.931283 202.294809 
L 224.866105 205.273641 
L 225.956731 209.547924 
L 227.203161 215.407309 
L 228.644346 223.332652 
L 230.358187 234.087122 
L 232.578391 249.544886 
L 234.21433 260.598125 
L 262.843269 260.492926 
L 266.270951 236.026535 
L 268.218498 223.675782 
L 269.776536 215.117951 
L 271.139819 208.819707 
L 272.308347 204.423366 
L 273.321071 201.424013 
L 274.216943 199.431457 
L 274.995961 198.21962 
L 275.658127 197.577955 
L 276.242391 197.311284 
L 276.748754 197.30828 
L 277.255116 197.517133 
L 277.83938 198.020457 
L 278.462595 198.864761 
L 279.202663 200.27385 
L 280.020632 202.33342 
L 280.955455 205.311026 
L 282.046081 209.583422 
L 283.292511 215.440086 
L 284.733696 223.361598 
L 286.447537 234.11069 
L 288.66774 249.560473 
L 290.30368 260.598125 
L 318.932619 260.493923 
L 322.360301 236.039549 
L 324.307848 223.695128 
L 325.865885 215.14184 
L 327.229168 208.847074 
L 328.397696 204.453278 
L 329.410421 201.455769 
L 330.306292 199.464544 
L 331.085311 198.253624 
L 331.747477 197.612558 
L 332.331741 197.346274 
L 332.838103 197.343498 
L 333.344465 197.552476 
L 333.928729 198.05582 
L 334.551944 198.899994 
L 335.292012 200.30873 
L 336.109982 202.367661 
L 337.044804 205.344223 
L 338.135431 209.614993 
L 339.381861 215.469293 
L 340.823045 223.387456 
L 342.536887 234.131823 
L 344.75709 249.57456 
L 346.393029 260.598125 
L 375.021968 260.494039 
L 378.449651 236.050197 
L 380.397198 223.711357 
L 381.955235 215.162095 
L 383.318518 208.870425 
L 384.487046 204.478908 
L 385.49977 201.483063 
L 386.395642 199.493049 
L 387.174661 198.282975 
L 387.836827 197.642471 
L 388.421091 197.376559 
L 388.927453 197.374011 
L 389.433815 197.583129 
L 390.018079 198.086523 
L 390.641294 198.930621 
L 391.381362 200.339091 
L 392.199332 202.397509 
L 393.134154 205.37321 
L 394.22478 209.642617 
L 395.47121 215.49491 
L 396.912395 223.410207 
L 398.626236 234.150505 
L 400.84644 249.587138 
L 402.482379 260.598125 
L 431.111318 260.493279 
L 434.539 236.058475 
L 436.486547 223.724463 
L 438.044585 215.178706 
L 439.407867 208.889749 
L 440.576396 204.500244 
L 441.58912 201.50588 
L 442.484992 199.516958 
L 443.26401 198.307656 
L 443.926176 197.667674 
L 444.51044 197.402119 
L 445.016802 197.3998 
L 445.523165 197.609071 
L 446.107429 198.112547 
L 446.730644 198.956621 
L 447.470711 200.364912 
L 448.288681 202.422945 
L 449.223504 205.397968 
L 450.31413 209.666274 
L 451.56056 215.516919 
L 453.001745 223.429836 
L 454.715586 234.166722 
L 456.935789 249.598197 
L 458.571729 260.598125 
L 487.200667 260.491649 
L 490.62835 236.064382 
L 492.575897 223.734442 
L 494.133934 215.191665 
L 495.497217 208.905036 
L 496.665745 204.517274 
L 497.67847 201.524208 
L 498.574341 199.536255 
L 499.35336 198.327653 
L 500.015526 197.688155 
L 500.59979 197.422941 
L 501.106152 197.42085 
L 501.612514 197.630288 
L 502.196778 198.133878 
L 502.819993 198.977979 
L 503.560061 200.386179 
L 504.378031 202.443953 
L 505.312853 205.418481 
L 506.40348 209.685948 
L 507.64991 215.535307 
L 509.091094 223.44633 
L 510.804935 234.180464 
L 513.025139 249.607728 
L 514.622127 260.598125 
L 543.290017 260.489153 
L 546.7177 236.067919 
L 548.665246 223.741292 
L 550.223284 215.200969 
L 551.586567 208.91628 
L 552.755095 204.529991 
L 553.767819 201.538039 
L 554.663691 199.550934 
L 555.44271 198.342955 
L 556.104875 197.703902 
L 556.68914 197.439013 
L 557.195502 197.437151 
L 557.740815 197.671637 
L 558.325079 198.194016 
L 558.987245 199.122295 
L 559.727313 200.57639 
L 560.584233 202.796515 
L 561.558007 205.992935 
L 562.648633 210.377905 
L 563.895063 216.348842 
L 565.336248 224.380584 
L 567.08904 235.486492 
L 569.426096 251.869977 
L 570.711477 260.598125 
L 599.340416 260.598125 
L 599.418318 260.199137 
L 602.807049 236.069089 
L 604.754596 223.745014 
L 606.312634 215.206617 
L 607.675916 208.923479 
L 608.844445 204.538392 
L 609.857169 201.547369 
L 610.75304 199.560988 
L 611.532059 198.353558 
L 612.194225 197.71491 
L 612.778489 197.450328 
L 613.284851 197.448695 
L 613.830164 197.683386 
L 614.414429 198.205938 
L 615.076594 199.134351 
L 615.816662 200.588518 
L 616.673583 202.808625 
L 617.647356 206.004892 
L 618.737983 210.389524 
L 619.984413 216.359867 
L 621.425597 224.390661 
L 623.178389 235.495072 
L 625.515446 251.876073 
L 626.800827 260.598125 
L 642.225398 260.598125 
L 642.225398 260.598125 
" clip-path="url(#pb7f4266cd0)" style="fill: none; stroke: #000000; stroke-width: 1.5; stroke-linecap: square"/>
   </g>
   <g id="patch_9">
    <path d="M 53.328125 260.598125 
L 53.328125 162.718125 
" style="fill: none; stroke: #000000; stroke-width: 0.8; stroke-linejoin: miter; stroke-linecap: square"/>
   </g>
   <g id="patch_10">
    <path d="M 670.268125 260.598125 
L 670.268125 162.718125 
" style="fill: none; stroke: #000000; stroke-width: 0.8; stroke-linejoin: miter; stroke-linecap: square"/>
   </g>
   <g id="patch_11">
    <path d="M 53.328125 260.598125 
L 670.268125 260.598125 
" style="fill: none; stroke: #000000; stroke-width: 0.8; stroke-linejoin: miter; stroke-linecap: square"/>
   </g>
   <g id="patch_12">
    <path d="M 53.328125 162.718125 
L 670.268125 162.718125 
" style="fill: none; stroke: #000000; stroke-width: 0.8; stroke-linejoin: miter; stroke-linecap: square"/>
   </g>
   <g id="text_36">
    <!-- Overirradiance Events - GHI  do dia 11 ao dia 20 de June de 2024 -->
    <g transform="translate(165.3975 156.718125) scale(0.12 -0.12)">
     <use xlink:href="#DejaVuSans-4f"/>
     <use xlink:href="#DejaVuSans-76" x="78.710938"/>
     <use xlink:href="#DejaVuSans-65" x="137.890625"/>
     <use xlink:href="#DejaVuSans-72" x="199.414062"/>
     <use xlink:href="#DejaVuSans-69" x="240.527344"/>
     <use xlink:href="#DejaVuSans-72" x="268.310547"/>
     <use xlink:href="#DejaVuSans-72" x="307.673828"/>
     <use xlink:href="#DejaVuSans-61" x="348.787109"/>
     <use xlink:href="#DejaVuSans-64" x="410.066406"/>
     <use xlink:href="#DejaVuSans-69" x="473.542969"/>
     <use xlink:href="#DejaVuSans-61" x="501.326172"/>
     <use xlink:href="#DejaVuSans-6e" x="562.605469"/>
     <use xlink:href="#DejaVuSans-63" x="625.984375"/>
     <use xlink:href="#DejaVuSans-65" x="680.964844"/>
     <use xlink:href="#DejaVuSans-20" x="742.488281"/>
     <use xlink:href="#DejaVuSans-45" x="774.275391"/>
     <use xlink:href="#DejaVuSans-76" x="837.458984"/>
     <use xlink:href="#DejaVuSans-65" x="896.638672"/>
     <use xlink:href="#DejaVuSans-6e" x="958.162109"/>
     <use xlink:href="#DejaVuSans-74" x="1021.541016"/>
     <use xlink:href="#DejaVuSans-73" x="1060.75"/>
     <use xlink:href="#DejaVuSans-20" x="1112.849609"/>
     <use xlink:href="#DejaVuSans-2d" x="1144.636719"/>
     <use xlink:href="#DejaVuSans-20" x="1180.720703"/>
     <use xlink:href="#DejaVuSans-47" x="1212.507812"/>
     <use xlink:href="#DejaVuSans-48" x="1289.998047"/>
     <use xlink:href="#DejaVuSans-49" x="1365.193359"/>
     <use xlink:href="#DejaVuSans-20" x="1394.685547"/>
     <use xlink:href="#DejaVuSans-20" x="1426.472656"/>
     <use xlink:href="#DejaVuSans-64" x="1458.259766"/>
     <use xlink:href="#DejaVuSans-6f" x="1521.736328"/>
     <use xlink:href="#DejaVuSans-20" x="1582.917969"/>
     <use xlink:href="#DejaVuSans-64" x="1614.705078"/>
     <use xlink:href="#DejaVuSans-69" x="1678.181641"/>
     <use xlink:href="#DejaVuSans-61" x="1705.964844"/>
     <use xlink:href="#DejaVuSans-20" x="1767.244141"/>
     <use xlink:href="#DejaVuSans-31" x="1799.03125"/>
     <use xlink:href="#DejaVuSans-31" x="1862.654297"/>
     <use xlink:href="#DejaVuSans-20" x="1926.277344"/>
     <use xlink:href="#DejaVuSans-61" x="1958.064453"/>
     <use xlink:href="#DejaVuSans-6f" x="2019.34375"/>
     <use xlink:href="#DejaVuSans-20" x="2080.525391"/>
     <use xlink:href="#DejaVuSans-64" x="2112.3125"/>
     <use xlink:href="#DejaVuSans-69" x="2175.789062"/>
     <use xlink:href="#DejaVuSans-61" x="2203.572266"/>
     <use xlink:href="#DejaVuSans-20" x="2264.851562"/>
     <use xlink:href="#DejaVuSans-32" x="2296.638672"/>
     <use xlink:href="#DejaVuSans-30" x="2360.261719"/>
     <use xlink:href="#DejaVuSans-20" x="2423.884766"/>
     <use xlink:href="#DejaVuSans-64" x="2455.671875"/>
     <use xlink:href="#DejaVuSans-65" x="2519.148438"/>
     <use xlink:href="#DejaVuSans-20" x="2580.671875"/>
     <use xlink:href="#DejaVuSans-4a" x="2612.458984"/>
     <use xlink:href="#DejaVuSans-75" x="2641.951172"/>
     <use xlink:href="#DejaVuSans-6e" x="2705.330078"/>
     <use xlink:href="#DejaVuSans-65" x="2768.708984"/>
     <use xlink:href="#DejaVuSans-20" x="2830.232422"/>
     <use xlink:href="#DejaVuSans-64" x="2862.019531"/>
     <use xlink:href="#DejaVuSans-65" x="2925.496094"/>
     <use xlink:href="#DejaVuSans-20" x="2987.019531"/>
     <use xlink:href="#DejaVuSans-32" x="3018.806641"/>
     <use xlink:href="#DejaVuSans-30" x="3082.429688"/>
     <use xlink:href="#DejaVuSans-32" x="3146.052734"/>
     <use xlink:href="#DejaVuSans-34" x="3209.675781"/>
    </g>
   </g>
   <g id="legend_2">
    <g id="patch_13">
     <path d="M 677.268125 185.39625 
L 847.097813 185.39625 
Q 849.097813 185.39625 849.097813 183.39625 
L 849.097813 169.718125 
Q 849.097813 167.718125 847.097813 167.718125 
L 677.268125 167.718125 
Q 675.268125 167.718125 675.268125 169.718125 
L 675.268125 183.39625 
Q 675.268125 185.39625 677.268125 185.39625 
z
" style="fill: #ffffff; opacity: 0.8; stroke: #cccccc; stroke-linejoin: miter"/>
    </g>
    <g id="line2d_67">
     <path d="M 679.268125 175.816562 
L 689.268125 175.816562 
L 699.268125 175.816562 
" style="fill: none; stroke: #0000ff; stroke-width: 1.5; stroke-linecap: square"/>
     <g>
      <use xlink:href="#mfdcf060bf3" x="689.268125" y="175.816562" style="fill: #0000ff; stroke: #0000ff"/>
     </g>
    </g>
    <g id="text_37">
     <!-- OverIrradiance -->
     <g transform="translate(707.268125 179.316562) scale(0.1 -0.1)">
      <use xlink:href="#DejaVuSans-4f"/>
      <use xlink:href="#DejaVuSans-76" x="78.710938"/>
      <use xlink:href="#DejaVuSans-65" x="137.890625"/>
      <use xlink:href="#DejaVuSans-72" x="199.414062"/>
      <use xlink:href="#DejaVuSans-49" x="240.527344"/>
      <use xlink:href="#DejaVuSans-72" x="270.019531"/>
      <use xlink:href="#DejaVuSans-72" x="309.382812"/>
      <use xlink:href="#DejaVuSans-61" x="350.496094"/>
      <use xlink:href="#DejaVuSans-64" x="411.775391"/>
      <use xlink:href="#DejaVuSans-69" x="475.251953"/>
      <use xlink:href="#DejaVuSans-61" x="503.035156"/>
      <use xlink:href="#DejaVuSans-6e" x="564.314453"/>
      <use xlink:href="#DejaVuSans-63" x="627.693359"/>
      <use xlink:href="#DejaVuSans-65" x="682.673828"/>
     </g>
    </g>
    <g id="line2d_68">
     <path d="M 801.691563 175.816562 
L 811.691563 175.816562 
L 821.691563 175.816562 
" style="fill: none; stroke: #000000; stroke-width: 1.5; stroke-linecap: square"/>
    </g>
    <g id="text_38">
     <!-- Ioh -->
     <g transform="translate(829.691563 179.316562) scale(0.1 -0.1)">
      <use xlink:href="#DejaVuSans-49"/>
      <use xlink:href="#DejaVuSans-6f" x="29.492188"/>
      <use xlink:href="#DejaVuSans-68" x="90.673828"/>
     </g>
    </g>
   </g>
  </g>
  <g id="axes_3">
   <g id="patch_14">
    <path d="M 53.328125 400.998125 
L 670.268125 400.998125 
L 670.268125 303.118125 
L 53.328125 303.118125 
z
" style="fill: #ffffff"/>
   </g>
   <g id="matplotlib.axis_5">
    <g id="xtick_23">
     <g id="line2d_69">
      <path d="M 81.370852 400.998125 
L 81.370852 303.118125 
" clip-path="url(#p5532a72b76)" style="fill: none; stroke-dasharray: 1.85,0.8; stroke-dashoffset: 0; stroke: #b0b0b0; stroke-width: 0.5"/>
     </g>
     <g id="line2d_70">
      <g>
       <use xlink:href="#mb47acddf7b" x="81.370852" y="400.998125" style="stroke: #000000; stroke-width: 0.8"/>
      </g>
     </g>
     <g id="text_39">
      <!-- 21 -->
      <g transform="translate(75.008352 415.596562) scale(0.1 -0.1)">
       <use xlink:href="#DejaVuSans-32"/>
       <use xlink:href="#DejaVuSans-31" x="63.623047"/>
      </g>
     </g>
    </g>
    <g id="xtick_24">
     <g id="line2d_71">
      <path d="M 137.460202 400.998125 
L 137.460202 303.118125 
" clip-path="url(#p5532a72b76)" style="fill: none; stroke-dasharray: 1.85,0.8; stroke-dashoffset: 0; stroke: #b0b0b0; stroke-width: 0.5"/>
     </g>
     <g id="line2d_72">
      <g>
       <use xlink:href="#mb47acddf7b" x="137.460202" y="400.998125" style="stroke: #000000; stroke-width: 0.8"/>
      </g>
     </g>
     <g id="text_40">
      <!-- 22 -->
      <g transform="translate(131.097702 415.596562) scale(0.1 -0.1)">
       <use xlink:href="#DejaVuSans-32"/>
       <use xlink:href="#DejaVuSans-32" x="63.623047"/>
      </g>
     </g>
    </g>
    <g id="xtick_25">
     <g id="line2d_73">
      <path d="M 193.549552 400.998125 
L 193.549552 303.118125 
" clip-path="url(#p5532a72b76)" style="fill: none; stroke-dasharray: 1.85,0.8; stroke-dashoffset: 0; stroke: #b0b0b0; stroke-width: 0.5"/>
     </g>
     <g id="line2d_74">
      <g>
       <use xlink:href="#mb47acddf7b" x="193.549552" y="400.998125" style="stroke: #000000; stroke-width: 0.8"/>
      </g>
     </g>
     <g id="text_41">
      <!-- 23 -->
      <g transform="translate(187.187052 415.596562) scale(0.1 -0.1)">
       <use xlink:href="#DejaVuSans-32"/>
       <use xlink:href="#DejaVuSans-33" x="63.623047"/>
      </g>
     </g>
    </g>
    <g id="xtick_26">
     <g id="line2d_75">
      <path d="M 249.638901 400.998125 
L 249.638901 303.118125 
" clip-path="url(#p5532a72b76)" style="fill: none; stroke-dasharray: 1.85,0.8; stroke-dashoffset: 0; stroke: #b0b0b0; stroke-width: 0.5"/>
     </g>
     <g id="line2d_76">
      <g>
       <use xlink:href="#mb47acddf7b" x="249.638901" y="400.998125" style="stroke: #000000; stroke-width: 0.8"/>
      </g>
     </g>
     <g id="text_42">
      <!-- 24 -->
      <g transform="translate(243.276401 415.596562) scale(0.1 -0.1)">
       <use xlink:href="#DejaVuSans-32"/>
       <use xlink:href="#DejaVuSans-34" x="63.623047"/>
      </g>
     </g>
    </g>
    <g id="xtick_27">
     <g id="line2d_77">
      <path d="M 305.728251 400.998125 
L 305.728251 303.118125 
" clip-path="url(#p5532a72b76)" style="fill: none; stroke-dasharray: 1.85,0.8; stroke-dashoffset: 0; stroke: #b0b0b0; stroke-width: 0.5"/>
     </g>
     <g id="line2d_78">
      <g>
       <use xlink:href="#mb47acddf7b" x="305.728251" y="400.998125" style="stroke: #000000; stroke-width: 0.8"/>
      </g>
     </g>
     <g id="text_43">
      <!-- 25 -->
      <g transform="translate(299.365751 415.596562) scale(0.1 -0.1)">
       <use xlink:href="#DejaVuSans-32"/>
       <use xlink:href="#DejaVuSans-35" x="63.623047"/>
      </g>
     </g>
    </g>
    <g id="xtick_28">
     <g id="line2d_79">
      <path d="M 361.8176 400.998125 
L 361.8176 303.118125 
" clip-path="url(#p5532a72b76)" style="fill: none; stroke-dasharray: 1.85,0.8; stroke-dashoffset: 0; stroke: #b0b0b0; stroke-width: 0.5"/>
     </g>
     <g id="line2d_80">
      <g>
       <use xlink:href="#mb47acddf7b" x="361.8176" y="400.998125" style="stroke: #000000; stroke-width: 0.8"/>
      </g>
     </g>
     <g id="text_44">
      <!-- 26 -->
      <g transform="translate(355.4551 415.596562) scale(0.1 -0.1)">
       <use xlink:href="#DejaVuSans-32"/>
       <use xlink:href="#DejaVuSans-36" x="63.623047"/>
      </g>
     </g>
    </g>
    <g id="xtick_29">
     <g id="line2d_81">
      <path d="M 417.90695 400.998125 
L 417.90695 303.118125 
" clip-path="url(#p5532a72b76)" style="fill: none; stroke-dasharray: 1.85,0.8; stroke-dashoffset: 0; stroke: #b0b0b0; stroke-width: 0.5"/>
     </g>
     <g id="line2d_82">
      <g>
       <use xlink:href="#mb47acddf7b" x="417.90695" y="400.998125" style="stroke: #000000; stroke-width: 0.8"/>
      </g>
     </g>
     <g id="text_45">
      <!-- 27 -->
      <g transform="translate(411.54445 415.596562) scale(0.1 -0.1)">
       <use xlink:href="#DejaVuSans-32"/>
       <use xlink:href="#DejaVuSans-37" x="63.623047"/>
      </g>
     </g>
    </g>
    <g id="xtick_30">
     <g id="line2d_83">
      <path d="M 473.9963 400.998125 
L 473.9963 303.118125 
" clip-path="url(#p5532a72b76)" style="fill: none; stroke-dasharray: 1.85,0.8; stroke-dashoffset: 0; stroke: #b0b0b0; stroke-width: 0.5"/>
     </g>
     <g id="line2d_84">
      <g>
       <use xlink:href="#mb47acddf7b" x="473.9963" y="400.998125" style="stroke: #000000; stroke-width: 0.8"/>
      </g>
     </g>
     <g id="text_46">
      <!-- 28 -->
      <g transform="translate(467.6338 415.596562) scale(0.1 -0.1)">
       <use xlink:href="#DejaVuSans-32"/>
       <use xlink:href="#DejaVuSans-38" x="63.623047"/>
      </g>
     </g>
    </g>
    <g id="xtick_31">
     <g id="line2d_85">
      <path d="M 530.085649 400.998125 
L 530.085649 303.118125 
" clip-path="url(#p5532a72b76)" style="fill: none; stroke-dasharray: 1.85,0.8; stroke-dashoffset: 0; stroke: #b0b0b0; stroke-width: 0.5"/>
     </g>
     <g id="line2d_86">
      <g>
       <use xlink:href="#mb47acddf7b" x="530.085649" y="400.998125" style="stroke: #000000; stroke-width: 0.8"/>
      </g>
     </g>
     <g id="text_47">
      <!-- 29 -->
      <g transform="translate(523.723149 415.596562) scale(0.1 -0.1)">
       <use xlink:href="#DejaVuSans-32"/>
       <use xlink:href="#DejaVuSans-39" x="63.623047"/>
      </g>
     </g>
    </g>
    <g id="xtick_32">
     <g id="line2d_87">
      <path d="M 586.174999 400.998125 
L 586.174999 303.118125 
" clip-path="url(#p5532a72b76)" style="fill: none; stroke-dasharray: 1.85,0.8; stroke-dashoffset: 0; stroke: #b0b0b0; stroke-width: 0.5"/>
     </g>
     <g id="line2d_88">
      <g>
       <use xlink:href="#mb47acddf7b" x="586.174999" y="400.998125" style="stroke: #000000; stroke-width: 0.8"/>
      </g>
     </g>
     <g id="text_48">
      <!-- 30 -->
      <g transform="translate(579.812499 415.596562) scale(0.1 -0.1)">
       <use xlink:href="#DejaVuSans-33"/>
       <use xlink:href="#DejaVuSans-30" x="63.623047"/>
      </g>
     </g>
    </g>
    <g id="xtick_33">
     <g id="line2d_89">
      <path d="M 642.264349 400.998125 
L 642.264349 303.118125 
" clip-path="url(#p5532a72b76)" style="fill: none; stroke-dasharray: 1.85,0.8; stroke-dashoffset: 0; stroke: #b0b0b0; stroke-width: 0.5"/>
     </g>
     <g id="line2d_90">
      <g>
       <use xlink:href="#mb47acddf7b" x="642.264349" y="400.998125" style="stroke: #000000; stroke-width: 0.8"/>
      </g>
     </g>
     <g id="text_49">
      <!-- 01 -->
      <g transform="translate(635.901849 415.596562) scale(0.1 -0.1)">
       <use xlink:href="#DejaVuSans-30"/>
       <use xlink:href="#DejaVuSans-31" x="63.623047"/>
      </g>
     </g>
    </g>
   </g>
   <g id="matplotlib.axis_6">
    <g id="ytick_9">
     <g id="line2d_91">
      <path d="M 53.328125 400.998125 
L 670.268125 400.998125 
" clip-path="url(#p5532a72b76)" style="fill: none; stroke-dasharray: 1.85,0.8; stroke-dashoffset: 0; stroke: #b0b0b0; stroke-width: 0.5"/>
     </g>
     <g id="line2d_92">
      <g>
       <use xlink:href="#m2545ac149b" x="53.328125" y="400.998125" style="stroke: #000000; stroke-width: 0.8"/>
      </g>
     </g>
     <g id="text_50">
      <!-- 0 -->
      <g transform="translate(39.965625 404.797344) scale(0.1 -0.1)">
       <use xlink:href="#DejaVuSans-30"/>
      </g>
     </g>
    </g>
    <g id="ytick_10">
     <g id="line2d_93">
      <path d="M 53.328125 373.809236 
L 670.268125 373.809236 
" clip-path="url(#p5532a72b76)" style="fill: none; stroke-dasharray: 1.85,0.8; stroke-dashoffset: 0; stroke: #b0b0b0; stroke-width: 0.5"/>
     </g>
     <g id="line2d_94">
      <g>
       <use xlink:href="#m2545ac149b" x="53.328125" y="373.809236" style="stroke: #000000; stroke-width: 0.8"/>
      </g>
     </g>
     <g id="text_51">
      <!-- 500 -->
      <g transform="translate(27.240625 377.608455) scale(0.1 -0.1)">
       <use xlink:href="#DejaVuSans-35"/>
       <use xlink:href="#DejaVuSans-30" x="63.623047"/>
       <use xlink:href="#DejaVuSans-30" x="127.246094"/>
      </g>
     </g>
    </g>
    <g id="ytick_11">
     <g id="line2d_95">
      <path d="M 53.328125 346.620347 
L 670.268125 346.620347 
" clip-path="url(#p5532a72b76)" style="fill: none; stroke-dasharray: 1.85,0.8; stroke-dashoffset: 0; stroke: #b0b0b0; stroke-width: 0.5"/>
     </g>
     <g id="line2d_96">
      <g>
       <use xlink:href="#m2545ac149b" x="53.328125" y="346.620347" style="stroke: #000000; stroke-width: 0.8"/>
      </g>
     </g>
     <g id="text_52">
      <!-- 1000 -->
      <g transform="translate(20.878125 350.419566) scale(0.1 -0.1)">
       <use xlink:href="#DejaVuSans-31"/>
       <use xlink:href="#DejaVuSans-30" x="63.623047"/>
       <use xlink:href="#DejaVuSans-30" x="127.246094"/>
       <use xlink:href="#DejaVuSans-30" x="190.869141"/>
      </g>
     </g>
    </g>
    <g id="ytick_12">
     <g id="line2d_97">
      <path d="M 53.328125 319.431458 
L 670.268125 319.431458 
" clip-path="url(#p5532a72b76)" style="fill: none; stroke-dasharray: 1.85,0.8; stroke-dashoffset: 0; stroke: #b0b0b0; stroke-width: 0.5"/>
     </g>
     <g id="line2d_98">
      <g>
       <use xlink:href="#m2545ac149b" x="53.328125" y="319.431458" style="stroke: #000000; stroke-width: 0.8"/>
      </g>
     </g>
     <g id="text_53">
      <!-- 1500 -->
      <g transform="translate(20.878125 323.230677) scale(0.1 -0.1)">
       <use xlink:href="#DejaVuSans-31"/>
       <use xlink:href="#DejaVuSans-35" x="63.623047"/>
       <use xlink:href="#DejaVuSans-30" x="127.246094"/>
       <use xlink:href="#DejaVuSans-30" x="190.869141"/>
      </g>
     </g>
    </g>
    <g id="text_54">
     <!-- W/m² -->
     <g transform="translate(14.798438 365.56125) rotate(-90) scale(0.1 -0.1)">
      <use xlink:href="#DejaVuSans-57"/>
      <use xlink:href="#DejaVuSans-2f" x="98.876953"/>
      <use xlink:href="#DejaVuSans-6d" x="132.568359"/>
      <use xlink:href="#DejaVuSans-b2" x="229.980469"/>
     </g>
    </g>
   </g>
   <g id="line2d_99">
    <path d="M 168.192491 341.330531 
L 168.231442 339.454226 
M 225.294565 344.941488 
" clip-path="url(#p5532a72b76)" style="fill: none; stroke: #0000ff; stroke-width: 1.5; stroke-linecap: square"/>
    <g clip-path="url(#p5532a72b76)">
     <use xlink:href="#mfdcf060bf3" x="167.569276" y="341.462615" style="fill: #0000ff; stroke: #0000ff"/>
     <use xlink:href="#mfdcf060bf3" x="168.192491" y="341.330531" style="fill: #0000ff; stroke: #0000ff"/>
     <use xlink:href="#mfdcf060bf3" x="168.231442" y="339.454226" style="fill: #0000ff; stroke: #0000ff"/>
     <use xlink:href="#mfdcf060bf3" x="169.127314" y="345.828226" style="fill: #0000ff; stroke: #0000ff"/>
     <use xlink:href="#mfdcf060bf3" x="225.216664" y="341.045048" style="fill: #0000ff; stroke: #0000ff"/>
     <use xlink:href="#mfdcf060bf3" x="225.294565" y="344.941488" style="fill: #0000ff; stroke: #0000ff"/>
    </g>
   </g>
   <g id="line2d_100">
    <path d="M 81.370852 400.998125 
L 94.536269 400.998125 
L 94.653122 400.308389 
L 98.041853 376.206787 
L 99.9894 363.916418 
L 101.547438 355.412868 
L 102.87177 349.326634 
L 104.040298 344.942477 
L 105.053022 341.952196 
L 105.948894 339.966415 
L 106.727912 338.759459 
L 107.390078 338.121176 
L 107.974342 337.856885 
L 108.480705 337.855479 
L 109.026018 338.090389 
L 109.610282 338.613144 
L 110.272448 339.541748 
L 111.012516 340.996077 
L 111.869436 343.216302 
L 112.84321 346.412612 
L 113.933836 350.797176 
L 115.180266 356.767292 
L 116.62145 364.797634 
L 118.374243 375.901233 
L 120.711299 392.28076 
L 121.99668 400.998125 
L 150.625619 400.998125 
L 150.742472 400.30336 
L 154.092252 376.464345 
L 156.039799 364.143083 
L 157.597836 355.606952 
L 158.961119 349.325748 
L 160.129647 344.942248 
L 161.142372 341.952523 
L 162.038243 339.967218 
L 162.817262 338.76066 
L 163.479428 338.1227 
L 164.063692 337.858683 
L 164.570054 337.857504 
L 165.115367 338.092646 
L 165.699631 338.615636 
L 166.361797 339.544487 
L 167.101865 340.999066 
L 167.958786 343.219545 
L 168.932559 346.416093 
L 170.023185 350.800858 
L 171.269615 356.771116 
L 172.7108 364.801498 
L 174.463592 375.90497 
L 176.800649 392.284034 
L 178.086029 400.998125 
L 206.714968 400.998125 
L 206.831821 400.297454 
L 210.181602 376.458443 
L 212.129149 364.137443 
L 213.687186 355.601651 
L 215.050469 349.320829 
L 216.218997 344.937713 
L 217.231721 341.948358 
L 218.127593 339.963404 
L 218.906612 338.757167 
L 219.568778 338.11949 
L 220.153042 337.855728 
L 220.659404 337.854774 
L 221.204717 338.090162 
L 221.788981 338.613417 
L 222.451147 339.54257 
L 223.191215 340.997487 
L 224.048135 343.218355 
L 225.021909 346.415337 
L 226.112535 350.800572 
L 227.358965 356.771336 
L 228.80015 364.802252 
L 230.552942 375.90628 
L 232.889998 392.28589 
L 234.175379 400.998125 
L 262.804318 400.998125 
L 262.921171 400.290677 
L 266.270951 376.4502 
L 268.218498 364.128701 
L 269.776536 355.592718 
L 271.139819 349.311888 
L 272.308347 344.928881 
L 273.321071 341.939709 
L 274.216943 339.954981 
L 274.995961 338.748989 
L 275.658127 338.111553 
L 276.242391 337.848028 
L 276.748754 337.847298 
L 277.294067 338.082944 
L 277.878331 338.606495 
L 278.540497 339.536006 
L 279.280564 340.991349 
L 280.137485 343.212739 
L 281.111258 346.410349 
L 282.201885 350.796321 
L 283.448315 356.767956 
L 284.889499 364.799898 
L 286.642292 375.905162 
L 288.979348 392.286325 
L 290.264729 400.998125 
L 318.893668 400.998125 
L 319.01052 400.283035 
L 322.360301 376.439625 
L 324.307848 364.116866 
L 325.865885 355.580165 
L 327.229168 349.298937 
L 328.397696 344.915768 
L 329.410421 341.92659 
L 330.306292 339.941964 
L 331.085311 338.736139 
L 331.747477 338.098903 
L 332.331741 337.835597 
L 332.838103 337.835089 
L 333.383416 338.071005 
L 333.96768 338.594882 
L 334.629846 339.524805 
L 335.369914 340.98066 
L 336.226835 343.202707 
L 337.200608 346.401138 
L 338.291234 350.788111 
L 339.537664 356.760981 
L 340.978849 364.794438 
L 342.731641 375.901617 
L 345.068697 392.285336 
L 346.354078 400.998125 
L 374.983017 400.998125 
L 375.138821 399.987922 
L 378.488602 376.165558 
L 380.436148 363.872729 
L 381.994186 355.368255 
L 383.318518 349.281993 
L 384.487046 344.898389 
L 385.49977 341.90902 
L 386.395642 339.924369 
L 387.174661 338.718635 
L 387.836827 338.081557 
L 388.421091 337.818452 
L 388.927453 337.818162 
L 389.472766 338.054362 
L 390.05703 338.578594 
L 390.719196 339.508983 
L 391.459264 340.965435 
L 392.316184 343.188271 
L 393.289958 346.387714 
L 394.380584 350.775954 
L 395.627014 356.750419 
L 397.068199 364.785878 
L 398.820991 375.895648 
L 401.158047 392.282921 
L 402.443428 400.998125 
L 431.072367 400.998125 
L 431.228171 399.978498 
L 434.577951 376.150298 
L 436.525498 363.854707 
L 438.083536 355.348475 
L 439.407867 349.261077 
L 440.576396 344.876766 
L 441.58912 341.887019 
L 442.484992 339.902219 
L 443.26401 338.696498 
L 443.926176 338.059535 
L 444.51044 337.796611 
L 445.016802 337.796539 
L 445.562116 338.033032 
L 446.14638 338.557648 
L 446.808546 339.488557 
L 447.548613 340.945693 
L 448.405534 343.169448 
L 449.379307 346.370093 
L 450.469934 350.759862 
L 451.716364 356.736282 
L 453.157548 364.774227 
L 454.91034 375.887258 
L 457.247397 392.279079 
L 458.532778 400.998125 
L 487.161717 400.998125 
L 487.356471 399.681505 
L 490.667301 376.132731 
L 492.614848 363.83363 
L 494.172885 355.325119 
L 495.497217 349.236211 
L 496.665745 344.850923 
L 497.67847 341.860611 
L 498.574341 339.875537 
L 499.35336 338.669752 
L 500.015526 338.032863 
L 500.59979 337.770101 
L 501.106152 337.770242 
L 501.651465 338.007041 
L 502.235729 338.53207 
L 502.897895 339.463551 
L 503.637963 340.921453 
L 504.494884 343.146258 
L 505.468657 346.348294 
L 506.559283 350.739853 
L 507.805713 356.718582 
L 509.246898 364.759494 
L 510.99969 375.876453 
L 513.336746 392.273809 
L 514.622127 400.998125 
L 543.251066 400.998125 
L 543.445821 399.670258 
L 546.756651 376.112876 
L 548.704197 363.80952 
L 550.262235 355.298212 
L 551.586567 349.207422 
L 552.755095 344.820887 
L 553.767819 341.829825 
L 554.663691 339.844352 
L 555.44271 338.638426 
L 556.104875 338.001568 
L 556.68914 337.738949 
L 557.195502 337.739301 
L 557.701864 337.951351 
L 558.286128 338.458156 
L 558.909343 339.305911 
L 559.649411 340.718722 
L 560.46738 342.781904 
L 561.402203 345.762955 
L 562.492829 350.038402 
L 563.739259 355.89722 
L 565.180444 363.819403 
L 566.894285 374.566733 
L 569.114489 390.010216 
L 570.711477 400.998125 
L 599.340416 400.998125 
L 599.574121 399.371281 
L 602.846 376.090749 
L 604.793547 363.782399 
L 606.351585 355.267781 
L 607.675916 349.174739 
L 608.844445 344.786688 
L 609.857169 341.794692 
L 610.75304 339.808697 
L 611.532059 338.602553 
L 612.194225 337.965684 
L 612.778489 337.703188 
L 613.284851 337.703746 
L 613.791214 337.916096 
L 614.375478 338.423361 
L 614.998693 339.271738 
L 615.73876 340.685462 
L 616.55673 342.749864 
L 617.491553 345.732568 
L 618.582179 350.010269 
L 619.828609 355.872052 
L 621.269793 363.798104 
L 622.983635 374.550519 
L 625.203838 390.001078 
L 626.800827 400.998125 
L 642.225398 400.998125 
L 642.225398 400.998125 
" clip-path="url(#p5532a72b76)" style="fill: none; stroke: #000000; stroke-width: 1.5; stroke-linecap: square"/>
   </g>
   <g id="patch_15">
    <path d="M 53.328125 400.998125 
L 53.328125 303.118125 
" style="fill: none; stroke: #000000; stroke-width: 0.8; stroke-linejoin: miter; stroke-linecap: square"/>
   </g>
   <g id="patch_16">
    <path d="M 670.268125 400.998125 
L 670.268125 303.118125 
" style="fill: none; stroke: #000000; stroke-width: 0.8; stroke-linejoin: miter; stroke-linecap: square"/>
   </g>
   <g id="patch_17">
    <path d="M 53.328125 400.998125 
L 670.268125 400.998125 
" style="fill: none; stroke: #000000; stroke-width: 0.8; stroke-linejoin: miter; stroke-linecap: square"/>
   </g>
   <g id="patch_18">
    <path d="M 53.328125 303.118125 
L 670.268125 303.118125 
" style="fill: none; stroke: #000000; stroke-width: 0.8; stroke-linejoin: miter; stroke-linecap: square"/>
   </g>
   <g id="text_55">
    <!-- Overirradiance Events - GHI  do dia 01 ao dia 30 de June de 2024 -->
    <g transform="translate(165.3975 297.118125) scale(0.12 -0.12)">
     <use xlink:href="#DejaVuSans-4f"/>
     <use xlink:href="#DejaVuSans-76" x="78.710938"/>
     <use xlink:href="#DejaVuSans-65" x="137.890625"/>
     <use xlink:href="#DejaVuSans-72" x="199.414062"/>
     <use xlink:href="#DejaVuSans-69" x="240.527344"/>
     <use xlink:href="#DejaVuSans-72" x="268.310547"/>
     <use xlink:href="#DejaVuSans-72" x="307.673828"/>
     <use xlink:href="#DejaVuSans-61" x="348.787109"/>
     <use xlink:href="#DejaVuSans-64" x="410.066406"/>
     <use xlink:href="#DejaVuSans-69" x="473.542969"/>
     <use xlink:href="#DejaVuSans-61" x="501.326172"/>
     <use xlink:href="#DejaVuSans-6e" x="562.605469"/>
     <use xlink:href="#DejaVuSans-63" x="625.984375"/>
     <use xlink:href="#DejaVuSans-65" x="680.964844"/>
     <use xlink:href="#DejaVuSans-20" x="742.488281"/>
     <use xlink:href="#DejaVuSans-45" x="774.275391"/>
     <use xlink:href="#DejaVuSans-76" x="837.458984"/>
     <use xlink:href="#DejaVuSans-65" x="896.638672"/>
     <use xlink:href="#DejaVuSans-6e" x="958.162109"/>
     <use xlink:href="#DejaVuSans-74" x="1021.541016"/>
     <use xlink:href="#DejaVuSans-73" x="1060.75"/>
     <use xlink:href="#DejaVuSans-20" x="1112.849609"/>
     <use xlink:href="#DejaVuSans-2d" x="1144.636719"/>
     <use xlink:href="#DejaVuSans-20" x="1180.720703"/>
     <use xlink:href="#DejaVuSans-47" x="1212.507812"/>
     <use xlink:href="#DejaVuSans-48" x="1289.998047"/>
     <use xlink:href="#DejaVuSans-49" x="1365.193359"/>
     <use xlink:href="#DejaVuSans-20" x="1394.685547"/>
     <use xlink:href="#DejaVuSans-20" x="1426.472656"/>
     <use xlink:href="#DejaVuSans-64" x="1458.259766"/>
     <use xlink:href="#DejaVuSans-6f" x="1521.736328"/>
     <use xlink:href="#DejaVuSans-20" x="1582.917969"/>
     <use xlink:href="#DejaVuSans-64" x="1614.705078"/>
     <use xlink:href="#DejaVuSans-69" x="1678.181641"/>
     <use xlink:href="#DejaVuSans-61" x="1705.964844"/>
     <use xlink:href="#DejaVuSans-20" x="1767.244141"/>
     <use xlink:href="#DejaVuSans-30" x="1799.03125"/>
     <use xlink:href="#DejaVuSans-31" x="1862.654297"/>
     <use xlink:href="#DejaVuSans-20" x="1926.277344"/>
     <use xlink:href="#DejaVuSans-61" x="1958.064453"/>
     <use xlink:href="#DejaVuSans-6f" x="2019.34375"/>
     <use xlink:href="#DejaVuSans-20" x="2080.525391"/>
     <use xlink:href="#DejaVuSans-64" x="2112.3125"/>
     <use xlink:href="#DejaVuSans-69" x="2175.789062"/>
     <use xlink:href="#DejaVuSans-61" x="2203.572266"/>
     <use xlink:href="#DejaVuSans-20" x="2264.851562"/>
     <use xlink:href="#DejaVuSans-33" x="2296.638672"/>
     <use xlink:href="#DejaVuSans-30" x="2360.261719"/>
     <use xlink:href="#DejaVuSans-20" x="2423.884766"/>
     <use xlink:href="#DejaVuSans-64" x="2455.671875"/>
     <use xlink:href="#DejaVuSans-65" x="2519.148438"/>
     <use xlink:href="#DejaVuSans-20" x="2580.671875"/>
     <use xlink:href="#DejaVuSans-4a" x="2612.458984"/>
     <use xlink:href="#DejaVuSans-75" x="2641.951172"/>
     <use xlink:href="#DejaVuSans-6e" x="2705.330078"/>
     <use xlink:href="#DejaVuSans-65" x="2768.708984"/>
     <use xlink:href="#DejaVuSans-20" x="2830.232422"/>
     <use xlink:href="#DejaVuSans-64" x="2862.019531"/>
     <use xlink:href="#DejaVuSans-65" x="2925.496094"/>
     <use xlink:href="#DejaVuSans-20" x="2987.019531"/>
     <use xlink:href="#DejaVuSans-32" x="3018.806641"/>
     <use xlink:href="#DejaVuSans-30" x="3082.429688"/>
     <use xlink:href="#DejaVuSans-32" x="3146.052734"/>
     <use xlink:href="#DejaVuSans-34" x="3209.675781"/>
    </g>
   </g>
   <g id="legend_3">
    <g id="patch_19">
     <path d="M 677.268125 325.79625 
L 847.097813 325.79625 
Q 849.097813 325.79625 849.097813 323.79625 
L 849.097813 310.118125 
Q 849.097813 308.118125 847.097813 308.118125 
L 677.268125 308.118125 
Q 675.268125 308.118125 675.268125 310.118125 
L 675.268125 323.79625 
Q 675.268125 325.79625 677.268125 325.79625 
z
" style="fill: #ffffff; opacity: 0.8; stroke: #cccccc; stroke-linejoin: miter"/>
    </g>
    <g id="line2d_101">
     <path d="M 679.268125 316.216563 
L 689.268125 316.216563 
L 699.268125 316.216563 
" style="fill: none; stroke: #0000ff; stroke-width: 1.5; stroke-linecap: square"/>
     <g>
      <use xlink:href="#mfdcf060bf3" x="689.268125" y="316.216563" style="fill: #0000ff; stroke: #0000ff"/>
     </g>
    </g>
    <g id="text_56">
     <!-- OverIrradiance -->
     <g transform="translate(707.268125 319.716563) scale(0.1 -0.1)">
      <use xlink:href="#DejaVuSans-4f"/>
      <use xlink:href="#DejaVuSans-76" x="78.710938"/>
      <use xlink:href="#DejaVuSans-65" x="137.890625"/>
      <use xlink:href="#DejaVuSans-72" x="199.414062"/>
      <use xlink:href="#DejaVuSans-49" x="240.527344"/>
      <use xlink:href="#DejaVuSans-72" x="270.019531"/>
      <use xlink:href="#DejaVuSans-72" x="309.382812"/>
      <use xlink:href="#DejaVuSans-61" x="350.496094"/>
      <use xlink:href="#DejaVuSans-64" x="411.775391"/>
      <use xlink:href="#DejaVuSans-69" x="475.251953"/>
      <use xlink:href="#DejaVuSans-61" x="503.035156"/>
      <use xlink:href="#DejaVuSans-6e" x="564.314453"/>
      <use xlink:href="#DejaVuSans-63" x="627.693359"/>
      <use xlink:href="#DejaVuSans-65" x="682.673828"/>
     </g>
    </g>
    <g id="line2d_102">
     <path d="M 801.691563 316.216563 
L 811.691563 316.216563 
L 821.691563 316.216563 
" style="fill: none; stroke: #000000; stroke-width: 1.5; stroke-linecap: square"/>
    </g>
    <g id="text_57">
     <!-- Ioh -->
     <g transform="translate(829.691563 319.716563) scale(0.1 -0.1)">
      <use xlink:href="#DejaVuSans-49"/>
      <use xlink:href="#DejaVuSans-6f" x="29.492188"/>
      <use xlink:href="#DejaVuSans-68" x="90.673828"/>
     </g>
    </g>
   </g>
  </g>
 </g>
 <defs>
  <clipPath id="p67004e0c97">
   <rect x="53.328125" y="22.318125" width="616.94" height="97.88"/>
  </clipPath>
  <clipPath id="pb7f4266cd0">
   <rect x="53.328125" y="162.718125" width="616.94" height="97.88"/>
  </clipPath>
  <clipPath id="p5532a72b76">
   <rect x="53.328125" y="303.118125" width="616.94" height="97.88"/>
  </clipPath>
 </defs>
</svg>
