<?xml version="1.0" encoding="utf-8" standalone="no"?>
<!DOCTYPE svg PUBLIC "-//W3C//DTD SVG 1.1//EN"
  "http://www.w3.org/Graphics/SVG/1.1/DTD/svg11.dtd">
<svg xmlns:xlink="http://www.w3.org/1999/xlink" width="568.932187pt" height="424.912031pt" viewBox="0 0 568.932187 424.912031" xmlns="http://www.w3.org/2000/svg" version="1.1">
 <metadata>
  <rdf:RDF xmlns:dc="http://purl.org/dc/elements/1.1/" xmlns:cc="http://creativecommons.org/ns#" xmlns:rdf="http://www.w3.org/1999/02/22-rdf-syntax-ns#">
   <cc:Work>
    <dc:type rdf:resource="http://purl.org/dc/dcmitype/StillImage"/>
    <dc:date>2024-10-24T16:41:11.002491</dc:date>
    <dc:format>image/svg+xml</dc:format>
    <dc:creator>
     <cc:Agent>
      <dc:title>Matplotlib v3.9.2, https://matplotlib.org/</dc:title>
     </cc:Agent>
    </dc:creator>
   </cc:Work>
  </rdf:RDF>
 </metadata>
 <defs>
  <style type="text/css">*{stroke-linejoin: round; stroke-linecap: butt}</style>
 </defs>
 <g id="figure_1">
  <g id="patch_1">
   <path d="M 0 424.912031 
L 568.932187 424.912031 
L 568.932187 0 
L 0 0 
z
" style="fill: #ffffff"/>
  </g>
  <g id="axes_1">
   <g id="patch_2">
    <path d="M 70.892187 377.677656 
L 561.732187 377.677656 
L 561.732187 24.597656 
L 70.892187 24.597656 
z
" style="fill: #ffffff"/>
   </g>
   <g id="matplotlib.axis_1">
    <g id="xtick_1">
     <g id="line2d_1">
      <path d="M 130.413786 377.677656 
L 130.413786 24.597656 
" clip-path="url(#pdc82ea5304)" style="fill: none; stroke-dasharray: 1.85,0.8; stroke-dashoffset: 0; stroke: #b0b0b0; stroke-width: 0.5"/>
     </g>
     <g id="line2d_2">
      <defs>
       <path id="m39982afbee" d="M 0 0 
L 0 3.5 
" style="stroke: #000000; stroke-width: 0.8"/>
      </defs>
      <g>
       <use xlink:href="#m39982afbee" x="130.413786" y="377.677656" style="stroke: #000000; stroke-width: 0.8"/>
      </g>
     </g>
     <g id="text_1">
      <!-- 02:00 -->
      <g transform="translate(108.799723 396.075312) scale(0.15 -0.15)">
       <defs>
        <path id="DejaVuSans-30" d="M 2034 4250 
Q 1547 4250 1301 3770 
Q 1056 3291 1056 2328 
Q 1056 1369 1301 889 
Q 1547 409 2034 409 
Q 2525 409 2770 889 
Q 3016 1369 3016 2328 
Q 3016 3291 2770 3770 
Q 2525 4250 2034 4250 
z
M 2034 4750 
Q 2819 4750 3233 4129 
Q 3647 3509 3647 2328 
Q 3647 1150 3233 529 
Q 2819 -91 2034 -91 
Q 1250 -91 836 529 
Q 422 1150 422 2328 
Q 422 3509 836 4129 
Q 1250 4750 2034 4750 
z
" transform="scale(0.015625)"/>
        <path id="DejaVuSans-32" d="M 1228 531 
L 3431 531 
L 3431 0 
L 469 0 
L 469 531 
Q 828 903 1448 1529 
Q 2069 2156 2228 2338 
Q 2531 2678 2651 2914 
Q 2772 3150 2772 3378 
Q 2772 3750 2511 3984 
Q 2250 4219 1831 4219 
Q 1534 4219 1204 4116 
Q 875 4013 500 3803 
L 500 4441 
Q 881 4594 1212 4672 
Q 1544 4750 1819 4750 
Q 2544 4750 2975 4387 
Q 3406 4025 3406 3419 
Q 3406 3131 3298 2873 
Q 3191 2616 2906 2266 
Q 2828 2175 2409 1742 
Q 1991 1309 1228 531 
z
" transform="scale(0.015625)"/>
        <path id="DejaVuSans-3a" d="M 750 794 
L 1409 794 
L 1409 0 
L 750 0 
L 750 794 
z
M 750 3309 
L 1409 3309 
L 1409 2516 
L 750 2516 
L 750 3309 
z
" transform="scale(0.015625)"/>
       </defs>
       <use xlink:href="#DejaVuSans-30"/>
       <use xlink:href="#DejaVuSans-32" x="63.623047"/>
       <use xlink:href="#DejaVuSans-3a" x="127.246094"/>
       <use xlink:href="#DejaVuSans-30" x="160.9375"/>
       <use xlink:href="#DejaVuSans-30" x="224.560547"/>
      </g>
     </g>
    </g>
    <g id="xtick_2">
     <g id="line2d_3">
      <path d="M 223.440509 377.677656 
L 223.440509 24.597656 
" clip-path="url(#pdc82ea5304)" style="fill: none; stroke-dasharray: 1.85,0.8; stroke-dashoffset: 0; stroke: #b0b0b0; stroke-width: 0.5"/>
     </g>
     <g id="line2d_4">
      <g>
       <use xlink:href="#m39982afbee" x="223.440509" y="377.677656" style="stroke: #000000; stroke-width: 0.8"/>
      </g>
     </g>
     <g id="text_2">
      <!-- 07:00 -->
      <g transform="translate(201.826446 396.075312) scale(0.15 -0.15)">
       <defs>
        <path id="DejaVuSans-37" d="M 525 4666 
L 3525 4666 
L 3525 4397 
L 1831 0 
L 1172 0 
L 2766 4134 
L 525 4134 
L 525 4666 
z
" transform="scale(0.015625)"/>
       </defs>
       <use xlink:href="#DejaVuSans-30"/>
       <use xlink:href="#DejaVuSans-37" x="63.623047"/>
       <use xlink:href="#DejaVuSans-3a" x="127.246094"/>
       <use xlink:href="#DejaVuSans-30" x="160.9375"/>
       <use xlink:href="#DejaVuSans-30" x="224.560547"/>
      </g>
     </g>
    </g>
    <g id="xtick_3">
     <g id="line2d_5">
      <path d="M 316.467232 377.677656 
L 316.467232 24.597656 
" clip-path="url(#pdc82ea5304)" style="fill: none; stroke-dasharray: 1.85,0.8; stroke-dashoffset: 0; stroke: #b0b0b0; stroke-width: 0.5"/>
     </g>
     <g id="line2d_6">
      <g>
       <use xlink:href="#m39982afbee" x="316.467232" y="377.677656" style="stroke: #000000; stroke-width: 0.8"/>
      </g>
     </g>
     <g id="text_3">
      <!-- 12:00 -->
      <g transform="translate(294.85317 396.075312) scale(0.15 -0.15)">
       <defs>
        <path id="DejaVuSans-31" d="M 794 531 
L 1825 531 
L 1825 4091 
L 703 3866 
L 703 4441 
L 1819 4666 
L 2450 4666 
L 2450 531 
L 3481 531 
L 3481 0 
L 794 0 
L 794 531 
z
" transform="scale(0.015625)"/>
       </defs>
       <use xlink:href="#DejaVuSans-31"/>
       <use xlink:href="#DejaVuSans-32" x="63.623047"/>
       <use xlink:href="#DejaVuSans-3a" x="127.246094"/>
       <use xlink:href="#DejaVuSans-30" x="160.9375"/>
       <use xlink:href="#DejaVuSans-30" x="224.560547"/>
      </g>
     </g>
    </g>
    <g id="xtick_4">
     <g id="line2d_7">
      <path d="M 409.493955 377.677656 
L 409.493955 24.597656 
" clip-path="url(#pdc82ea5304)" style="fill: none; stroke-dasharray: 1.85,0.8; stroke-dashoffset: 0; stroke: #b0b0b0; stroke-width: 0.5"/>
     </g>
     <g id="line2d_8">
      <g>
       <use xlink:href="#m39982afbee" x="409.493955" y="377.677656" style="stroke: #000000; stroke-width: 0.8"/>
      </g>
     </g>
     <g id="text_4">
      <!-- 17:00 -->
      <g transform="translate(387.879893 396.075312) scale(0.15 -0.15)">
       <use xlink:href="#DejaVuSans-31"/>
       <use xlink:href="#DejaVuSans-37" x="63.623047"/>
       <use xlink:href="#DejaVuSans-3a" x="127.246094"/>
       <use xlink:href="#DejaVuSans-30" x="160.9375"/>
       <use xlink:href="#DejaVuSans-30" x="224.560547"/>
      </g>
     </g>
    </g>
    <g id="xtick_5">
     <g id="line2d_9">
      <path d="M 502.520678 377.677656 
L 502.520678 24.597656 
" clip-path="url(#pdc82ea5304)" style="fill: none; stroke-dasharray: 1.85,0.8; stroke-dashoffset: 0; stroke: #b0b0b0; stroke-width: 0.5"/>
     </g>
     <g id="line2d_10">
      <g>
       <use xlink:href="#m39982afbee" x="502.520678" y="377.677656" style="stroke: #000000; stroke-width: 0.8"/>
      </g>
     </g>
     <g id="text_5">
      <!-- 22:00 -->
      <g transform="translate(480.906616 396.075312) scale(0.15 -0.15)">
       <use xlink:href="#DejaVuSans-32"/>
       <use xlink:href="#DejaVuSans-32" x="63.623047"/>
       <use xlink:href="#DejaVuSans-3a" x="127.246094"/>
       <use xlink:href="#DejaVuSans-30" x="160.9375"/>
       <use xlink:href="#DejaVuSans-30" x="224.560547"/>
      </g>
     </g>
    </g>
    <g id="text_6">
     <!-- Time -->
     <g transform="translate(297.961797 414.5925) scale(0.15 -0.15)">
      <defs>
       <path id="DejaVuSans-54" d="M -19 4666 
L 3928 4666 
L 3928 4134 
L 2272 4134 
L 2272 0 
L 1638 0 
L 1638 4134 
L -19 4134 
L -19 4666 
z
" transform="scale(0.015625)"/>
       <path id="DejaVuSans-69" d="M 603 3500 
L 1178 3500 
L 1178 0 
L 603 0 
L 603 3500 
z
M 603 4863 
L 1178 4863 
L 1178 4134 
L 603 4134 
L 603 4863 
z
" transform="scale(0.015625)"/>
       <path id="DejaVuSans-6d" d="M 3328 2828 
Q 3544 3216 3844 3400 
Q 4144 3584 4550 3584 
Q 5097 3584 5394 3201 
Q 5691 2819 5691 2113 
L 5691 0 
L 5113 0 
L 5113 2094 
Q 5113 2597 4934 2840 
Q 4756 3084 4391 3084 
Q 3944 3084 3684 2787 
Q 3425 2491 3425 1978 
L 3425 0 
L 2847 0 
L 2847 2094 
Q 2847 2600 2669 2842 
Q 2491 3084 2119 3084 
Q 1678 3084 1418 2786 
Q 1159 2488 1159 1978 
L 1159 0 
L 581 0 
L 581 3500 
L 1159 3500 
L 1159 2956 
Q 1356 3278 1631 3431 
Q 1906 3584 2284 3584 
Q 2666 3584 2933 3390 
Q 3200 3197 3328 2828 
z
" transform="scale(0.015625)"/>
       <path id="DejaVuSans-65" d="M 3597 1894 
L 3597 1613 
L 953 1613 
Q 991 1019 1311 708 
Q 1631 397 2203 397 
Q 2534 397 2845 478 
Q 3156 559 3463 722 
L 3463 178 
Q 3153 47 2828 -22 
Q 2503 -91 2169 -91 
Q 1331 -91 842 396 
Q 353 884 353 1716 
Q 353 2575 817 3079 
Q 1281 3584 2069 3584 
Q 2775 3584 3186 3129 
Q 3597 2675 3597 1894 
z
M 3022 2063 
Q 3016 2534 2758 2815 
Q 2500 3097 2075 3097 
Q 1594 3097 1305 2825 
Q 1016 2553 972 2059 
L 3022 2063 
z
" transform="scale(0.015625)"/>
      </defs>
      <use xlink:href="#DejaVuSans-54"/>
      <use xlink:href="#DejaVuSans-69" x="57.958984"/>
      <use xlink:href="#DejaVuSans-6d" x="85.742188"/>
      <use xlink:href="#DejaVuSans-65" x="183.154297"/>
     </g>
    </g>
   </g>
   <g id="matplotlib.axis_2">
    <g id="ytick_1">
     <g id="line2d_11">
      <path d="M 70.892187 377.677656 
L 561.732187 377.677656 
" clip-path="url(#pdc82ea5304)" style="fill: none; stroke-dasharray: 1.85,0.8; stroke-dashoffset: 0; stroke: #b0b0b0; stroke-width: 0.5"/>
     </g>
     <g id="line2d_12">
      <defs>
       <path id="m30dafd9200" d="M 0 0 
L -3.5 0 
" style="stroke: #000000; stroke-width: 0.8"/>
      </defs>
      <g>
       <use xlink:href="#m30dafd9200" x="70.892187" y="377.677656" style="stroke: #000000; stroke-width: 0.8"/>
      </g>
     </g>
     <g id="text_7">
      <!-- 0 -->
      <g transform="translate(54.348437 383.376484) scale(0.15 -0.15)">
       <use xlink:href="#DejaVuSans-30"/>
      </g>
     </g>
    </g>
    <g id="ytick_2">
     <g id="line2d_13">
      <path d="M 70.892187 338.446545 
L 561.732187 338.446545 
" clip-path="url(#pdc82ea5304)" style="fill: none; stroke-dasharray: 1.85,0.8; stroke-dashoffset: 0; stroke: #b0b0b0; stroke-width: 0.5"/>
     </g>
     <g id="line2d_14">
      <g>
       <use xlink:href="#m30dafd9200" x="70.892187" y="338.446545" style="stroke: #000000; stroke-width: 0.8"/>
      </g>
     </g>
     <g id="text_8">
      <!-- 200 -->
      <g transform="translate(35.260937 344.145373) scale(0.15 -0.15)">
       <use xlink:href="#DejaVuSans-32"/>
       <use xlink:href="#DejaVuSans-30" x="63.623047"/>
       <use xlink:href="#DejaVuSans-30" x="127.246094"/>
      </g>
     </g>
    </g>
    <g id="ytick_3">
     <g id="line2d_15">
      <path d="M 70.892187 299.215434 
L 561.732187 299.215434 
" clip-path="url(#pdc82ea5304)" style="fill: none; stroke-dasharray: 1.85,0.8; stroke-dashoffset: 0; stroke: #b0b0b0; stroke-width: 0.5"/>
     </g>
     <g id="line2d_16">
      <g>
       <use xlink:href="#m30dafd9200" x="70.892187" y="299.215434" style="stroke: #000000; stroke-width: 0.8"/>
      </g>
     </g>
     <g id="text_9">
      <!-- 400 -->
      <g transform="translate(35.260937 304.914262) scale(0.15 -0.15)">
       <defs>
        <path id="DejaVuSans-34" d="M 2419 4116 
L 825 1625 
L 2419 1625 
L 2419 4116 
z
M 2253 4666 
L 3047 4666 
L 3047 1625 
L 3713 1625 
L 3713 1100 
L 3047 1100 
L 3047 0 
L 2419 0 
L 2419 1100 
L 313 1100 
L 313 1709 
L 2253 4666 
z
" transform="scale(0.015625)"/>
       </defs>
       <use xlink:href="#DejaVuSans-34"/>
       <use xlink:href="#DejaVuSans-30" x="63.623047"/>
       <use xlink:href="#DejaVuSans-30" x="127.246094"/>
      </g>
     </g>
    </g>
    <g id="ytick_4">
     <g id="line2d_17">
      <path d="M 70.892187 259.984323 
L 561.732187 259.984323 
" clip-path="url(#pdc82ea5304)" style="fill: none; stroke-dasharray: 1.85,0.8; stroke-dashoffset: 0; stroke: #b0b0b0; stroke-width: 0.5"/>
     </g>
     <g id="line2d_18">
      <g>
       <use xlink:href="#m30dafd9200" x="70.892187" y="259.984323" style="stroke: #000000; stroke-width: 0.8"/>
      </g>
     </g>
     <g id="text_10">
      <!-- 600 -->
      <g transform="translate(35.260937 265.683151) scale(0.15 -0.15)">
       <defs>
        <path id="DejaVuSans-36" d="M 2113 2584 
Q 1688 2584 1439 2293 
Q 1191 2003 1191 1497 
Q 1191 994 1439 701 
Q 1688 409 2113 409 
Q 2538 409 2786 701 
Q 3034 994 3034 1497 
Q 3034 2003 2786 2293 
Q 2538 2584 2113 2584 
z
M 3366 4563 
L 3366 3988 
Q 3128 4100 2886 4159 
Q 2644 4219 2406 4219 
Q 1781 4219 1451 3797 
Q 1122 3375 1075 2522 
Q 1259 2794 1537 2939 
Q 1816 3084 2150 3084 
Q 2853 3084 3261 2657 
Q 3669 2231 3669 1497 
Q 3669 778 3244 343 
Q 2819 -91 2113 -91 
Q 1303 -91 875 529 
Q 447 1150 447 2328 
Q 447 3434 972 4092 
Q 1497 4750 2381 4750 
Q 2619 4750 2861 4703 
Q 3103 4656 3366 4563 
z
" transform="scale(0.015625)"/>
       </defs>
       <use xlink:href="#DejaVuSans-36"/>
       <use xlink:href="#DejaVuSans-30" x="63.623047"/>
       <use xlink:href="#DejaVuSans-30" x="127.246094"/>
      </g>
     </g>
    </g>
    <g id="ytick_5">
     <g id="line2d_19">
      <path d="M 70.892187 220.753212 
L 561.732187 220.753212 
" clip-path="url(#pdc82ea5304)" style="fill: none; stroke-dasharray: 1.85,0.8; stroke-dashoffset: 0; stroke: #b0b0b0; stroke-width: 0.5"/>
     </g>
     <g id="line2d_20">
      <g>
       <use xlink:href="#m30dafd9200" x="70.892187" y="220.753212" style="stroke: #000000; stroke-width: 0.8"/>
      </g>
     </g>
     <g id="text_11">
      <!-- 800 -->
      <g transform="translate(35.260937 226.45204) scale(0.15 -0.15)">
       <defs>
        <path id="DejaVuSans-38" d="M 2034 2216 
Q 1584 2216 1326 1975 
Q 1069 1734 1069 1313 
Q 1069 891 1326 650 
Q 1584 409 2034 409 
Q 2484 409 2743 651 
Q 3003 894 3003 1313 
Q 3003 1734 2745 1975 
Q 2488 2216 2034 2216 
z
M 1403 2484 
Q 997 2584 770 2862 
Q 544 3141 544 3541 
Q 544 4100 942 4425 
Q 1341 4750 2034 4750 
Q 2731 4750 3128 4425 
Q 3525 4100 3525 3541 
Q 3525 3141 3298 2862 
Q 3072 2584 2669 2484 
Q 3125 2378 3379 2068 
Q 3634 1759 3634 1313 
Q 3634 634 3220 271 
Q 2806 -91 2034 -91 
Q 1263 -91 848 271 
Q 434 634 434 1313 
Q 434 1759 690 2068 
Q 947 2378 1403 2484 
z
M 1172 3481 
Q 1172 3119 1398 2916 
Q 1625 2713 2034 2713 
Q 2441 2713 2670 2916 
Q 2900 3119 2900 3481 
Q 2900 3844 2670 4047 
Q 2441 4250 2034 4250 
Q 1625 4250 1398 4047 
Q 1172 3844 1172 3481 
z
" transform="scale(0.015625)"/>
       </defs>
       <use xlink:href="#DejaVuSans-38"/>
       <use xlink:href="#DejaVuSans-30" x="63.623047"/>
       <use xlink:href="#DejaVuSans-30" x="127.246094"/>
      </g>
     </g>
    </g>
    <g id="ytick_6">
     <g id="line2d_21">
      <path d="M 70.892187 181.522101 
L 561.732187 181.522101 
" clip-path="url(#pdc82ea5304)" style="fill: none; stroke-dasharray: 1.85,0.8; stroke-dashoffset: 0; stroke: #b0b0b0; stroke-width: 0.5"/>
     </g>
     <g id="line2d_22">
      <g>
       <use xlink:href="#m30dafd9200" x="70.892187" y="181.522101" style="stroke: #000000; stroke-width: 0.8"/>
      </g>
     </g>
     <g id="text_12">
      <!-- 1000 -->
      <g transform="translate(25.717187 187.220929) scale(0.15 -0.15)">
       <use xlink:href="#DejaVuSans-31"/>
       <use xlink:href="#DejaVuSans-30" x="63.623047"/>
       <use xlink:href="#DejaVuSans-30" x="127.246094"/>
       <use xlink:href="#DejaVuSans-30" x="190.869141"/>
      </g>
     </g>
    </g>
    <g id="ytick_7">
     <g id="line2d_23">
      <path d="M 70.892187 142.29099 
L 561.732187 142.29099 
" clip-path="url(#pdc82ea5304)" style="fill: none; stroke-dasharray: 1.85,0.8; stroke-dashoffset: 0; stroke: #b0b0b0; stroke-width: 0.5"/>
     </g>
     <g id="line2d_24">
      <g>
       <use xlink:href="#m30dafd9200" x="70.892187" y="142.29099" style="stroke: #000000; stroke-width: 0.8"/>
      </g>
     </g>
     <g id="text_13">
      <!-- 1200 -->
      <g transform="translate(25.717187 147.989818) scale(0.15 -0.15)">
       <use xlink:href="#DejaVuSans-31"/>
       <use xlink:href="#DejaVuSans-32" x="63.623047"/>
       <use xlink:href="#DejaVuSans-30" x="127.246094"/>
       <use xlink:href="#DejaVuSans-30" x="190.869141"/>
      </g>
     </g>
    </g>
    <g id="ytick_8">
     <g id="line2d_25">
      <path d="M 70.892187 103.059878 
L 561.732187 103.059878 
" clip-path="url(#pdc82ea5304)" style="fill: none; stroke-dasharray: 1.85,0.8; stroke-dashoffset: 0; stroke: #b0b0b0; stroke-width: 0.5"/>
     </g>
     <g id="line2d_26">
      <g>
       <use xlink:href="#m30dafd9200" x="70.892187" y="103.059878" style="stroke: #000000; stroke-width: 0.8"/>
      </g>
     </g>
     <g id="text_14">
      <!-- 1400 -->
      <g transform="translate(25.717187 108.758707) scale(0.15 -0.15)">
       <use xlink:href="#DejaVuSans-31"/>
       <use xlink:href="#DejaVuSans-34" x="63.623047"/>
       <use xlink:href="#DejaVuSans-30" x="127.246094"/>
       <use xlink:href="#DejaVuSans-30" x="190.869141"/>
      </g>
     </g>
    </g>
    <g id="ytick_9">
     <g id="line2d_27">
      <path d="M 70.892187 63.828767 
L 561.732187 63.828767 
" clip-path="url(#pdc82ea5304)" style="fill: none; stroke-dasharray: 1.85,0.8; stroke-dashoffset: 0; stroke: #b0b0b0; stroke-width: 0.5"/>
     </g>
     <g id="line2d_28">
      <g>
       <use xlink:href="#m30dafd9200" x="70.892187" y="63.828767" style="stroke: #000000; stroke-width: 0.8"/>
      </g>
     </g>
     <g id="text_15">
      <!-- 1600 -->
      <g transform="translate(25.717187 69.527595) scale(0.15 -0.15)">
       <use xlink:href="#DejaVuSans-31"/>
       <use xlink:href="#DejaVuSans-36" x="63.623047"/>
       <use xlink:href="#DejaVuSans-30" x="127.246094"/>
       <use xlink:href="#DejaVuSans-30" x="190.869141"/>
      </g>
     </g>
    </g>
    <g id="ytick_10">
     <g id="line2d_29">
      <path d="M 70.892187 24.597656 
L 561.732187 24.597656 
" clip-path="url(#pdc82ea5304)" style="fill: none; stroke-dasharray: 1.85,0.8; stroke-dashoffset: 0; stroke: #b0b0b0; stroke-width: 0.5"/>
     </g>
     <g id="line2d_30">
      <g>
       <use xlink:href="#m30dafd9200" x="70.892187" y="24.597656" style="stroke: #000000; stroke-width: 0.8"/>
      </g>
     </g>
     <g id="text_16">
      <!-- 1800 -->
      <g transform="translate(25.717187 30.296484) scale(0.15 -0.15)">
       <use xlink:href="#DejaVuSans-31"/>
       <use xlink:href="#DejaVuSans-38" x="63.623047"/>
       <use xlink:href="#DejaVuSans-30" x="127.246094"/>
       <use xlink:href="#DejaVuSans-30" x="190.869141"/>
      </g>
     </g>
    </g>
    <g id="text_17">
     <!-- W/m² -->
     <g transform="translate(18.597656 221.392344) rotate(-90) scale(0.15 -0.15)">
      <defs>
       <path id="DejaVuSans-57" d="M 213 4666 
L 850 4666 
L 1831 722 
L 2809 4666 
L 3519 4666 
L 4500 722 
L 5478 4666 
L 6119 4666 
L 4947 0 
L 4153 0 
L 3169 4050 
L 2175 0 
L 1381 0 
L 213 4666 
z
" transform="scale(0.015625)"/>
       <path id="DejaVuSans-2f" d="M 1625 4666 
L 2156 4666 
L 531 -594 
L 0 -594 
L 1625 4666 
z
" transform="scale(0.015625)"/>
       <path id="DejaVuSans-b2" d="M 838 2444 
L 2163 2444 
L 2163 2088 
L 294 2088 
L 294 2431 
Q 400 2528 597 2703 
Q 1672 3656 1672 3950 
Q 1672 4156 1509 4282 
Q 1347 4409 1081 4409 
Q 919 4409 728 4354 
Q 538 4300 313 4191 
L 313 4575 
Q 553 4663 761 4706 
Q 969 4750 1147 4750 
Q 1600 4750 1872 4544 
Q 2144 4338 2144 4000 
Q 2144 3566 1109 2678 
Q 934 2528 838 2444 
z
" transform="scale(0.015625)"/>
      </defs>
      <use xlink:href="#DejaVuSans-57"/>
      <use xlink:href="#DejaVuSans-2f" x="98.876953"/>
      <use xlink:href="#DejaVuSans-6d" x="132.568359"/>
      <use xlink:href="#DejaVuSans-b2" x="229.980469"/>
     </g>
    </g>
   </g>
   <g id="line2d_31">
    <path d="M 93.203097 377.677656 
L 198.013205 377.677656 
L 198.323294 377.299448 
L 211.036946 335.249722 
L 219.099262 309.356632 
L 225.611132 289.156408 
L 231.502825 271.582799 
L 236.774339 256.527516 
L 241.735764 243.011828 
L 246.387101 230.976722 
L 250.728348 220.345711 
L 254.759506 211.029874 
L 258.790664 202.280038 
L 262.511733 194.730005 
L 265.922712 188.271589 
L 269.333692 182.270864 
L 272.744672 176.741651 
L 275.845563 172.134994 
L 278.946454 167.937324 
L 281.737255 164.515724 
L 284.528057 161.437163 
L 287.318859 158.706385 
L 289.799571 156.574411 
L 292.280284 154.723161 
L 294.760997 153.154891 
L 297.241709 151.871512 
L 299.412333 150.983492 
L 301.582956 150.315623 
L 303.75358 149.868526 
L 305.924203 149.64262 
L 308.094827 149.638115 
L 310.26545 149.855014 
L 312.436074 150.293117 
L 314.606698 150.952014 
L 316.777321 151.83109 
L 318.947945 152.929526 
L 321.428657 154.45216 
L 323.90937 156.258105 
L 326.390083 158.34516 
L 328.870795 160.710782 
L 331.661597 163.70148 
L 334.452399 167.036471 
L 337.2432 170.710612 
L 340.344091 175.183852 
L 343.444982 180.060276 
L 346.545873 185.3306 
L 349.956852 191.570915 
L 353.367832 198.261323 
L 357.088901 206.055143 
L 361.120059 215.057385 
L 365.151217 224.612672 
L 369.492464 235.486182 
L 374.1438 247.762419 
L 379.105226 261.512867 
L 384.37674 276.790946 
L 390.268432 294.579615 
L 396.780303 314.974145 
L 404.53253 340.026638 
L 415.075559 374.935419 
L 416.005826 377.677656 
L 539.421278 377.677656 
L 539.421278 377.677656 
" clip-path="url(#pdc82ea5304)" style="fill: none; stroke-dasharray: 5.55,2.4; stroke-dashoffset: 0; stroke: #000000; stroke-width: 1.5"/>
   </g>
   <g id="line2d_32">
    <path d="M 93.203097 377.677656 
L 206.695699 377.676521 
L 207.005788 365.70589 
L 209.79659 359.863593 
L 213.207569 352.179396 
L 218.479084 339.700371 
L 235.533983 298.997309 
L 241.115586 286.391176 
L 246.077012 275.692852 
L 250.728348 266.170285 
L 255.069595 257.777573 
L 259.100753 250.449986 
L 263.131911 243.601411 
L 266.85298 237.723806 
L 270.26396 232.731255 
L 273.674939 228.129445 
L 276.77583 224.296173 
L 279.876721 220.807743 
L 282.977612 217.670039 
L 285.768413 215.152578 
L 288.559215 212.931705 
L 291.350017 211.01095 
L 293.830729 209.557437 
L 296.311442 208.346373 
L 298.792155 207.378934 
L 301.272867 206.657474 
L 303.75358 206.183169 
L 306.234292 205.954844 
L 308.715005 205.974852 
L 311.195718 206.242016 
L 313.67643 206.757513 
L 316.157143 207.518989 
L 318.637856 208.520559 
L 321.118568 209.765755 
L 323.599281 211.252221 
L 326.390083 213.211815 
L 329.180884 215.471527 
L 331.971686 218.02665 
L 334.762488 220.873651 
L 337.553289 224.005471 
L 340.65418 227.81285 
L 343.755071 231.956833 
L 347.166051 236.892891 
L 350.88712 242.712826 
L 354.608189 248.96705 
L 358.639347 256.207544 
L 362.980594 264.513162 
L 367.321841 273.302501 
L 372.283266 283.883131 
L 377.864869 296.36804 
L 384.066651 310.814897 
L 393.369323 333.124845 
L 401.12155 351.495597 
L 404.842619 359.797685 
L 407.633421 365.548181 
L 407.94351 377.676504 
L 539.421278 377.677656 
L 539.421278 377.677656 
" clip-path="url(#pdc82ea5304)" style="fill: none; stroke: #000000; stroke-width: 1.5; stroke-linecap: square"/>
   </g>
   <g id="line2d_33">
    <path d="M 93.203097 377.868691 
L 100.955324 377.866881 
L 114.909332 377.827268 
L 120.490935 377.819088 
L 128.243162 377.859337 
L 131.033964 377.810143 
L 135.375211 377.870395 
L 142.50726 377.848786 
L 148.709041 377.912788 
L 151.189754 377.930291 
L 154.600734 377.903608 
L 164.523584 377.838341 
L 168.864831 377.831585 
L 172.5859 377.795775 
L 186.22982 377.818762 
L 193.361868 377.763592 
L 197.082937 377.353173 
L 198.633383 376.938853 
L 200.804006 375.807438 
L 202.354452 374.742077 
L 203.904897 373.95214 
L 204.525075 373.277489 
L 206.695699 370.257988 
L 207.315877 368.990482 
L 208.866322 365.120262 
L 209.4865 364.487146 
L 210.106679 364.076307 
L 210.726857 363.144766 
L 211.967213 360.491271 
L 212.587391 359.642789 
L 213.827748 357.586208 
L 214.447926 357.271201 
L 214.758015 357.145995 
L 215.068104 356.874477 
L 215.688282 355.874378 
L 216.928638 353.533634 
L 217.548816 352.313743 
L 218.168995 350.260347 
L 218.789173 346.804184 
L 220.029529 340.434915 
L 220.339618 339.251607 
L 220.959796 335.327319 
L 221.269885 335.74615 
L 221.890064 338.568397 
L 222.200153 338.509236 
L 222.510242 338.80549 
L 223.13042 341.546058 
L 223.440509 342.59243 
L 223.750598 342.839468 
L 224.060687 342.171441 
L 224.680865 339.652353 
L 225.301043 332.700345 
L 225.611132 328.616386 
L 226.231311 323.804671 
L 227.471667 307.880508 
L 227.781756 307.237314 
L 228.091845 308.61817 
L 228.401934 309.434962 
L 228.712023 311.177941 
L 229.022112 312.171763 
L 229.64229 308.336746 
L 229.95238 306.667305 
L 230.262469 302.475598 
L 230.572558 302.759298 
L 230.882647 298.047308 
L 231.192736 301.640427 
L 231.502825 301.939211 
L 231.812914 297.596778 
L 232.123003 297.160881 
L 232.433092 298.341051 
L 232.743181 322.39443 
L 233.05327 333.848149 
L 233.363359 332.251325 
L 233.983538 335.146758 
L 234.293627 336.307469 
L 234.603716 335.487441 
L 234.913805 333.523963 
L 235.223894 332.579356 
L 235.844072 329.573998 
L 236.154161 328.619171 
L 236.774339 327.899379 
L 237.084428 326.734156 
L 237.394517 327.258068 
L 237.704606 326.563775 
L 238.014696 327.134725 
L 238.324785 327.168581 
L 238.634874 326.922759 
L 238.944963 326.487353 
L 239.255052 325.826152 
L 239.87523 323.452081 
L 240.495408 319.880932 
L 240.805497 314.309506 
L 241.115586 302.147508 
L 241.425675 306.391452 
L 241.735764 300.531383 
L 242.045854 300.98256 
L 242.355943 298.89009 
L 242.666032 305.845492 
L 243.28621 289.265836 
L 243.596299 294.297049 
L 243.906388 291.807914 
L 244.216477 283.438211 
L 244.526566 267.37719 
L 244.836655 257.277651 
L 245.146744 253.252853 
L 245.766922 269.973113 
L 246.077012 273.482669 
L 246.387101 275.238948 
L 246.69719 267.159438 
L 247.007279 252.585826 
L 247.317368 247.15318 
L 247.937546 282.801804 
L 248.557724 239.422081 
L 249.177902 268.908596 
L 249.487991 263.824146 
L 249.79808 285.192509 
L 250.10817 288.787314 
L 250.418259 289.351968 
L 250.728348 288.415188 
L 251.038437 300.794408 
L 251.348526 294.626963 
L 251.658615 296.166039 
L 251.968704 286.502141 
L 252.278793 280.889189 
L 252.588882 291.073703 
L 252.898971 297.374651 
L 253.20906 297.342227 
L 253.519149 297.899642 
L 253.829238 297.101368 
L 254.139328 289.703949 
L 254.449417 299.682696 
L 255.379684 283.757082 
L 255.689773 292.079118 
L 255.999862 293.260289 
L 256.309951 286.912479 
L 256.62004 289.598064 
L 257.240218 259.360764 
L 257.550307 280.135874 
L 257.860396 292.112308 
L 258.170486 296.863666 
L 258.480575 299.535638 
L 258.790664 300.914965 
L 259.100753 299.751763 
L 259.410842 299.055253 
L 259.720931 295.662096 
L 260.03102 290.468112 
L 260.341109 288.756616 
L 260.651198 295.510252 
L 260.961287 298.001977 
L 261.891554 279.173848 
L 262.201644 287.582586 
L 262.511733 269.931057 
L 262.821822 259.824535 
L 263.131911 267.569521 
L 263.442 242.344583 
L 263.752089 232.931412 
L 264.062178 240.612451 
L 264.372267 239.893757 
L 264.682356 229.989843 
L 264.992445 257.035811 
L 265.302534 267.227014 
L 265.612623 260.570573 
L 265.922712 271.688003 
L 266.232802 296.8946 
L 266.542891 297.318355 
L 266.85298 299.058902 
L 267.163069 283.048195 
L 267.473158 280.66106 
L 267.783247 273.487338 
L 268.093336 278.988109 
L 268.403425 279.269376 
L 268.713514 281.655785 
L 269.023603 286.413557 
L 269.333692 279.096053 
L 269.643781 282.909748 
L 269.95387 283.876952 
L 270.26396 277.580045 
L 270.574049 274.308465 
L 270.884138 263.103549 
L 271.194227 261.773458 
L 271.504316 255.352109 
L 271.814405 255.348834 
L 272.124494 272.961366 
L 272.434583 281.620653 
L 272.744672 280.322221 
L 273.054761 268.478761 
L 273.36485 236.241439 
L 273.674939 190.146786 
L 273.985028 193.278017 
L 274.295118 218.121314 
L 274.605207 221.454429 
L 274.915296 260.810471 
L 275.225385 265.19547 
L 275.535474 267.827465 
L 275.845563 279.404606 
L 276.155652 286.471757 
L 276.465741 286.915206 
L 276.77583 283.112358 
L 277.085919 284.672579 
L 277.396008 287.24459 
L 277.706097 284.180523 
L 278.016186 273.951089 
L 278.326276 269.544042 
L 278.946454 211.000887 
L 279.256543 241.554175 
L 279.566632 253.095556 
L 279.876721 246.430327 
L 280.18681 229.961322 
L 280.496899 231.937197 
L 280.806988 235.883592 
L 281.117077 272.962739 
L 281.737255 233.004754 
L 282.047344 197.296852 
L 282.357434 199.334026 
L 282.667523 247.331348 
L 282.977612 271.809286 
L 283.287701 235.443811 
L 283.907879 287.57725 
L 284.528057 260.613668 
L 284.838146 276.755505 
L 285.148235 287.09614 
L 285.458324 288.089177 
L 285.768413 285.288507 
L 286.078502 274.715782 
L 286.388592 250.828135 
L 286.698681 241.764081 
L 287.00877 215.761543 
L 287.628948 256.203974 
L 287.939037 268.949632 
L 288.249126 197.880709 
L 288.559215 183.68499 
L 288.869304 239.008174 
L 289.489482 272.381315 
L 290.10966 235.622411 
L 290.729839 252.915524 
L 291.039928 242.568868 
L 291.350017 236.98683 
L 291.970195 278.869042 
L 292.590373 275.112644 
L 292.900462 263.815829 
L 293.210551 275.769431 
L 293.52064 270.427233 
L 294.140818 242.600468 
L 294.450908 242.143504 
L 294.760997 228.611066 
L 295.071086 249.294296 
L 295.381175 230.297043 
L 295.691264 239.270022 
L 296.001353 276.782712 
L 296.311442 206.786779 
L 296.621531 185.036365 
L 296.93162 188.350256 
L 297.241709 201.343816 
L 297.551798 192.015403 
L 297.861887 221.268846 
L 298.171976 221.07426 
L 298.482066 192.646102 
L 298.792155 186.228422 
L 299.102244 187.044154 
L 299.412333 197.175314 
L 299.722422 192.094709 
L 300.032511 191.953771 
L 300.652689 195.843673 
L 300.962778 202.855528 
L 301.272867 223.960336 
L 301.582956 219.291147 
L 301.893045 266.822718 
L 302.203134 202.720416 
L 302.513224 201.235714 
L 302.823313 198.876787 
L 303.133402 203.742014 
L 303.443491 224.597684 
L 303.75358 233.120015 
L 304.373758 192.390295 
L 304.683847 179.216292 
L 304.993936 181.120178 
L 305.304025 191.359361 
L 305.614114 212.020837 
L 305.924203 214.229823 
L 306.234292 186.399057 
L 306.544382 184.702606 
L 306.854471 190.075169 
L 307.16456 187.137897 
L 307.474649 183.122024 
L 307.784738 209.858713 
L 308.094827 224.655785 
L 308.404916 199.414822 
L 308.715005 211.643846 
L 309.025094 185.513984 
L 309.335183 176.72139 
L 309.645272 172.108988 
L 309.955361 176.463053 
L 310.26545 165.388502 
L 311.195718 244.633366 
L 311.505807 199.558682 
L 311.815896 206.119242 
L 312.125985 219.152504 
L 312.436074 244.151117 
L 312.746163 246.169381 
L 313.056252 229.543825 
L 313.366341 233.712621 
L 313.67643 214.503068 
L 314.296608 199.749444 
L 314.606698 207.462496 
L 314.916787 226.967479 
L 315.226876 256.692244 
L 315.536965 275.561742 
L 315.847054 280.4682 
L 316.157143 272.084845 
L 316.467232 269.398044 
L 316.777321 265.700786 
L 317.08741 233.670369 
L 317.397499 169.682151 
L 317.707588 200.631398 
L 318.017677 219.643521 
L 318.327767 195.107207 
L 318.637856 226.881053 
L 319.258034 168.226677 
L 319.878212 207.021126 
L 320.188301 206.13672 
L 320.49839 224.991211 
L 320.808479 203.796976 
L 321.118568 196.165074 
L 321.428657 208.473639 
L 321.738746 192.911912 
L 322.358925 240.153997 
L 322.669014 211.796161 
L 322.979103 171.850063 
L 323.289192 148.045801 
L 323.599281 151.06542 
L 323.90937 144.220964 
L 324.839637 184.579126 
L 325.149726 179.935987 
L 325.769904 245.366144 
L 326.079993 189.053062 
L 326.390083 173.933038 
L 326.700172 203.145995 
L 327.010261 254.738535 
L 327.32035 248.755143 
L 327.630439 256.446618 
L 327.940528 279.012922 
L 328.250617 281.280088 
L 329.180884 208.763929 
L 329.490973 252.884806 
L 329.801062 265.165105 
L 330.111151 255.559897 
L 330.421241 260.193915 
L 330.73133 260.649957 
L 331.041419 245.445685 
L 331.351508 248.40173 
L 331.661597 253.247458 
L 331.971686 254.590026 
L 332.281775 260.207744 
L 332.591864 261.018337 
L 332.901953 260.346348 
L 333.212042 258.298464 
L 333.522131 253.200224 
L 333.83222 251.569407 
L 334.142309 257.312312 
L 334.452399 253.332963 
L 334.762488 255.661172 
L 335.072577 250.802791 
L 335.382666 240.47528 
L 335.692755 239.800152 
L 336.002844 237.849698 
L 336.312933 240.165354 
L 336.623022 249.897377 
L 336.933111 255.697853 
L 338.173467 186.959415 
L 338.483557 177.592909 
L 338.793646 216.42502 
L 339.103735 236.811839 
L 339.413824 239.325612 
L 339.723913 246.964655 
L 340.344091 164.920671 
L 340.65418 240.006017 
L 340.964269 216.856915 
L 341.274358 258.887205 
L 341.584447 284.194548 
L 342.204625 299.889111 
L 342.514715 304.25316 
L 342.824804 304.261026 
L 343.755071 297.344287 
L 344.06516 296.63695 
L 344.375249 298.615492 
L 344.995427 306.945669 
L 345.305516 308.812247 
L 345.925694 310.881746 
L 346.545873 313.967823 
L 346.855962 314.961802 
L 347.166051 315.299013 
L 347.47614 314.498521 
L 347.786229 311.654344 
L 348.716496 297.486146 
L 349.026585 295.497855 
L 349.336674 299.547565 
L 349.646763 300.019024 
L 349.956852 299.54729 
L 350.266941 299.296917 
L 350.577031 300.127322 
L 350.88712 300.640073 
L 351.197209 300.751273 
L 351.507298 300.101567 
L 352.127476 298.355704 
L 352.437565 296.198091 
L 352.747654 298.809137 
L 353.057743 304.919618 
L 353.367832 308.726507 
L 353.677921 306.529545 
L 353.98801 312.475942 
L 354.298099 314.180985 
L 354.608189 313.413722 
L 354.918278 293.620568 
L 355.228367 287.463774 
L 355.538456 297.857606 
L 355.848545 300.084325 
L 356.158634 289.53041 
L 356.468723 285.115322 
L 356.778812 291.456442 
L 357.088901 288.084979 
L 357.39899 230.759636 
L 357.709079 256.705465 
L 358.019168 264.099921 
L 358.329257 245.916576 
L 358.639347 252.766818 
L 358.949436 269.128683 
L 359.259525 222.640032 
L 359.569614 226.248686 
L 359.879703 207.900315 
L 360.499881 267.434703 
L 360.80997 269.090021 
L 361.430148 275.20519 
L 361.740237 288.772171 
L 362.050326 295.614803 
L 362.360415 294.249756 
L 362.670505 294.459956 
L 362.980594 295.040557 
L 363.290683 293.271666 
L 363.600772 296.225768 
L 363.910861 302.635092 
L 364.22095 303.633289 
L 364.531039 307.594866 
L 364.841128 309.846908 
L 366.081484 326.443277 
L 366.701663 327.478056 
L 367.63193 328.63355 
L 368.252108 328.303694 
L 368.562197 328.679882 
L 369.182375 330.690633 
L 369.492464 330.841261 
L 369.802553 330.465898 
L 370.112642 329.608541 
L 370.422731 327.928057 
L 370.732821 325.123267 
L 371.352999 317.110431 
L 371.663088 316.473828 
L 371.973177 314.815725 
L 372.283266 305.186017 
L 372.593355 317.938972 
L 372.903444 323.153179 
L 373.213533 324.686861 
L 373.833711 325.910067 
L 374.1438 327.24673 
L 374.453889 324.679524 
L 374.763979 320.7469 
L 375.074068 325.205869 
L 375.384157 311.896086 
L 375.694246 306.599808 
L 376.004335 319.974165 
L 376.314424 326.018835 
L 376.624513 327.556871 
L 377.244691 304.663615 
L 377.55478 276.17716 
L 377.864869 279.941562 
L 378.174958 304.15775 
L 378.485047 317.237736 
L 378.795137 304.143097 
L 379.105226 302.648745 
L 379.415315 312.657366 
L 379.725404 318.51412 
L 380.035493 316.461077 
L 380.345582 308.347476 
L 380.655671 304.023187 
L 380.96576 305.520835 
L 381.275849 302.4255 
L 381.585938 297.326142 
L 381.896027 298.513531 
L 382.826295 320.792918 
L 383.136384 321.542958 
L 383.446473 321.69543 
L 383.756562 323.514184 
L 384.066651 328.83559 
L 384.996918 324.044549 
L 385.307007 324.698022 
L 385.617096 325.681624 
L 385.927185 324.881623 
L 386.237274 320.088955 
L 386.547363 319.493172 
L 387.167542 329.666603 
L 387.78772 341.171656 
L 388.097809 341.610063 
L 388.407898 336.795347 
L 388.717987 333.958055 
L 389.028076 328.264287 
L 389.338165 329.494123 
L 389.648254 325.812225 
L 389.958343 334.574376 
L 390.268432 330.208561 
L 390.578521 340.205217 
L 390.888611 343.918932 
L 391.1987 343.776915 
L 391.508789 339.030441 
L 391.818878 329.655677 
L 392.128967 330.702128 
L 392.439056 330.386298 
L 393.059234 328.440944 
L 393.369323 328.89836 
L 393.989501 330.273606 
L 394.919769 342.534015 
L 395.229858 343.096001 
L 395.539947 344.809557 
L 395.850036 348.836552 
L 396.160125 350.810034 
L 396.470214 350.391693 
L 397.090392 355.281125 
L 397.400481 359.991471 
L 397.71057 362.756546 
L 398.330748 364.315051 
L 398.640837 364.58849 
L 398.950927 364.579604 
L 399.261016 364.249414 
L 399.881194 362.813112 
L 400.501372 363.222614 
L 401.12155 363.370337 
L 401.431639 363.819127 
L 401.741728 364.009841 
L 402.051817 363.994953 
L 402.361906 363.713299 
L 402.671995 362.574251 
L 402.982085 360.20825 
L 403.912352 356.228949 
L 404.53253 364.421354 
L 404.842619 364.620377 
L 405.152708 363.079852 
L 405.772886 356.205253 
L 406.082975 356.166493 
L 406.393064 357.387561 
L 406.703153 359.71406 
L 407.323332 365.449119 
L 407.94351 366.966033 
L 409.183866 369.060572 
L 411.35449 372.62751 
L 414.145291 374.728012 
L 414.765469 375.375516 
L 415.695737 375.939697 
L 418.796627 377.517153 
L 420.347073 377.860034 
L 422.517696 378.075616 
L 425.308498 378.165824 
L 428.719478 378.116812 
L 431.51028 378.055461 
L 434.301081 378.043646 
L 437.401972 378.083395 
L 440.812952 378.060172 
L 474.612661 378.075449 
L 477.713552 378.077585 
L 483.605245 378.077971 
L 498.799609 378.098475 
L 500.970233 378.112449 
L 503.450945 378.079971 
L 509.032549 378.063626 
L 515.23433 378.093218 
L 538.180922 378.058998 
L 539.421278 378.046463 
L 539.421278 378.046463 
" clip-path="url(#pdc82ea5304)" style="fill: none; stroke: #ff0000; stroke-linecap: square"/>
   </g>
   <g id="patch_3">
    <path d="M 70.892187 377.677656 
L 70.892187 24.597656 
" style="fill: none; stroke: #000000; stroke-width: 0.8; stroke-linejoin: miter; stroke-linecap: square"/>
   </g>
   <g id="patch_4">
    <path d="M 561.732187 377.677656 
L 561.732187 24.597656 
" style="fill: none; stroke: #000000; stroke-width: 0.8; stroke-linejoin: miter; stroke-linecap: square"/>
   </g>
   <g id="patch_5">
    <path d="M 70.892188 377.677656 
L 561.732188 377.677656 
" style="fill: none; stroke: #000000; stroke-width: 0.8; stroke-linejoin: miter; stroke-linecap: square"/>
   </g>
   <g id="patch_6">
    <path d="M 70.892188 24.597656 
L 561.732188 24.597656 
" style="fill: none; stroke: #000000; stroke-width: 0.8; stroke-linejoin: miter; stroke-linecap: square"/>
   </g>
   <g id="text_18">
    <!-- Day 17 -->
    <g style="fill: #0000ff" transform="translate(509.135387 368.120431) scale(0.12 -0.12)">
     <defs>
      <path id="DejaVuSans-44" d="M 1259 4147 
L 1259 519 
L 2022 519 
Q 2988 519 3436 956 
Q 3884 1394 3884 2338 
Q 3884 3275 3436 3711 
Q 2988 4147 2022 4147 
L 1259 4147 
z
M 628 4666 
L 1925 4666 
Q 3281 4666 3915 4102 
Q 4550 3538 4550 2338 
Q 4550 1131 3912 565 
Q 3275 0 1925 0 
L 628 0 
L 628 4666 
z
" transform="scale(0.015625)"/>
      <path id="DejaVuSans-61" d="M 2194 1759 
Q 1497 1759 1228 1600 
Q 959 1441 959 1056 
Q 959 750 1161 570 
Q 1363 391 1709 391 
Q 2188 391 2477 730 
Q 2766 1069 2766 1631 
L 2766 1759 
L 2194 1759 
z
M 3341 1997 
L 3341 0 
L 2766 0 
L 2766 531 
Q 2569 213 2275 61 
Q 1981 -91 1556 -91 
Q 1019 -91 701 211 
Q 384 513 384 1019 
Q 384 1609 779 1909 
Q 1175 2209 1959 2209 
L 2766 2209 
L 2766 2266 
Q 2766 2663 2505 2880 
Q 2244 3097 1772 3097 
Q 1472 3097 1187 3025 
Q 903 2953 641 2809 
L 641 3341 
Q 956 3463 1253 3523 
Q 1550 3584 1831 3584 
Q 2591 3584 2966 3190 
Q 3341 2797 3341 1997 
z
" transform="scale(0.015625)"/>
      <path id="DejaVuSans-79" d="M 2059 -325 
Q 1816 -950 1584 -1140 
Q 1353 -1331 966 -1331 
L 506 -1331 
L 506 -850 
L 844 -850 
Q 1081 -850 1212 -737 
Q 1344 -625 1503 -206 
L 1606 56 
L 191 3500 
L 800 3500 
L 1894 763 
L 2988 3500 
L 3597 3500 
L 2059 -325 
z
" transform="scale(0.015625)"/>
      <path id="DejaVuSans-20" transform="scale(0.015625)"/>
     </defs>
     <use xlink:href="#DejaVuSans-44"/>
     <use xlink:href="#DejaVuSans-61" x="77.001953"/>
     <use xlink:href="#DejaVuSans-79" x="138.28125"/>
     <use xlink:href="#DejaVuSans-20" x="197.460938"/>
     <use xlink:href="#DejaVuSans-31" x="229.248047"/>
     <use xlink:href="#DejaVuSans-37" x="292.871094"/>
    </g>
   </g>
   <g id="text_19">
    <!-- Day the most lasting event  -->
    <g transform="translate(212.046953 18.597656) scale(0.15 -0.15)">
     <defs>
      <path id="DejaVuSans-74" d="M 1172 4494 
L 1172 3500 
L 2356 3500 
L 2356 3053 
L 1172 3053 
L 1172 1153 
Q 1172 725 1289 603 
Q 1406 481 1766 481 
L 2356 481 
L 2356 0 
L 1766 0 
Q 1100 0 847 248 
Q 594 497 594 1153 
L 594 3053 
L 172 3053 
L 172 3500 
L 594 3500 
L 594 4494 
L 1172 4494 
z
" transform="scale(0.015625)"/>
      <path id="DejaVuSans-68" d="M 3513 2113 
L 3513 0 
L 2938 0 
L 2938 2094 
Q 2938 2591 2744 2837 
Q 2550 3084 2163 3084 
Q 1697 3084 1428 2787 
Q 1159 2491 1159 1978 
L 1159 0 
L 581 0 
L 581 4863 
L 1159 4863 
L 1159 2956 
Q 1366 3272 1645 3428 
Q 1925 3584 2291 3584 
Q 2894 3584 3203 3211 
Q 3513 2838 3513 2113 
z
" transform="scale(0.015625)"/>
      <path id="DejaVuSans-6f" d="M 1959 3097 
Q 1497 3097 1228 2736 
Q 959 2375 959 1747 
Q 959 1119 1226 758 
Q 1494 397 1959 397 
Q 2419 397 2687 759 
Q 2956 1122 2956 1747 
Q 2956 2369 2687 2733 
Q 2419 3097 1959 3097 
z
M 1959 3584 
Q 2709 3584 3137 3096 
Q 3566 2609 3566 1747 
Q 3566 888 3137 398 
Q 2709 -91 1959 -91 
Q 1206 -91 779 398 
Q 353 888 353 1747 
Q 353 2609 779 3096 
Q 1206 3584 1959 3584 
z
" transform="scale(0.015625)"/>
      <path id="DejaVuSans-73" d="M 2834 3397 
L 2834 2853 
Q 2591 2978 2328 3040 
Q 2066 3103 1784 3103 
Q 1356 3103 1142 2972 
Q 928 2841 928 2578 
Q 928 2378 1081 2264 
Q 1234 2150 1697 2047 
L 1894 2003 
Q 2506 1872 2764 1633 
Q 3022 1394 3022 966 
Q 3022 478 2636 193 
Q 2250 -91 1575 -91 
Q 1294 -91 989 -36 
Q 684 19 347 128 
L 347 722 
Q 666 556 975 473 
Q 1284 391 1588 391 
Q 1994 391 2212 530 
Q 2431 669 2431 922 
Q 2431 1156 2273 1281 
Q 2116 1406 1581 1522 
L 1381 1569 
Q 847 1681 609 1914 
Q 372 2147 372 2553 
Q 372 3047 722 3315 
Q 1072 3584 1716 3584 
Q 2034 3584 2315 3537 
Q 2597 3491 2834 3397 
z
" transform="scale(0.015625)"/>
      <path id="DejaVuSans-6c" d="M 603 4863 
L 1178 4863 
L 1178 0 
L 603 0 
L 603 4863 
z
" transform="scale(0.015625)"/>
      <path id="DejaVuSans-6e" d="M 3513 2113 
L 3513 0 
L 2938 0 
L 2938 2094 
Q 2938 2591 2744 2837 
Q 2550 3084 2163 3084 
Q 1697 3084 1428 2787 
Q 1159 2491 1159 1978 
L 1159 0 
L 581 0 
L 581 3500 
L 1159 3500 
L 1159 2956 
Q 1366 3272 1645 3428 
Q 1925 3584 2291 3584 
Q 2894 3584 3203 3211 
Q 3513 2838 3513 2113 
z
" transform="scale(0.015625)"/>
      <path id="DejaVuSans-67" d="M 2906 1791 
Q 2906 2416 2648 2759 
Q 2391 3103 1925 3103 
Q 1463 3103 1205 2759 
Q 947 2416 947 1791 
Q 947 1169 1205 825 
Q 1463 481 1925 481 
Q 2391 481 2648 825 
Q 2906 1169 2906 1791 
z
M 3481 434 
Q 3481 -459 3084 -895 
Q 2688 -1331 1869 -1331 
Q 1566 -1331 1297 -1286 
Q 1028 -1241 775 -1147 
L 775 -588 
Q 1028 -725 1275 -790 
Q 1522 -856 1778 -856 
Q 2344 -856 2625 -561 
Q 2906 -266 2906 331 
L 2906 616 
Q 2728 306 2450 153 
Q 2172 0 1784 0 
Q 1141 0 747 490 
Q 353 981 353 1791 
Q 353 2603 747 3093 
Q 1141 3584 1784 3584 
Q 2172 3584 2450 3431 
Q 2728 3278 2906 2969 
L 2906 3500 
L 3481 3500 
L 3481 434 
z
" transform="scale(0.015625)"/>
      <path id="DejaVuSans-76" d="M 191 3500 
L 800 3500 
L 1894 563 
L 2988 3500 
L 3597 3500 
L 2284 0 
L 1503 0 
L 191 3500 
z
" transform="scale(0.015625)"/>
     </defs>
     <use xlink:href="#DejaVuSans-44"/>
     <use xlink:href="#DejaVuSans-61" x="77.001953"/>
     <use xlink:href="#DejaVuSans-79" x="138.28125"/>
     <use xlink:href="#DejaVuSans-20" x="197.460938"/>
     <use xlink:href="#DejaVuSans-74" x="229.248047"/>
     <use xlink:href="#DejaVuSans-68" x="268.457031"/>
     <use xlink:href="#DejaVuSans-65" x="331.835938"/>
     <use xlink:href="#DejaVuSans-20" x="393.359375"/>
     <use xlink:href="#DejaVuSans-6d" x="425.146484"/>
     <use xlink:href="#DejaVuSans-6f" x="522.558594"/>
     <use xlink:href="#DejaVuSans-73" x="583.740234"/>
     <use xlink:href="#DejaVuSans-74" x="635.839844"/>
     <use xlink:href="#DejaVuSans-20" x="675.048828"/>
     <use xlink:href="#DejaVuSans-6c" x="706.835938"/>
     <use xlink:href="#DejaVuSans-61" x="734.619141"/>
     <use xlink:href="#DejaVuSans-73" x="795.898438"/>
     <use xlink:href="#DejaVuSans-74" x="847.998047"/>
     <use xlink:href="#DejaVuSans-69" x="887.207031"/>
     <use xlink:href="#DejaVuSans-6e" x="914.990234"/>
     <use xlink:href="#DejaVuSans-67" x="978.369141"/>
     <use xlink:href="#DejaVuSans-20" x="1041.845703"/>
     <use xlink:href="#DejaVuSans-65" x="1073.632812"/>
     <use xlink:href="#DejaVuSans-76" x="1135.15625"/>
     <use xlink:href="#DejaVuSans-65" x="1194.335938"/>
     <use xlink:href="#DejaVuSans-6e" x="1255.859375"/>
     <use xlink:href="#DejaVuSans-74" x="1319.238281"/>
     <use xlink:href="#DejaVuSans-20" x="1358.447266"/>
    </g>
   </g>
   <g id="legend_1">
    <g id="line2d_34">
     <path d="M 368.954062 37.696094 
L 378.954062 37.696094 
L 388.954062 37.696094 
" style="fill: none; stroke-dasharray: 5.55,2.4; stroke-dashoffset: 0; stroke: #000000; stroke-width: 1.5"/>
    </g>
    <g id="text_20">
     <!-- Ioh -->
     <g transform="translate(396.954062 41.196094) scale(0.1 -0.1)">
      <defs>
       <path id="DejaVuSans-49" d="M 628 4666 
L 1259 4666 
L 1259 0 
L 628 0 
L 628 4666 
z
" transform="scale(0.015625)"/>
      </defs>
      <use xlink:href="#DejaVuSans-49"/>
      <use xlink:href="#DejaVuSans-6f" x="29.492188"/>
      <use xlink:href="#DejaVuSans-68" x="90.673828"/>
     </g>
    </g>
    <g id="line2d_35">
     <path d="M 432.360312 37.696094 
L 442.360312 37.696094 
L 452.360312 37.696094 
" style="fill: none; stroke: #000000; stroke-width: 1.5; stroke-linecap: square"/>
    </g>
    <g id="text_21">
     <!-- Clear -->
     <g transform="translate(460.360312 41.196094) scale(0.1 -0.1)">
      <defs>
       <path id="DejaVuSans-43" d="M 4122 4306 
L 4122 3641 
Q 3803 3938 3442 4084 
Q 3081 4231 2675 4231 
Q 1875 4231 1450 3742 
Q 1025 3253 1025 2328 
Q 1025 1406 1450 917 
Q 1875 428 2675 428 
Q 3081 428 3442 575 
Q 3803 722 4122 1019 
L 4122 359 
Q 3791 134 3420 21 
Q 3050 -91 2638 -91 
Q 1578 -91 968 557 
Q 359 1206 359 2328 
Q 359 3453 968 4101 
Q 1578 4750 2638 4750 
Q 3056 4750 3426 4639 
Q 3797 4528 4122 4306 
z
" transform="scale(0.015625)"/>
       <path id="DejaVuSans-72" d="M 2631 2963 
Q 2534 3019 2420 3045 
Q 2306 3072 2169 3072 
Q 1681 3072 1420 2755 
Q 1159 2438 1159 1844 
L 1159 0 
L 581 0 
L 581 3500 
L 1159 3500 
L 1159 2956 
Q 1341 3275 1631 3429 
Q 1922 3584 2338 3584 
Q 2397 3584 2469 3576 
Q 2541 3569 2628 3553 
L 2631 2963 
z
" transform="scale(0.015625)"/>
      </defs>
      <use xlink:href="#DejaVuSans-43"/>
      <use xlink:href="#DejaVuSans-6c" x="69.824219"/>
      <use xlink:href="#DejaVuSans-65" x="97.607422"/>
      <use xlink:href="#DejaVuSans-61" x="159.130859"/>
      <use xlink:href="#DejaVuSans-72" x="220.410156"/>
     </g>
    </g>
    <g id="line2d_36">
     <path d="M 506.513437 37.696094 
L 516.513437 37.696094 
L 526.513437 37.696094 
" style="fill: none; stroke: #ff0000; stroke-linecap: square"/>
    </g>
    <g id="text_22">
     <!-- GHI -->
     <g transform="translate(534.513437 41.196094) scale(0.1 -0.1)">
      <defs>
       <path id="DejaVuSans-47" d="M 3809 666 
L 3809 1919 
L 2778 1919 
L 2778 2438 
L 4434 2438 
L 4434 434 
Q 4069 175 3628 42 
Q 3188 -91 2688 -91 
Q 1594 -91 976 548 
Q 359 1188 359 2328 
Q 359 3472 976 4111 
Q 1594 4750 2688 4750 
Q 3144 4750 3555 4637 
Q 3966 4525 4313 4306 
L 4313 3634 
Q 3963 3931 3569 4081 
Q 3175 4231 2741 4231 
Q 1884 4231 1454 3753 
Q 1025 3275 1025 2328 
Q 1025 1384 1454 906 
Q 1884 428 2741 428 
Q 3075 428 3337 486 
Q 3600 544 3809 666 
z
" transform="scale(0.015625)"/>
       <path id="DejaVuSans-48" d="M 628 4666 
L 1259 4666 
L 1259 2753 
L 3553 2753 
L 3553 4666 
L 4184 4666 
L 4184 0 
L 3553 0 
L 3553 2222 
L 1259 2222 
L 1259 0 
L 628 0 
L 628 4666 
z
" transform="scale(0.015625)"/>
      </defs>
      <use xlink:href="#DejaVuSans-47"/>
      <use xlink:href="#DejaVuSans-48" x="77.490234"/>
      <use xlink:href="#DejaVuSans-49" x="152.685547"/>
     </g>
    </g>
   </g>
  </g>
 </g>
 <defs>
  <clipPath id="pdc82ea5304">
   <rect x="70.892187" y="24.597656" width="490.84" height="353.08"/>
  </clipPath>
 </defs>
</svg>
