<?xml version="1.0" encoding="utf-8" standalone="no"?>
<!DOCTYPE svg PUBLIC "-//W3C//DTD SVG 1.1//EN"
  "http://www.w3.org/Graphics/SVG/1.1/DTD/svg11.dtd">
<svg xmlns:xlink="http://www.w3.org/1999/xlink" width="856.297812pt" height="424.87625pt" viewBox="0 0 856.297812 424.87625" xmlns="http://www.w3.org/2000/svg" version="1.1">
 <metadata>
  <rdf:RDF xmlns:dc="http://purl.org/dc/elements/1.1/" xmlns:cc="http://creativecommons.org/ns#" xmlns:rdf="http://www.w3.org/1999/02/22-rdf-syntax-ns#">
   <cc:Work>
    <dc:type rdf:resource="http://purl.org/dc/dcmitype/StillImage"/>
    <dc:date>2024-10-21T15:52:16.656209</dc:date>
    <dc:format>image/svg+xml</dc:format>
    <dc:creator>
     <cc:Agent>
      <dc:title>Matplotlib v3.9.2, https://matplotlib.org/</dc:title>
     </cc:Agent>
    </dc:creator>
   </cc:Work>
  </rdf:RDF>
 </metadata>
 <defs>
  <style type="text/css">*{stroke-linejoin: round; stroke-linecap: butt}</style>
 </defs>
 <g id="figure_1">
  <g id="patch_1">
   <path d="M 0 424.87625 
L 856.297812 424.87625 
L 856.297812 0 
L 0 0 
z
" style="fill: #ffffff"/>
  </g>
  <g id="axes_1">
   <g id="patch_2">
    <path d="M 53.328125 120.198125 
L 670.268125 120.198125 
L 670.268125 22.318125 
L 53.328125 22.318125 
z
" style="fill: #ffffff"/>
   </g>
   <g id="matplotlib.axis_1">
    <g id="xtick_1">
     <g id="line2d_1">
      <path d="M 81.370852 120.198125 
L 81.370852 22.318125 
" clip-path="url(#p4754611871)" style="fill: none; stroke-dasharray: 1.85,0.8; stroke-dashoffset: 0; stroke: #b0b0b0; stroke-width: 0.5"/>
     </g>
     <g id="line2d_2">
      <defs>
       <path id="m44aab1527e" d="M 0 0 
L 0 3.5 
" style="stroke: #000000; stroke-width: 0.8"/>
      </defs>
      <g>
       <use xlink:href="#m44aab1527e" x="81.370852" y="120.198125" style="stroke: #000000; stroke-width: 0.8"/>
      </g>
     </g>
     <g id="text_1">
      <!-- 01 -->
      <g transform="translate(75.008352 134.796562) scale(0.1 -0.1)">
       <defs>
        <path id="DejaVuSans-30" d="M 2034 4250 
Q 1547 4250 1301 3770 
Q 1056 3291 1056 2328 
Q 1056 1369 1301 889 
Q 1547 409 2034 409 
Q 2525 409 2770 889 
Q 3016 1369 3016 2328 
Q 3016 3291 2770 3770 
Q 2525 4250 2034 4250 
z
M 2034 4750 
Q 2819 4750 3233 4129 
Q 3647 3509 3647 2328 
Q 3647 1150 3233 529 
Q 2819 -91 2034 -91 
Q 1250 -91 836 529 
Q 422 1150 422 2328 
Q 422 3509 836 4129 
Q 1250 4750 2034 4750 
z
" transform="scale(0.015625)"/>
        <path id="DejaVuSans-31" d="M 794 531 
L 1825 531 
L 1825 4091 
L 703 3866 
L 703 4441 
L 1819 4666 
L 2450 4666 
L 2450 531 
L 3481 531 
L 3481 0 
L 794 0 
L 794 531 
z
" transform="scale(0.015625)"/>
       </defs>
       <use xlink:href="#DejaVuSans-30"/>
       <use xlink:href="#DejaVuSans-31" x="63.623047"/>
      </g>
     </g>
    </g>
    <g id="xtick_2">
     <g id="line2d_3">
      <path d="M 137.460202 120.198125 
L 137.460202 22.318125 
" clip-path="url(#p4754611871)" style="fill: none; stroke-dasharray: 1.85,0.8; stroke-dashoffset: 0; stroke: #b0b0b0; stroke-width: 0.5"/>
     </g>
     <g id="line2d_4">
      <g>
       <use xlink:href="#m44aab1527e" x="137.460202" y="120.198125" style="stroke: #000000; stroke-width: 0.8"/>
      </g>
     </g>
     <g id="text_2">
      <!-- 02 -->
      <g transform="translate(131.097702 134.796562) scale(0.1 -0.1)">
       <defs>
        <path id="DejaVuSans-32" d="M 1228 531 
L 3431 531 
L 3431 0 
L 469 0 
L 469 531 
Q 828 903 1448 1529 
Q 2069 2156 2228 2338 
Q 2531 2678 2651 2914 
Q 2772 3150 2772 3378 
Q 2772 3750 2511 3984 
Q 2250 4219 1831 4219 
Q 1534 4219 1204 4116 
Q 875 4013 500 3803 
L 500 4441 
Q 881 4594 1212 4672 
Q 1544 4750 1819 4750 
Q 2544 4750 2975 4387 
Q 3406 4025 3406 3419 
Q 3406 3131 3298 2873 
Q 3191 2616 2906 2266 
Q 2828 2175 2409 1742 
Q 1991 1309 1228 531 
z
" transform="scale(0.015625)"/>
       </defs>
       <use xlink:href="#DejaVuSans-30"/>
       <use xlink:href="#DejaVuSans-32" x="63.623047"/>
      </g>
     </g>
    </g>
    <g id="xtick_3">
     <g id="line2d_5">
      <path d="M 193.549552 120.198125 
L 193.549552 22.318125 
" clip-path="url(#p4754611871)" style="fill: none; stroke-dasharray: 1.85,0.8; stroke-dashoffset: 0; stroke: #b0b0b0; stroke-width: 0.5"/>
     </g>
     <g id="line2d_6">
      <g>
       <use xlink:href="#m44aab1527e" x="193.549552" y="120.198125" style="stroke: #000000; stroke-width: 0.8"/>
      </g>
     </g>
     <g id="text_3">
      <!-- 03 -->
      <g transform="translate(187.187052 134.796562) scale(0.1 -0.1)">
       <defs>
        <path id="DejaVuSans-33" d="M 2597 2516 
Q 3050 2419 3304 2112 
Q 3559 1806 3559 1356 
Q 3559 666 3084 287 
Q 2609 -91 1734 -91 
Q 1441 -91 1130 -33 
Q 819 25 488 141 
L 488 750 
Q 750 597 1062 519 
Q 1375 441 1716 441 
Q 2309 441 2620 675 
Q 2931 909 2931 1356 
Q 2931 1769 2642 2001 
Q 2353 2234 1838 2234 
L 1294 2234 
L 1294 2753 
L 1863 2753 
Q 2328 2753 2575 2939 
Q 2822 3125 2822 3475 
Q 2822 3834 2567 4026 
Q 2313 4219 1838 4219 
Q 1578 4219 1281 4162 
Q 984 4106 628 3988 
L 628 4550 
Q 988 4650 1302 4700 
Q 1616 4750 1894 4750 
Q 2613 4750 3031 4423 
Q 3450 4097 3450 3541 
Q 3450 3153 3228 2886 
Q 3006 2619 2597 2516 
z
" transform="scale(0.015625)"/>
       </defs>
       <use xlink:href="#DejaVuSans-30"/>
       <use xlink:href="#DejaVuSans-33" x="63.623047"/>
      </g>
     </g>
    </g>
    <g id="xtick_4">
     <g id="line2d_7">
      <path d="M 249.638901 120.198125 
L 249.638901 22.318125 
" clip-path="url(#p4754611871)" style="fill: none; stroke-dasharray: 1.85,0.8; stroke-dashoffset: 0; stroke: #b0b0b0; stroke-width: 0.5"/>
     </g>
     <g id="line2d_8">
      <g>
       <use xlink:href="#m44aab1527e" x="249.638901" y="120.198125" style="stroke: #000000; stroke-width: 0.8"/>
      </g>
     </g>
     <g id="text_4">
      <!-- 04 -->
      <g transform="translate(243.276401 134.796562) scale(0.1 -0.1)">
       <defs>
        <path id="DejaVuSans-34" d="M 2419 4116 
L 825 1625 
L 2419 1625 
L 2419 4116 
z
M 2253 4666 
L 3047 4666 
L 3047 1625 
L 3713 1625 
L 3713 1100 
L 3047 1100 
L 3047 0 
L 2419 0 
L 2419 1100 
L 313 1100 
L 313 1709 
L 2253 4666 
z
" transform="scale(0.015625)"/>
       </defs>
       <use xlink:href="#DejaVuSans-30"/>
       <use xlink:href="#DejaVuSans-34" x="63.623047"/>
      </g>
     </g>
    </g>
    <g id="xtick_5">
     <g id="line2d_9">
      <path d="M 305.728251 120.198125 
L 305.728251 22.318125 
" clip-path="url(#p4754611871)" style="fill: none; stroke-dasharray: 1.85,0.8; stroke-dashoffset: 0; stroke: #b0b0b0; stroke-width: 0.5"/>
     </g>
     <g id="line2d_10">
      <g>
       <use xlink:href="#m44aab1527e" x="305.728251" y="120.198125" style="stroke: #000000; stroke-width: 0.8"/>
      </g>
     </g>
     <g id="text_5">
      <!-- 05 -->
      <g transform="translate(299.365751 134.796562) scale(0.1 -0.1)">
       <defs>
        <path id="DejaVuSans-35" d="M 691 4666 
L 3169 4666 
L 3169 4134 
L 1269 4134 
L 1269 2991 
Q 1406 3038 1543 3061 
Q 1681 3084 1819 3084 
Q 2600 3084 3056 2656 
Q 3513 2228 3513 1497 
Q 3513 744 3044 326 
Q 2575 -91 1722 -91 
Q 1428 -91 1123 -41 
Q 819 9 494 109 
L 494 744 
Q 775 591 1075 516 
Q 1375 441 1709 441 
Q 2250 441 2565 725 
Q 2881 1009 2881 1497 
Q 2881 1984 2565 2268 
Q 2250 2553 1709 2553 
Q 1456 2553 1204 2497 
Q 953 2441 691 2322 
L 691 4666 
z
" transform="scale(0.015625)"/>
       </defs>
       <use xlink:href="#DejaVuSans-30"/>
       <use xlink:href="#DejaVuSans-35" x="63.623047"/>
      </g>
     </g>
    </g>
    <g id="xtick_6">
     <g id="line2d_11">
      <path d="M 361.8176 120.198125 
L 361.8176 22.318125 
" clip-path="url(#p4754611871)" style="fill: none; stroke-dasharray: 1.85,0.8; stroke-dashoffset: 0; stroke: #b0b0b0; stroke-width: 0.5"/>
     </g>
     <g id="line2d_12">
      <g>
       <use xlink:href="#m44aab1527e" x="361.8176" y="120.198125" style="stroke: #000000; stroke-width: 0.8"/>
      </g>
     </g>
     <g id="text_6">
      <!-- 06 -->
      <g transform="translate(355.4551 134.796562) scale(0.1 -0.1)">
       <defs>
        <path id="DejaVuSans-36" d="M 2113 2584 
Q 1688 2584 1439 2293 
Q 1191 2003 1191 1497 
Q 1191 994 1439 701 
Q 1688 409 2113 409 
Q 2538 409 2786 701 
Q 3034 994 3034 1497 
Q 3034 2003 2786 2293 
Q 2538 2584 2113 2584 
z
M 3366 4563 
L 3366 3988 
Q 3128 4100 2886 4159 
Q 2644 4219 2406 4219 
Q 1781 4219 1451 3797 
Q 1122 3375 1075 2522 
Q 1259 2794 1537 2939 
Q 1816 3084 2150 3084 
Q 2853 3084 3261 2657 
Q 3669 2231 3669 1497 
Q 3669 778 3244 343 
Q 2819 -91 2113 -91 
Q 1303 -91 875 529 
Q 447 1150 447 2328 
Q 447 3434 972 4092 
Q 1497 4750 2381 4750 
Q 2619 4750 2861 4703 
Q 3103 4656 3366 4563 
z
" transform="scale(0.015625)"/>
       </defs>
       <use xlink:href="#DejaVuSans-30"/>
       <use xlink:href="#DejaVuSans-36" x="63.623047"/>
      </g>
     </g>
    </g>
    <g id="xtick_7">
     <g id="line2d_13">
      <path d="M 417.90695 120.198125 
L 417.90695 22.318125 
" clip-path="url(#p4754611871)" style="fill: none; stroke-dasharray: 1.85,0.8; stroke-dashoffset: 0; stroke: #b0b0b0; stroke-width: 0.5"/>
     </g>
     <g id="line2d_14">
      <g>
       <use xlink:href="#m44aab1527e" x="417.90695" y="120.198125" style="stroke: #000000; stroke-width: 0.8"/>
      </g>
     </g>
     <g id="text_7">
      <!-- 07 -->
      <g transform="translate(411.54445 134.796562) scale(0.1 -0.1)">
       <defs>
        <path id="DejaVuSans-37" d="M 525 4666 
L 3525 4666 
L 3525 4397 
L 1831 0 
L 1172 0 
L 2766 4134 
L 525 4134 
L 525 4666 
z
" transform="scale(0.015625)"/>
       </defs>
       <use xlink:href="#DejaVuSans-30"/>
       <use xlink:href="#DejaVuSans-37" x="63.623047"/>
      </g>
     </g>
    </g>
    <g id="xtick_8">
     <g id="line2d_15">
      <path d="M 473.9963 120.198125 
L 473.9963 22.318125 
" clip-path="url(#p4754611871)" style="fill: none; stroke-dasharray: 1.85,0.8; stroke-dashoffset: 0; stroke: #b0b0b0; stroke-width: 0.5"/>
     </g>
     <g id="line2d_16">
      <g>
       <use xlink:href="#m44aab1527e" x="473.9963" y="120.198125" style="stroke: #000000; stroke-width: 0.8"/>
      </g>
     </g>
     <g id="text_8">
      <!-- 08 -->
      <g transform="translate(467.6338 134.796562) scale(0.1 -0.1)">
       <defs>
        <path id="DejaVuSans-38" d="M 2034 2216 
Q 1584 2216 1326 1975 
Q 1069 1734 1069 1313 
Q 1069 891 1326 650 
Q 1584 409 2034 409 
Q 2484 409 2743 651 
Q 3003 894 3003 1313 
Q 3003 1734 2745 1975 
Q 2488 2216 2034 2216 
z
M 1403 2484 
Q 997 2584 770 2862 
Q 544 3141 544 3541 
Q 544 4100 942 4425 
Q 1341 4750 2034 4750 
Q 2731 4750 3128 4425 
Q 3525 4100 3525 3541 
Q 3525 3141 3298 2862 
Q 3072 2584 2669 2484 
Q 3125 2378 3379 2068 
Q 3634 1759 3634 1313 
Q 3634 634 3220 271 
Q 2806 -91 2034 -91 
Q 1263 -91 848 271 
Q 434 634 434 1313 
Q 434 1759 690 2068 
Q 947 2378 1403 2484 
z
M 1172 3481 
Q 1172 3119 1398 2916 
Q 1625 2713 2034 2713 
Q 2441 2713 2670 2916 
Q 2900 3119 2900 3481 
Q 2900 3844 2670 4047 
Q 2441 4250 2034 4250 
Q 1625 4250 1398 4047 
Q 1172 3844 1172 3481 
z
" transform="scale(0.015625)"/>
       </defs>
       <use xlink:href="#DejaVuSans-30"/>
       <use xlink:href="#DejaVuSans-38" x="63.623047"/>
      </g>
     </g>
    </g>
    <g id="xtick_9">
     <g id="line2d_17">
      <path d="M 530.085649 120.198125 
L 530.085649 22.318125 
" clip-path="url(#p4754611871)" style="fill: none; stroke-dasharray: 1.85,0.8; stroke-dashoffset: 0; stroke: #b0b0b0; stroke-width: 0.5"/>
     </g>
     <g id="line2d_18">
      <g>
       <use xlink:href="#m44aab1527e" x="530.085649" y="120.198125" style="stroke: #000000; stroke-width: 0.8"/>
      </g>
     </g>
     <g id="text_9">
      <!-- 09 -->
      <g transform="translate(523.723149 134.796562) scale(0.1 -0.1)">
       <defs>
        <path id="DejaVuSans-39" d="M 703 97 
L 703 672 
Q 941 559 1184 500 
Q 1428 441 1663 441 
Q 2288 441 2617 861 
Q 2947 1281 2994 2138 
Q 2813 1869 2534 1725 
Q 2256 1581 1919 1581 
Q 1219 1581 811 2004 
Q 403 2428 403 3163 
Q 403 3881 828 4315 
Q 1253 4750 1959 4750 
Q 2769 4750 3195 4129 
Q 3622 3509 3622 2328 
Q 3622 1225 3098 567 
Q 2575 -91 1691 -91 
Q 1453 -91 1209 -44 
Q 966 3 703 97 
z
M 1959 2075 
Q 2384 2075 2632 2365 
Q 2881 2656 2881 3163 
Q 2881 3666 2632 3958 
Q 2384 4250 1959 4250 
Q 1534 4250 1286 3958 
Q 1038 3666 1038 3163 
Q 1038 2656 1286 2365 
Q 1534 2075 1959 2075 
z
" transform="scale(0.015625)"/>
       </defs>
       <use xlink:href="#DejaVuSans-30"/>
       <use xlink:href="#DejaVuSans-39" x="63.623047"/>
      </g>
     </g>
    </g>
    <g id="xtick_10">
     <g id="line2d_19">
      <path d="M 586.174999 120.198125 
L 586.174999 22.318125 
" clip-path="url(#p4754611871)" style="fill: none; stroke-dasharray: 1.85,0.8; stroke-dashoffset: 0; stroke: #b0b0b0; stroke-width: 0.5"/>
     </g>
     <g id="line2d_20">
      <g>
       <use xlink:href="#m44aab1527e" x="586.174999" y="120.198125" style="stroke: #000000; stroke-width: 0.8"/>
      </g>
     </g>
     <g id="text_10">
      <!-- 10 -->
      <g transform="translate(579.812499 134.796562) scale(0.1 -0.1)">
       <use xlink:href="#DejaVuSans-31"/>
       <use xlink:href="#DejaVuSans-30" x="63.623047"/>
      </g>
     </g>
    </g>
    <g id="xtick_11">
     <g id="line2d_21">
      <path d="M 642.264349 120.198125 
L 642.264349 22.318125 
" clip-path="url(#p4754611871)" style="fill: none; stroke-dasharray: 1.85,0.8; stroke-dashoffset: 0; stroke: #b0b0b0; stroke-width: 0.5"/>
     </g>
     <g id="line2d_22">
      <g>
       <use xlink:href="#m44aab1527e" x="642.264349" y="120.198125" style="stroke: #000000; stroke-width: 0.8"/>
      </g>
     </g>
     <g id="text_11">
      <!-- 11 -->
      <g transform="translate(635.901849 134.796562) scale(0.1 -0.1)">
       <use xlink:href="#DejaVuSans-31"/>
       <use xlink:href="#DejaVuSans-31" x="63.623047"/>
      </g>
     </g>
    </g>
   </g>
   <g id="matplotlib.axis_2">
    <g id="ytick_1">
     <g id="line2d_23">
      <path d="M 53.328125 120.198125 
L 670.268125 120.198125 
" clip-path="url(#p4754611871)" style="fill: none; stroke-dasharray: 1.85,0.8; stroke-dashoffset: 0; stroke: #b0b0b0; stroke-width: 0.5"/>
     </g>
     <g id="line2d_24">
      <defs>
       <path id="mca5b90a47c" d="M 0 0 
L -3.5 0 
" style="stroke: #000000; stroke-width: 0.8"/>
      </defs>
      <g>
       <use xlink:href="#mca5b90a47c" x="53.328125" y="120.198125" style="stroke: #000000; stroke-width: 0.8"/>
      </g>
     </g>
     <g id="text_12">
      <!-- 0 -->
      <g transform="translate(39.965625 123.997344) scale(0.1 -0.1)">
       <use xlink:href="#DejaVuSans-30"/>
      </g>
     </g>
    </g>
    <g id="ytick_2">
     <g id="line2d_25">
      <path d="M 53.328125 93.009236 
L 670.268125 93.009236 
" clip-path="url(#p4754611871)" style="fill: none; stroke-dasharray: 1.85,0.8; stroke-dashoffset: 0; stroke: #b0b0b0; stroke-width: 0.5"/>
     </g>
     <g id="line2d_26">
      <g>
       <use xlink:href="#mca5b90a47c" x="53.328125" y="93.009236" style="stroke: #000000; stroke-width: 0.8"/>
      </g>
     </g>
     <g id="text_13">
      <!-- 500 -->
      <g transform="translate(27.240625 96.808455) scale(0.1 -0.1)">
       <use xlink:href="#DejaVuSans-35"/>
       <use xlink:href="#DejaVuSans-30" x="63.623047"/>
       <use xlink:href="#DejaVuSans-30" x="127.246094"/>
      </g>
     </g>
    </g>
    <g id="ytick_3">
     <g id="line2d_27">
      <path d="M 53.328125 65.820347 
L 670.268125 65.820347 
" clip-path="url(#p4754611871)" style="fill: none; stroke-dasharray: 1.85,0.8; stroke-dashoffset: 0; stroke: #b0b0b0; stroke-width: 0.5"/>
     </g>
     <g id="line2d_28">
      <g>
       <use xlink:href="#mca5b90a47c" x="53.328125" y="65.820347" style="stroke: #000000; stroke-width: 0.8"/>
      </g>
     </g>
     <g id="text_14">
      <!-- 1000 -->
      <g transform="translate(20.878125 69.619566) scale(0.1 -0.1)">
       <use xlink:href="#DejaVuSans-31"/>
       <use xlink:href="#DejaVuSans-30" x="63.623047"/>
       <use xlink:href="#DejaVuSans-30" x="127.246094"/>
       <use xlink:href="#DejaVuSans-30" x="190.869141"/>
      </g>
     </g>
    </g>
    <g id="ytick_4">
     <g id="line2d_29">
      <path d="M 53.328125 38.631458 
L 670.268125 38.631458 
" clip-path="url(#p4754611871)" style="fill: none; stroke-dasharray: 1.85,0.8; stroke-dashoffset: 0; stroke: #b0b0b0; stroke-width: 0.5"/>
     </g>
     <g id="line2d_30">
      <g>
       <use xlink:href="#mca5b90a47c" x="53.328125" y="38.631458" style="stroke: #000000; stroke-width: 0.8"/>
      </g>
     </g>
     <g id="text_15">
      <!-- 1500 -->
      <g transform="translate(20.878125 42.430677) scale(0.1 -0.1)">
       <use xlink:href="#DejaVuSans-31"/>
       <use xlink:href="#DejaVuSans-35" x="63.623047"/>
       <use xlink:href="#DejaVuSans-30" x="127.246094"/>
       <use xlink:href="#DejaVuSans-30" x="190.869141"/>
      </g>
     </g>
    </g>
    <g id="text_16">
     <!-- W/m² -->
     <g transform="translate(14.798438 84.76125) rotate(-90) scale(0.1 -0.1)">
      <defs>
       <path id="DejaVuSans-57" d="M 213 4666 
L 850 4666 
L 1831 722 
L 2809 4666 
L 3519 4666 
L 4500 722 
L 5478 4666 
L 6119 4666 
L 4947 0 
L 4153 0 
L 3169 4050 
L 2175 0 
L 1381 0 
L 213 4666 
z
" transform="scale(0.015625)"/>
       <path id="DejaVuSans-2f" d="M 1625 4666 
L 2156 4666 
L 531 -594 
L 0 -594 
L 1625 4666 
z
" transform="scale(0.015625)"/>
       <path id="DejaVuSans-6d" d="M 3328 2828 
Q 3544 3216 3844 3400 
Q 4144 3584 4550 3584 
Q 5097 3584 5394 3201 
Q 5691 2819 5691 2113 
L 5691 0 
L 5113 0 
L 5113 2094 
Q 5113 2597 4934 2840 
Q 4756 3084 4391 3084 
Q 3944 3084 3684 2787 
Q 3425 2491 3425 1978 
L 3425 0 
L 2847 0 
L 2847 2094 
Q 2847 2600 2669 2842 
Q 2491 3084 2119 3084 
Q 1678 3084 1418 2786 
Q 1159 2488 1159 1978 
L 1159 0 
L 581 0 
L 581 3500 
L 1159 3500 
L 1159 2956 
Q 1356 3278 1631 3431 
Q 1906 3584 2284 3584 
Q 2666 3584 2933 3390 
Q 3200 3197 3328 2828 
z
" transform="scale(0.015625)"/>
       <path id="DejaVuSans-b2" d="M 838 2444 
L 2163 2444 
L 2163 2088 
L 294 2088 
L 294 2431 
Q 400 2528 597 2703 
Q 1672 3656 1672 3950 
Q 1672 4156 1509 4282 
Q 1347 4409 1081 4409 
Q 919 4409 728 4354 
Q 538 4300 313 4191 
L 313 4575 
Q 553 4663 761 4706 
Q 969 4750 1147 4750 
Q 1600 4750 1872 4544 
Q 2144 4338 2144 4000 
Q 2144 3566 1109 2678 
Q 934 2528 838 2444 
z
" transform="scale(0.015625)"/>
      </defs>
      <use xlink:href="#DejaVuSans-57"/>
      <use xlink:href="#DejaVuSans-2f" x="98.876953"/>
      <use xlink:href="#DejaVuSans-6d" x="132.568359"/>
      <use xlink:href="#DejaVuSans-b2" x="229.980469"/>
     </g>
    </g>
   </g>
   <g id="line2d_31">
    <path d="M 0 0 
" clip-path="url(#p4754611871)" style="fill: none; stroke: #0000ff; stroke-width: 1.5; stroke-linecap: square"/>
    <defs>
     <path id="mdba0740993" d="M -3 0 
L 3 0 
M 0 3 
L 0 -3 
" style="stroke: #0000ff"/>
    </defs>
    <g clip-path="url(#p4754611871)"/>
   </g>
   <g id="line2d_32">
    <path d="M 81.370852 120.198125 
L 96.25011 120.167411 
L 99.599891 95.829586 
L 101.547438 83.261833 
L 103.105475 74.561762 
L 104.429807 68.331143 
L 105.598335 63.839593 
L 106.61106 60.772915 
L 107.506931 58.7333 
L 108.28595 57.490471 
L 108.948116 56.829915 
L 109.53238 56.552352 
L 110.038742 56.544328 
L 110.545104 56.752281 
L 111.090417 57.216985 
L 111.713632 58.051559 
L 112.414749 59.37242 
L 113.232719 61.41388 
L 114.167541 64.385555 
L 115.219217 68.503415 
L 116.426696 74.17076 
L 117.82893 81.879511 
L 119.50382 92.418462 
L 121.646121 107.443546 
L 123.476815 120.198125 
L 152.300509 120.198125 
L 152.612117 117.937011 
L 155.767142 95.083093 
L 157.714689 82.564113 
L 159.272727 73.920877 
L 160.597059 67.749653 
L 161.765587 63.317879 
L 162.778311 60.307773 
L 163.635232 58.394131 
L 164.3753 57.223419 
L 165.037465 56.561704 
L 165.62173 56.28352 
L 166.128092 56.275266 
L 166.634454 56.483274 
L 167.179767 56.948357 
L 167.802982 57.783768 
L 168.504099 59.10608 
L 169.322069 61.149903 
L 170.256891 64.125139 
L 171.308566 68.248051 
L 172.516045 73.922479 
L 173.918279 81.641005 
L 175.593169 92.19349 
L 177.735471 107.238105 
L 179.605116 120.198125 
L 208.389859 120.097775 
L 211.77859 95.402293 
L 213.726137 82.800881 
L 215.284175 74.077202 
L 216.608506 67.829426 
L 217.777035 63.325282 
L 218.789759 60.249794 
L 219.68563 58.204113 
L 220.464649 56.957377 
L 221.126815 56.294526 
L 221.711079 56.015729 
L 222.217441 56.007243 
L 222.723804 56.215298 
L 223.269117 56.680742 
L 223.892332 57.516959 
L 224.593449 58.840675 
L 225.411418 60.886789 
L 226.346241 63.865479 
L 227.397916 67.993301 
L 228.605395 73.674611 
L 230.007629 81.402643 
L 231.682519 91.968296 
L 233.824821 107.031919 
L 235.733417 120.198125 
L 264.440257 120.198125 
L 269.231223 86.179705 
L 270.906113 76.31014 
L 272.308347 69.298617 
L 273.515826 64.317762 
L 274.567501 60.852483 
L 275.502324 58.495957 
L 276.320293 57.014323 
L 277.02141 56.185606 
L 277.605674 55.810213 
L 278.150987 55.719971 
L 278.657349 55.861392 
L 279.202663 56.255698 
L 279.825878 57.011737 
L 280.526994 58.247149 
L 281.306013 60.088675 
L 282.201885 62.798641 
L 283.214609 66.591621 
L 284.383137 71.867982 
L 285.74642 79.1254 
L 287.343408 88.916382 
L 289.329906 102.581245 
L 291.861717 120.198125 
L 320.490656 120.198125 
L 320.685411 118.848702 
L 323.99624 94.706348 
L 325.943787 82.10597 
L 327.501825 73.394352 
L 328.826157 67.164406 
L 329.994685 62.681454 
L 331.007409 59.628185 
L 331.903281 57.604903 
L 332.643348 56.42885 
L 333.305514 55.763792 
L 333.889778 55.483799 
L 334.396141 55.474847 
L 334.902503 55.682971 
L 335.447816 56.149084 
L 336.071031 56.98682 
L 336.772148 58.313197 
L 337.590117 60.363666 
L 338.52494 63.348941 
L 339.576615 67.486128 
L 340.784094 73.180587 
L 342.186328 80.92679 
L 343.861218 91.51763 
L 346.00352 106.617639 
L 347.951067 120.198125 
L 376.580006 120.135435 
L 380.007688 95.028572 
L 381.955235 82.347366 
L 383.552223 73.354676 
L 384.876555 67.082839 
L 386.045083 62.561007 
L 387.057808 59.473125 
L 387.953679 57.418886 
L 388.732698 56.166619 
L 389.394864 55.500494 
L 389.979128 55.219917 
L 390.48549 55.210733 
L 390.991852 55.418879 
L 391.537166 55.8853 
L 392.160381 56.723748 
L 392.861497 58.05138 
L 393.679467 60.103912 
L 394.61429 63.092311 
L 395.665965 67.233948 
L 396.873444 72.934661 
L 398.275678 80.689514 
L 399.950568 91.292353 
L 402.09287 106.409707 
L 404.079367 120.198125 
L 432.630404 120.198125 
L 433.253619 115.533945 
L 436.291792 93.475333 
L 438.200388 81.178513 
L 439.758426 72.515431 
L 441.082758 66.338945 
L 442.251286 61.911497 
L 443.26401 58.91189 
L 444.120931 57.011927 
L 444.860999 55.856465 
L 445.523165 55.211007 
L 446.068478 54.957593 
L 446.57484 54.948178 
L 447.081202 55.156337 
L 447.626515 55.623049 
L 448.24973 56.462177 
L 448.950847 57.791013 
L 449.768817 59.845529 
L 450.703639 62.836936 
L 451.755315 66.982864 
L 452.962794 72.689611 
L 454.365027 80.452815 
L 456.039918 91.067243 
L 458.182219 106.201358 
L 460.168717 120.198125 
L 488.680803 120.198125 
L 488.797656 119.468942 
L 492.225338 94.33167 
L 494.172885 81.654192 
L 495.730923 72.877079 
L 497.055255 66.590407 
L 498.223783 62.057652 
L 499.236507 58.9621 
L 500.132379 56.902552 
L 500.911397 55.646838 
L 501.573563 54.97866 
L 502.157827 54.69695 
L 502.66419 54.687304 
L 503.170552 54.89547 
L 503.715865 55.362455 
L 504.33908 56.202231 
L 505.040197 57.532219 
L 505.858166 59.588638 
L 506.792989 62.582937 
L 507.844664 66.732993 
L 509.052143 72.445548 
L 510.454377 80.216797 
L 512.129267 90.842395 
L 514.271569 105.992671 
L 516.297018 120.198125 
L 544.770153 120.168728 
L 548.275737 94.38731 
L 550.223284 81.663318 
L 551.820272 72.639809 
L 553.144604 66.346101 
L 554.313132 61.808161 
L 555.325857 58.708963 
L 556.221728 56.646888 
L 557.000747 55.389528 
L 557.662913 54.720366 
L 558.247177 54.438109 
L 558.753539 54.428233 
L 559.259901 54.636399 
L 559.805215 55.103639 
L 560.42843 55.944029 
L 561.129546 57.275119 
L 561.947516 59.333359 
L 562.882339 62.33043 
L 563.934014 66.484447 
L 565.141493 72.202582 
L 566.543727 79.981563 
L 568.218617 90.617903 
L 570.360919 105.783731 
L 572.425318 120.198125 
L 600.820551 120.198125 
L 601.132159 117.910692 
L 604.442989 93.634839 
L 606.390535 80.963519 
L 607.948573 72.202082 
L 609.272905 65.935883 
L 610.441433 61.426277 
L 611.454157 58.354324 
L 612.350029 56.318139 
L 613.090097 55.134094 
L 613.752263 54.463978 
L 614.336527 54.181186 
L 614.842889 54.171084 
L 615.349251 54.379242 
L 615.894564 54.846719 
L 616.517779 55.687692 
L 617.218896 57.019829 
L 618.036866 59.079809 
L 618.971688 62.07953 
L 620.023363 66.237341 
L 621.230843 71.960822 
L 622.633076 79.747217 
L 624.307967 90.393863 
L 626.450268 105.574617 
L 628.514668 120.198125 
L 642.225398 120.198125 
L 642.225398 120.198125 
" clip-path="url(#p4754611871)" style="fill: none; stroke: #000000; stroke-width: 1.5; stroke-linecap: square"/>
   </g>
   <g id="patch_3">
    <path d="M 53.328125 120.198125 
L 53.328125 22.318125 
" style="fill: none; stroke: #000000; stroke-width: 0.8; stroke-linejoin: miter; stroke-linecap: square"/>
   </g>
   <g id="patch_4">
    <path d="M 670.268125 120.198125 
L 670.268125 22.318125 
" style="fill: none; stroke: #000000; stroke-width: 0.8; stroke-linejoin: miter; stroke-linecap: square"/>
   </g>
   <g id="patch_5">
    <path d="M 53.328125 120.198125 
L 670.268125 120.198125 
" style="fill: none; stroke: #000000; stroke-width: 0.8; stroke-linejoin: miter; stroke-linecap: square"/>
   </g>
   <g id="patch_6">
    <path d="M 53.328125 22.318125 
L 670.268125 22.318125 
" style="fill: none; stroke: #000000; stroke-width: 0.8; stroke-linejoin: miter; stroke-linecap: square"/>
   </g>
   <g id="text_17">
    <!-- Overirradiance Events - GHI  do dia 01 ao dia 10 de September de 2024 -->
    <g transform="translate(145.298438 16.318125) scale(0.12 -0.12)">
     <defs>
      <path id="DejaVuSans-4f" d="M 2522 4238 
Q 1834 4238 1429 3725 
Q 1025 3213 1025 2328 
Q 1025 1447 1429 934 
Q 1834 422 2522 422 
Q 3209 422 3611 934 
Q 4013 1447 4013 2328 
Q 4013 3213 3611 3725 
Q 3209 4238 2522 4238 
z
M 2522 4750 
Q 3503 4750 4090 4092 
Q 4678 3434 4678 2328 
Q 4678 1225 4090 567 
Q 3503 -91 2522 -91 
Q 1538 -91 948 565 
Q 359 1222 359 2328 
Q 359 3434 948 4092 
Q 1538 4750 2522 4750 
z
" transform="scale(0.015625)"/>
      <path id="DejaVuSans-76" d="M 191 3500 
L 800 3500 
L 1894 563 
L 2988 3500 
L 3597 3500 
L 2284 0 
L 1503 0 
L 191 3500 
z
" transform="scale(0.015625)"/>
      <path id="DejaVuSans-65" d="M 3597 1894 
L 3597 1613 
L 953 1613 
Q 991 1019 1311 708 
Q 1631 397 2203 397 
Q 2534 397 2845 478 
Q 3156 559 3463 722 
L 3463 178 
Q 3153 47 2828 -22 
Q 2503 -91 2169 -91 
Q 1331 -91 842 396 
Q 353 884 353 1716 
Q 353 2575 817 3079 
Q 1281 3584 2069 3584 
Q 2775 3584 3186 3129 
Q 3597 2675 3597 1894 
z
M 3022 2063 
Q 3016 2534 2758 2815 
Q 2500 3097 2075 3097 
Q 1594 3097 1305 2825 
Q 1016 2553 972 2059 
L 3022 2063 
z
" transform="scale(0.015625)"/>
      <path id="DejaVuSans-72" d="M 2631 2963 
Q 2534 3019 2420 3045 
Q 2306 3072 2169 3072 
Q 1681 3072 1420 2755 
Q 1159 2438 1159 1844 
L 1159 0 
L 581 0 
L 581 3500 
L 1159 3500 
L 1159 2956 
Q 1341 3275 1631 3429 
Q 1922 3584 2338 3584 
Q 2397 3584 2469 3576 
Q 2541 3569 2628 3553 
L 2631 2963 
z
" transform="scale(0.015625)"/>
      <path id="DejaVuSans-69" d="M 603 3500 
L 1178 3500 
L 1178 0 
L 603 0 
L 603 3500 
z
M 603 4863 
L 1178 4863 
L 1178 4134 
L 603 4134 
L 603 4863 
z
" transform="scale(0.015625)"/>
      <path id="DejaVuSans-61" d="M 2194 1759 
Q 1497 1759 1228 1600 
Q 959 1441 959 1056 
Q 959 750 1161 570 
Q 1363 391 1709 391 
Q 2188 391 2477 730 
Q 2766 1069 2766 1631 
L 2766 1759 
L 2194 1759 
z
M 3341 1997 
L 3341 0 
L 2766 0 
L 2766 531 
Q 2569 213 2275 61 
Q 1981 -91 1556 -91 
Q 1019 -91 701 211 
Q 384 513 384 1019 
Q 384 1609 779 1909 
Q 1175 2209 1959 2209 
L 2766 2209 
L 2766 2266 
Q 2766 2663 2505 2880 
Q 2244 3097 1772 3097 
Q 1472 3097 1187 3025 
Q 903 2953 641 2809 
L 641 3341 
Q 956 3463 1253 3523 
Q 1550 3584 1831 3584 
Q 2591 3584 2966 3190 
Q 3341 2797 3341 1997 
z
" transform="scale(0.015625)"/>
      <path id="DejaVuSans-64" d="M 2906 2969 
L 2906 4863 
L 3481 4863 
L 3481 0 
L 2906 0 
L 2906 525 
Q 2725 213 2448 61 
Q 2172 -91 1784 -91 
Q 1150 -91 751 415 
Q 353 922 353 1747 
Q 353 2572 751 3078 
Q 1150 3584 1784 3584 
Q 2172 3584 2448 3432 
Q 2725 3281 2906 2969 
z
M 947 1747 
Q 947 1113 1208 752 
Q 1469 391 1925 391 
Q 2381 391 2643 752 
Q 2906 1113 2906 1747 
Q 2906 2381 2643 2742 
Q 2381 3103 1925 3103 
Q 1469 3103 1208 2742 
Q 947 2381 947 1747 
z
" transform="scale(0.015625)"/>
      <path id="DejaVuSans-6e" d="M 3513 2113 
L 3513 0 
L 2938 0 
L 2938 2094 
Q 2938 2591 2744 2837 
Q 2550 3084 2163 3084 
Q 1697 3084 1428 2787 
Q 1159 2491 1159 1978 
L 1159 0 
L 581 0 
L 581 3500 
L 1159 3500 
L 1159 2956 
Q 1366 3272 1645 3428 
Q 1925 3584 2291 3584 
Q 2894 3584 3203 3211 
Q 3513 2838 3513 2113 
z
" transform="scale(0.015625)"/>
      <path id="DejaVuSans-63" d="M 3122 3366 
L 3122 2828 
Q 2878 2963 2633 3030 
Q 2388 3097 2138 3097 
Q 1578 3097 1268 2742 
Q 959 2388 959 1747 
Q 959 1106 1268 751 
Q 1578 397 2138 397 
Q 2388 397 2633 464 
Q 2878 531 3122 666 
L 3122 134 
Q 2881 22 2623 -34 
Q 2366 -91 2075 -91 
Q 1284 -91 818 406 
Q 353 903 353 1747 
Q 353 2603 823 3093 
Q 1294 3584 2113 3584 
Q 2378 3584 2631 3529 
Q 2884 3475 3122 3366 
z
" transform="scale(0.015625)"/>
      <path id="DejaVuSans-20" transform="scale(0.015625)"/>
      <path id="DejaVuSans-45" d="M 628 4666 
L 3578 4666 
L 3578 4134 
L 1259 4134 
L 1259 2753 
L 3481 2753 
L 3481 2222 
L 1259 2222 
L 1259 531 
L 3634 531 
L 3634 0 
L 628 0 
L 628 4666 
z
" transform="scale(0.015625)"/>
      <path id="DejaVuSans-74" d="M 1172 4494 
L 1172 3500 
L 2356 3500 
L 2356 3053 
L 1172 3053 
L 1172 1153 
Q 1172 725 1289 603 
Q 1406 481 1766 481 
L 2356 481 
L 2356 0 
L 1766 0 
Q 1100 0 847 248 
Q 594 497 594 1153 
L 594 3053 
L 172 3053 
L 172 3500 
L 594 3500 
L 594 4494 
L 1172 4494 
z
" transform="scale(0.015625)"/>
      <path id="DejaVuSans-73" d="M 2834 3397 
L 2834 2853 
Q 2591 2978 2328 3040 
Q 2066 3103 1784 3103 
Q 1356 3103 1142 2972 
Q 928 2841 928 2578 
Q 928 2378 1081 2264 
Q 1234 2150 1697 2047 
L 1894 2003 
Q 2506 1872 2764 1633 
Q 3022 1394 3022 966 
Q 3022 478 2636 193 
Q 2250 -91 1575 -91 
Q 1294 -91 989 -36 
Q 684 19 347 128 
L 347 722 
Q 666 556 975 473 
Q 1284 391 1588 391 
Q 1994 391 2212 530 
Q 2431 669 2431 922 
Q 2431 1156 2273 1281 
Q 2116 1406 1581 1522 
L 1381 1569 
Q 847 1681 609 1914 
Q 372 2147 372 2553 
Q 372 3047 722 3315 
Q 1072 3584 1716 3584 
Q 2034 3584 2315 3537 
Q 2597 3491 2834 3397 
z
" transform="scale(0.015625)"/>
      <path id="DejaVuSans-2d" d="M 313 2009 
L 1997 2009 
L 1997 1497 
L 313 1497 
L 313 2009 
z
" transform="scale(0.015625)"/>
      <path id="DejaVuSans-47" d="M 3809 666 
L 3809 1919 
L 2778 1919 
L 2778 2438 
L 4434 2438 
L 4434 434 
Q 4069 175 3628 42 
Q 3188 -91 2688 -91 
Q 1594 -91 976 548 
Q 359 1188 359 2328 
Q 359 3472 976 4111 
Q 1594 4750 2688 4750 
Q 3144 4750 3555 4637 
Q 3966 4525 4313 4306 
L 4313 3634 
Q 3963 3931 3569 4081 
Q 3175 4231 2741 4231 
Q 1884 4231 1454 3753 
Q 1025 3275 1025 2328 
Q 1025 1384 1454 906 
Q 1884 428 2741 428 
Q 3075 428 3337 486 
Q 3600 544 3809 666 
z
" transform="scale(0.015625)"/>
      <path id="DejaVuSans-48" d="M 628 4666 
L 1259 4666 
L 1259 2753 
L 3553 2753 
L 3553 4666 
L 4184 4666 
L 4184 0 
L 3553 0 
L 3553 2222 
L 1259 2222 
L 1259 0 
L 628 0 
L 628 4666 
z
" transform="scale(0.015625)"/>
      <path id="DejaVuSans-49" d="M 628 4666 
L 1259 4666 
L 1259 0 
L 628 0 
L 628 4666 
z
" transform="scale(0.015625)"/>
      <path id="DejaVuSans-6f" d="M 1959 3097 
Q 1497 3097 1228 2736 
Q 959 2375 959 1747 
Q 959 1119 1226 758 
Q 1494 397 1959 397 
Q 2419 397 2687 759 
Q 2956 1122 2956 1747 
Q 2956 2369 2687 2733 
Q 2419 3097 1959 3097 
z
M 1959 3584 
Q 2709 3584 3137 3096 
Q 3566 2609 3566 1747 
Q 3566 888 3137 398 
Q 2709 -91 1959 -91 
Q 1206 -91 779 398 
Q 353 888 353 1747 
Q 353 2609 779 3096 
Q 1206 3584 1959 3584 
z
" transform="scale(0.015625)"/>
      <path id="DejaVuSans-53" d="M 3425 4513 
L 3425 3897 
Q 3066 4069 2747 4153 
Q 2428 4238 2131 4238 
Q 1616 4238 1336 4038 
Q 1056 3838 1056 3469 
Q 1056 3159 1242 3001 
Q 1428 2844 1947 2747 
L 2328 2669 
Q 3034 2534 3370 2195 
Q 3706 1856 3706 1288 
Q 3706 609 3251 259 
Q 2797 -91 1919 -91 
Q 1588 -91 1214 -16 
Q 841 59 441 206 
L 441 856 
Q 825 641 1194 531 
Q 1563 422 1919 422 
Q 2459 422 2753 634 
Q 3047 847 3047 1241 
Q 3047 1584 2836 1778 
Q 2625 1972 2144 2069 
L 1759 2144 
Q 1053 2284 737 2584 
Q 422 2884 422 3419 
Q 422 4038 858 4394 
Q 1294 4750 2059 4750 
Q 2388 4750 2728 4690 
Q 3069 4631 3425 4513 
z
" transform="scale(0.015625)"/>
      <path id="DejaVuSans-70" d="M 1159 525 
L 1159 -1331 
L 581 -1331 
L 581 3500 
L 1159 3500 
L 1159 2969 
Q 1341 3281 1617 3432 
Q 1894 3584 2278 3584 
Q 2916 3584 3314 3078 
Q 3713 2572 3713 1747 
Q 3713 922 3314 415 
Q 2916 -91 2278 -91 
Q 1894 -91 1617 61 
Q 1341 213 1159 525 
z
M 3116 1747 
Q 3116 2381 2855 2742 
Q 2594 3103 2138 3103 
Q 1681 3103 1420 2742 
Q 1159 2381 1159 1747 
Q 1159 1113 1420 752 
Q 1681 391 2138 391 
Q 2594 391 2855 752 
Q 3116 1113 3116 1747 
z
" transform="scale(0.015625)"/>
      <path id="DejaVuSans-62" d="M 3116 1747 
Q 3116 2381 2855 2742 
Q 2594 3103 2138 3103 
Q 1681 3103 1420 2742 
Q 1159 2381 1159 1747 
Q 1159 1113 1420 752 
Q 1681 391 2138 391 
Q 2594 391 2855 752 
Q 3116 1113 3116 1747 
z
M 1159 2969 
Q 1341 3281 1617 3432 
Q 1894 3584 2278 3584 
Q 2916 3584 3314 3078 
Q 3713 2572 3713 1747 
Q 3713 922 3314 415 
Q 2916 -91 2278 -91 
Q 1894 -91 1617 61 
Q 1341 213 1159 525 
L 1159 0 
L 581 0 
L 581 4863 
L 1159 4863 
L 1159 2969 
z
" transform="scale(0.015625)"/>
     </defs>
     <use xlink:href="#DejaVuSans-4f"/>
     <use xlink:href="#DejaVuSans-76" x="78.710938"/>
     <use xlink:href="#DejaVuSans-65" x="137.890625"/>
     <use xlink:href="#DejaVuSans-72" x="199.414062"/>
     <use xlink:href="#DejaVuSans-69" x="240.527344"/>
     <use xlink:href="#DejaVuSans-72" x="268.310547"/>
     <use xlink:href="#DejaVuSans-72" x="307.673828"/>
     <use xlink:href="#DejaVuSans-61" x="348.787109"/>
     <use xlink:href="#DejaVuSans-64" x="410.066406"/>
     <use xlink:href="#DejaVuSans-69" x="473.542969"/>
     <use xlink:href="#DejaVuSans-61" x="501.326172"/>
     <use xlink:href="#DejaVuSans-6e" x="562.605469"/>
     <use xlink:href="#DejaVuSans-63" x="625.984375"/>
     <use xlink:href="#DejaVuSans-65" x="680.964844"/>
     <use xlink:href="#DejaVuSans-20" x="742.488281"/>
     <use xlink:href="#DejaVuSans-45" x="774.275391"/>
     <use xlink:href="#DejaVuSans-76" x="837.458984"/>
     <use xlink:href="#DejaVuSans-65" x="896.638672"/>
     <use xlink:href="#DejaVuSans-6e" x="958.162109"/>
     <use xlink:href="#DejaVuSans-74" x="1021.541016"/>
     <use xlink:href="#DejaVuSans-73" x="1060.75"/>
     <use xlink:href="#DejaVuSans-20" x="1112.849609"/>
     <use xlink:href="#DejaVuSans-2d" x="1144.636719"/>
     <use xlink:href="#DejaVuSans-20" x="1180.720703"/>
     <use xlink:href="#DejaVuSans-47" x="1212.507812"/>
     <use xlink:href="#DejaVuSans-48" x="1289.998047"/>
     <use xlink:href="#DejaVuSans-49" x="1365.193359"/>
     <use xlink:href="#DejaVuSans-20" x="1394.685547"/>
     <use xlink:href="#DejaVuSans-20" x="1426.472656"/>
     <use xlink:href="#DejaVuSans-64" x="1458.259766"/>
     <use xlink:href="#DejaVuSans-6f" x="1521.736328"/>
     <use xlink:href="#DejaVuSans-20" x="1582.917969"/>
     <use xlink:href="#DejaVuSans-64" x="1614.705078"/>
     <use xlink:href="#DejaVuSans-69" x="1678.181641"/>
     <use xlink:href="#DejaVuSans-61" x="1705.964844"/>
     <use xlink:href="#DejaVuSans-20" x="1767.244141"/>
     <use xlink:href="#DejaVuSans-30" x="1799.03125"/>
     <use xlink:href="#DejaVuSans-31" x="1862.654297"/>
     <use xlink:href="#DejaVuSans-20" x="1926.277344"/>
     <use xlink:href="#DejaVuSans-61" x="1958.064453"/>
     <use xlink:href="#DejaVuSans-6f" x="2019.34375"/>
     <use xlink:href="#DejaVuSans-20" x="2080.525391"/>
     <use xlink:href="#DejaVuSans-64" x="2112.3125"/>
     <use xlink:href="#DejaVuSans-69" x="2175.789062"/>
     <use xlink:href="#DejaVuSans-61" x="2203.572266"/>
     <use xlink:href="#DejaVuSans-20" x="2264.851562"/>
     <use xlink:href="#DejaVuSans-31" x="2296.638672"/>
     <use xlink:href="#DejaVuSans-30" x="2360.261719"/>
     <use xlink:href="#DejaVuSans-20" x="2423.884766"/>
     <use xlink:href="#DejaVuSans-64" x="2455.671875"/>
     <use xlink:href="#DejaVuSans-65" x="2519.148438"/>
     <use xlink:href="#DejaVuSans-20" x="2580.671875"/>
     <use xlink:href="#DejaVuSans-53" x="2612.458984"/>
     <use xlink:href="#DejaVuSans-65" x="2675.935547"/>
     <use xlink:href="#DejaVuSans-70" x="2737.458984"/>
     <use xlink:href="#DejaVuSans-74" x="2800.935547"/>
     <use xlink:href="#DejaVuSans-65" x="2840.144531"/>
     <use xlink:href="#DejaVuSans-6d" x="2901.667969"/>
     <use xlink:href="#DejaVuSans-62" x="2999.080078"/>
     <use xlink:href="#DejaVuSans-65" x="3062.556641"/>
     <use xlink:href="#DejaVuSans-72" x="3124.080078"/>
     <use xlink:href="#DejaVuSans-20" x="3165.193359"/>
     <use xlink:href="#DejaVuSans-64" x="3196.980469"/>
     <use xlink:href="#DejaVuSans-65" x="3260.457031"/>
     <use xlink:href="#DejaVuSans-20" x="3321.980469"/>
     <use xlink:href="#DejaVuSans-32" x="3353.767578"/>
     <use xlink:href="#DejaVuSans-30" x="3417.390625"/>
     <use xlink:href="#DejaVuSans-32" x="3481.013672"/>
     <use xlink:href="#DejaVuSans-34" x="3544.636719"/>
    </g>
   </g>
   <g id="legend_1">
    <g id="patch_7">
     <path d="M 677.268125 44.99625 
L 847.097813 44.99625 
Q 849.097813 44.99625 849.097813 42.99625 
L 849.097813 29.318125 
Q 849.097813 27.318125 847.097813 27.318125 
L 677.268125 27.318125 
Q 675.268125 27.318125 675.268125 29.318125 
L 675.268125 42.99625 
Q 675.268125 44.99625 677.268125 44.99625 
z
" style="fill: #ffffff; opacity: 0.8; stroke: #cccccc; stroke-linejoin: miter"/>
    </g>
    <g id="line2d_33">
     <path d="M 679.268125 35.416562 
L 689.268125 35.416562 
L 699.268125 35.416562 
" style="fill: none; stroke: #0000ff; stroke-width: 1.5; stroke-linecap: square"/>
     <g>
      <use xlink:href="#mdba0740993" x="689.268125" y="35.416562" style="fill: #0000ff; stroke: #0000ff"/>
     </g>
    </g>
    <g id="text_18">
     <!-- OverIrradiance -->
     <g transform="translate(707.268125 38.916562) scale(0.1 -0.1)">
      <use xlink:href="#DejaVuSans-4f"/>
      <use xlink:href="#DejaVuSans-76" x="78.710938"/>
      <use xlink:href="#DejaVuSans-65" x="137.890625"/>
      <use xlink:href="#DejaVuSans-72" x="199.414062"/>
      <use xlink:href="#DejaVuSans-49" x="240.527344"/>
      <use xlink:href="#DejaVuSans-72" x="270.019531"/>
      <use xlink:href="#DejaVuSans-72" x="309.382812"/>
      <use xlink:href="#DejaVuSans-61" x="350.496094"/>
      <use xlink:href="#DejaVuSans-64" x="411.775391"/>
      <use xlink:href="#DejaVuSans-69" x="475.251953"/>
      <use xlink:href="#DejaVuSans-61" x="503.035156"/>
      <use xlink:href="#DejaVuSans-6e" x="564.314453"/>
      <use xlink:href="#DejaVuSans-63" x="627.693359"/>
      <use xlink:href="#DejaVuSans-65" x="682.673828"/>
     </g>
    </g>
    <g id="line2d_34">
     <path d="M 801.691563 35.416562 
L 811.691563 35.416562 
L 821.691563 35.416562 
" style="fill: none; stroke: #000000; stroke-width: 1.5; stroke-linecap: square"/>
    </g>
    <g id="text_19">
     <!-- Ioh -->
     <g transform="translate(829.691563 38.916562) scale(0.1 -0.1)">
      <defs>
       <path id="DejaVuSans-68" d="M 3513 2113 
L 3513 0 
L 2938 0 
L 2938 2094 
Q 2938 2591 2744 2837 
Q 2550 3084 2163 3084 
Q 1697 3084 1428 2787 
Q 1159 2491 1159 1978 
L 1159 0 
L 581 0 
L 581 4863 
L 1159 4863 
L 1159 2956 
Q 1366 3272 1645 3428 
Q 1925 3584 2291 3584 
Q 2894 3584 3203 3211 
Q 3513 2838 3513 2113 
z
" transform="scale(0.015625)"/>
      </defs>
      <use xlink:href="#DejaVuSans-49"/>
      <use xlink:href="#DejaVuSans-6f" x="29.492188"/>
      <use xlink:href="#DejaVuSans-68" x="90.673828"/>
     </g>
    </g>
   </g>
  </g>
  <g id="axes_2">
   <g id="patch_8">
    <path d="M 53.328125 260.598125 
L 670.268125 260.598125 
L 670.268125 162.718125 
L 53.328125 162.718125 
z
" style="fill: #ffffff"/>
   </g>
   <g id="matplotlib.axis_3">
    <g id="xtick_12">
     <g id="line2d_35">
      <path d="M 81.370852 260.598125 
L 81.370852 162.718125 
" clip-path="url(#pf765c216a6)" style="fill: none; stroke-dasharray: 1.85,0.8; stroke-dashoffset: 0; stroke: #b0b0b0; stroke-width: 0.5"/>
     </g>
     <g id="line2d_36">
      <g>
       <use xlink:href="#m44aab1527e" x="81.370852" y="260.598125" style="stroke: #000000; stroke-width: 0.8"/>
      </g>
     </g>
     <g id="text_20">
      <!-- 11 -->
      <g transform="translate(75.008352 275.196562) scale(0.1 -0.1)">
       <use xlink:href="#DejaVuSans-31"/>
       <use xlink:href="#DejaVuSans-31" x="63.623047"/>
      </g>
     </g>
    </g>
    <g id="xtick_13">
     <g id="line2d_37">
      <path d="M 137.460202 260.598125 
L 137.460202 162.718125 
" clip-path="url(#pf765c216a6)" style="fill: none; stroke-dasharray: 1.85,0.8; stroke-dashoffset: 0; stroke: #b0b0b0; stroke-width: 0.5"/>
     </g>
     <g id="line2d_38">
      <g>
       <use xlink:href="#m44aab1527e" x="137.460202" y="260.598125" style="stroke: #000000; stroke-width: 0.8"/>
      </g>
     </g>
     <g id="text_21">
      <!-- 12 -->
      <g transform="translate(131.097702 275.196562) scale(0.1 -0.1)">
       <use xlink:href="#DejaVuSans-31"/>
       <use xlink:href="#DejaVuSans-32" x="63.623047"/>
      </g>
     </g>
    </g>
    <g id="xtick_14">
     <g id="line2d_39">
      <path d="M 193.549552 260.598125 
L 193.549552 162.718125 
" clip-path="url(#pf765c216a6)" style="fill: none; stroke-dasharray: 1.85,0.8; stroke-dashoffset: 0; stroke: #b0b0b0; stroke-width: 0.5"/>
     </g>
     <g id="line2d_40">
      <g>
       <use xlink:href="#m44aab1527e" x="193.549552" y="260.598125" style="stroke: #000000; stroke-width: 0.8"/>
      </g>
     </g>
     <g id="text_22">
      <!-- 13 -->
      <g transform="translate(187.187052 275.196562) scale(0.1 -0.1)">
       <use xlink:href="#DejaVuSans-31"/>
       <use xlink:href="#DejaVuSans-33" x="63.623047"/>
      </g>
     </g>
    </g>
    <g id="xtick_15">
     <g id="line2d_41">
      <path d="M 249.638901 260.598125 
L 249.638901 162.718125 
" clip-path="url(#pf765c216a6)" style="fill: none; stroke-dasharray: 1.85,0.8; stroke-dashoffset: 0; stroke: #b0b0b0; stroke-width: 0.5"/>
     </g>
     <g id="line2d_42">
      <g>
       <use xlink:href="#m44aab1527e" x="249.638901" y="260.598125" style="stroke: #000000; stroke-width: 0.8"/>
      </g>
     </g>
     <g id="text_23">
      <!-- 14 -->
      <g transform="translate(243.276401 275.196562) scale(0.1 -0.1)">
       <use xlink:href="#DejaVuSans-31"/>
       <use xlink:href="#DejaVuSans-34" x="63.623047"/>
      </g>
     </g>
    </g>
    <g id="xtick_16">
     <g id="line2d_43">
      <path d="M 305.728251 260.598125 
L 305.728251 162.718125 
" clip-path="url(#pf765c216a6)" style="fill: none; stroke-dasharray: 1.85,0.8; stroke-dashoffset: 0; stroke: #b0b0b0; stroke-width: 0.5"/>
     </g>
     <g id="line2d_44">
      <g>
       <use xlink:href="#m44aab1527e" x="305.728251" y="260.598125" style="stroke: #000000; stroke-width: 0.8"/>
      </g>
     </g>
     <g id="text_24">
      <!-- 15 -->
      <g transform="translate(299.365751 275.196562) scale(0.1 -0.1)">
       <use xlink:href="#DejaVuSans-31"/>
       <use xlink:href="#DejaVuSans-35" x="63.623047"/>
      </g>
     </g>
    </g>
    <g id="xtick_17">
     <g id="line2d_45">
      <path d="M 361.8176 260.598125 
L 361.8176 162.718125 
" clip-path="url(#pf765c216a6)" style="fill: none; stroke-dasharray: 1.85,0.8; stroke-dashoffset: 0; stroke: #b0b0b0; stroke-width: 0.5"/>
     </g>
     <g id="line2d_46">
      <g>
       <use xlink:href="#m44aab1527e" x="361.8176" y="260.598125" style="stroke: #000000; stroke-width: 0.8"/>
      </g>
     </g>
     <g id="text_25">
      <!-- 16 -->
      <g transform="translate(355.4551 275.196562) scale(0.1 -0.1)">
       <use xlink:href="#DejaVuSans-31"/>
       <use xlink:href="#DejaVuSans-36" x="63.623047"/>
      </g>
     </g>
    </g>
    <g id="xtick_18">
     <g id="line2d_47">
      <path d="M 417.90695 260.598125 
L 417.90695 162.718125 
" clip-path="url(#pf765c216a6)" style="fill: none; stroke-dasharray: 1.85,0.8; stroke-dashoffset: 0; stroke: #b0b0b0; stroke-width: 0.5"/>
     </g>
     <g id="line2d_48">
      <g>
       <use xlink:href="#m44aab1527e" x="417.90695" y="260.598125" style="stroke: #000000; stroke-width: 0.8"/>
      </g>
     </g>
     <g id="text_26">
      <!-- 17 -->
      <g transform="translate(411.54445 275.196562) scale(0.1 -0.1)">
       <use xlink:href="#DejaVuSans-31"/>
       <use xlink:href="#DejaVuSans-37" x="63.623047"/>
      </g>
     </g>
    </g>
    <g id="xtick_19">
     <g id="line2d_49">
      <path d="M 473.9963 260.598125 
L 473.9963 162.718125 
" clip-path="url(#pf765c216a6)" style="fill: none; stroke-dasharray: 1.85,0.8; stroke-dashoffset: 0; stroke: #b0b0b0; stroke-width: 0.5"/>
     </g>
     <g id="line2d_50">
      <g>
       <use xlink:href="#m44aab1527e" x="473.9963" y="260.598125" style="stroke: #000000; stroke-width: 0.8"/>
      </g>
     </g>
     <g id="text_27">
      <!-- 18 -->
      <g transform="translate(467.6338 275.196562) scale(0.1 -0.1)">
       <use xlink:href="#DejaVuSans-31"/>
       <use xlink:href="#DejaVuSans-38" x="63.623047"/>
      </g>
     </g>
    </g>
    <g id="xtick_20">
     <g id="line2d_51">
      <path d="M 530.085649 260.598125 
L 530.085649 162.718125 
" clip-path="url(#pf765c216a6)" style="fill: none; stroke-dasharray: 1.85,0.8; stroke-dashoffset: 0; stroke: #b0b0b0; stroke-width: 0.5"/>
     </g>
     <g id="line2d_52">
      <g>
       <use xlink:href="#m44aab1527e" x="530.085649" y="260.598125" style="stroke: #000000; stroke-width: 0.8"/>
      </g>
     </g>
     <g id="text_28">
      <!-- 19 -->
      <g transform="translate(523.723149 275.196562) scale(0.1 -0.1)">
       <use xlink:href="#DejaVuSans-31"/>
       <use xlink:href="#DejaVuSans-39" x="63.623047"/>
      </g>
     </g>
    </g>
    <g id="xtick_21">
     <g id="line2d_53">
      <path d="M 586.174999 260.598125 
L 586.174999 162.718125 
" clip-path="url(#pf765c216a6)" style="fill: none; stroke-dasharray: 1.85,0.8; stroke-dashoffset: 0; stroke: #b0b0b0; stroke-width: 0.5"/>
     </g>
     <g id="line2d_54">
      <g>
       <use xlink:href="#m44aab1527e" x="586.174999" y="260.598125" style="stroke: #000000; stroke-width: 0.8"/>
      </g>
     </g>
     <g id="text_29">
      <!-- 20 -->
      <g transform="translate(579.812499 275.196562) scale(0.1 -0.1)">
       <use xlink:href="#DejaVuSans-32"/>
       <use xlink:href="#DejaVuSans-30" x="63.623047"/>
      </g>
     </g>
    </g>
    <g id="xtick_22">
     <g id="line2d_55">
      <path d="M 642.264349 260.598125 
L 642.264349 162.718125 
" clip-path="url(#pf765c216a6)" style="fill: none; stroke-dasharray: 1.85,0.8; stroke-dashoffset: 0; stroke: #b0b0b0; stroke-width: 0.5"/>
     </g>
     <g id="line2d_56">
      <g>
       <use xlink:href="#m44aab1527e" x="642.264349" y="260.598125" style="stroke: #000000; stroke-width: 0.8"/>
      </g>
     </g>
     <g id="text_30">
      <!-- 21 -->
      <g transform="translate(635.901849 275.196562) scale(0.1 -0.1)">
       <use xlink:href="#DejaVuSans-32"/>
       <use xlink:href="#DejaVuSans-31" x="63.623047"/>
      </g>
     </g>
    </g>
   </g>
   <g id="matplotlib.axis_4">
    <g id="ytick_5">
     <g id="line2d_57">
      <path d="M 53.328125 260.598125 
L 670.268125 260.598125 
" clip-path="url(#pf765c216a6)" style="fill: none; stroke-dasharray: 1.85,0.8; stroke-dashoffset: 0; stroke: #b0b0b0; stroke-width: 0.5"/>
     </g>
     <g id="line2d_58">
      <g>
       <use xlink:href="#mca5b90a47c" x="53.328125" y="260.598125" style="stroke: #000000; stroke-width: 0.8"/>
      </g>
     </g>
     <g id="text_31">
      <!-- 0 -->
      <g transform="translate(39.965625 264.397344) scale(0.1 -0.1)">
       <use xlink:href="#DejaVuSans-30"/>
      </g>
     </g>
    </g>
    <g id="ytick_6">
     <g id="line2d_59">
      <path d="M 53.328125 233.409236 
L 670.268125 233.409236 
" clip-path="url(#pf765c216a6)" style="fill: none; stroke-dasharray: 1.85,0.8; stroke-dashoffset: 0; stroke: #b0b0b0; stroke-width: 0.5"/>
     </g>
     <g id="line2d_60">
      <g>
       <use xlink:href="#mca5b90a47c" x="53.328125" y="233.409236" style="stroke: #000000; stroke-width: 0.8"/>
      </g>
     </g>
     <g id="text_32">
      <!-- 500 -->
      <g transform="translate(27.240625 237.208455) scale(0.1 -0.1)">
       <use xlink:href="#DejaVuSans-35"/>
       <use xlink:href="#DejaVuSans-30" x="63.623047"/>
       <use xlink:href="#DejaVuSans-30" x="127.246094"/>
      </g>
     </g>
    </g>
    <g id="ytick_7">
     <g id="line2d_61">
      <path d="M 53.328125 206.220347 
L 670.268125 206.220347 
" clip-path="url(#pf765c216a6)" style="fill: none; stroke-dasharray: 1.85,0.8; stroke-dashoffset: 0; stroke: #b0b0b0; stroke-width: 0.5"/>
     </g>
     <g id="line2d_62">
      <g>
       <use xlink:href="#mca5b90a47c" x="53.328125" y="206.220347" style="stroke: #000000; stroke-width: 0.8"/>
      </g>
     </g>
     <g id="text_33">
      <!-- 1000 -->
      <g transform="translate(20.878125 210.019566) scale(0.1 -0.1)">
       <use xlink:href="#DejaVuSans-31"/>
       <use xlink:href="#DejaVuSans-30" x="63.623047"/>
       <use xlink:href="#DejaVuSans-30" x="127.246094"/>
       <use xlink:href="#DejaVuSans-30" x="190.869141"/>
      </g>
     </g>
    </g>
    <g id="ytick_8">
     <g id="line2d_63">
      <path d="M 53.328125 179.031458 
L 670.268125 179.031458 
" clip-path="url(#pf765c216a6)" style="fill: none; stroke-dasharray: 1.85,0.8; stroke-dashoffset: 0; stroke: #b0b0b0; stroke-width: 0.5"/>
     </g>
     <g id="line2d_64">
      <g>
       <use xlink:href="#mca5b90a47c" x="53.328125" y="179.031458" style="stroke: #000000; stroke-width: 0.8"/>
      </g>
     </g>
     <g id="text_34">
      <!-- 1500 -->
      <g transform="translate(20.878125 182.830677) scale(0.1 -0.1)">
       <use xlink:href="#DejaVuSans-31"/>
       <use xlink:href="#DejaVuSans-35" x="63.623047"/>
       <use xlink:href="#DejaVuSans-30" x="127.246094"/>
       <use xlink:href="#DejaVuSans-30" x="190.869141"/>
      </g>
     </g>
    </g>
    <g id="text_35">
     <!-- W/m² -->
     <g transform="translate(14.798438 225.16125) rotate(-90) scale(0.1 -0.1)">
      <use xlink:href="#DejaVuSans-57"/>
      <use xlink:href="#DejaVuSans-2f" x="98.876953"/>
      <use xlink:href="#DejaVuSans-6d" x="132.568359"/>
      <use xlink:href="#DejaVuSans-b2" x="229.980469"/>
     </g>
    </g>
   </g>
   <g id="line2d_65">
    <path d="M 0 0 
" clip-path="url(#pf765c216a6)" style="fill: none; stroke: #0000ff; stroke-width: 1.5; stroke-linecap: square"/>
    <g clip-path="url(#pf765c216a6)"/>
   </g>
   <g id="line2d_66">
    <path d="M 81.370852 260.598125 
L 96.016405 260.49009 
L 99.56094 234.360894 
L 101.508487 221.611001 
L 103.105475 212.568812 
L 104.429807 206.261827 
L 105.598335 201.714093 
L 106.61106 198.608 
L 107.506931 196.541135 
L 108.28595 195.280649 
L 108.948116 194.609609 
L 109.53238 194.326298 
L 110.038742 194.31597 
L 110.545104 194.524114 
L 111.090417 194.991812 
L 111.713632 195.833334 
L 112.414749 197.166465 
L 113.232719 199.228101 
L 114.167541 202.23035 
L 115.219217 206.391783 
L 116.426696 212.120374 
L 117.82893 219.91386 
L 119.50382 230.570367 
L 121.646121 245.765412 
L 123.749472 260.598125 
L 152.066803 260.598125 
L 155.689241 233.8779 
L 157.636787 221.148757 
L 159.194825 212.335272 
L 160.519157 206.022059 
L 161.687685 201.469725 
L 162.700409 198.360389 
L 163.596281 196.291266 
L 164.3753 195.029303 
L 165.037465 194.357371 
L 165.62173 194.073555 
L 166.128092 194.063006 
L 166.634454 194.27113 
L 167.179767 194.73903 
L 167.802982 195.581068 
L 168.504099 196.91514 
L 169.322069 198.978347 
L 170.256891 201.983001 
L 171.308566 206.147881 
L 172.516045 211.881342 
L 173.918279 219.681589 
L 175.593169 230.347507 
L 177.735471 245.556197 
L 179.877773 260.598125 
L 208.117202 260.598125 
L 208.350908 258.925585 
L 211.77859 233.665473 
L 213.726137 220.924785 
L 215.284175 212.10316 
L 216.608506 205.783999 
L 217.777035 201.227268 
L 218.789759 198.11483 
L 219.68563 196.043545 
L 220.464649 194.780163 
L 221.126815 194.107373 
L 221.711079 193.823068 
L 222.217441 193.8123 
L 222.723804 194.020397 
L 223.269117 194.488483 
L 223.892332 195.331005 
L 224.593449 196.665963 
L 225.411418 198.730656 
L 226.346241 201.737588 
L 227.397916 205.905742 
L 228.605395 211.643829 
L 230.007629 219.450504 
L 231.682519 230.125374 
L 233.824821 245.347053 
L 235.967122 260.598125 
L 264.206552 260.517519 
L 267.828989 233.724415 
L 269.776536 220.939819 
L 271.373524 211.872566 
L 272.697856 205.547741 
L 273.866384 200.986821 
L 274.879109 197.871423 
L 275.77498 195.798073 
L 276.553999 194.533333 
L 277.216165 193.859718 
L 277.800429 193.574941 
L 278.306791 193.563959 
L 278.813153 193.772023 
L 279.358466 194.240278 
L 279.981681 195.08325 
L 280.682798 196.419041 
L 281.500768 198.485134 
L 282.43559 201.494218 
L 283.487266 205.665466 
L 284.694745 211.407933 
L 286.096978 219.2207 
L 287.771869 229.904058 
L 289.91417 245.138062 
L 292.095423 260.598125 
L 320.25695 260.598125 
L 321.464429 251.440473 
L 324.268897 231.093862 
L 326.138542 219.068353 
L 327.657629 210.640398 
L 328.98196 204.483514 
L 330.111538 200.21682 
L 331.124262 197.222524 
L 331.981183 195.332785 
L 332.72125 194.190306 
L 333.383416 193.559652 
L 333.928729 193.32063 
L 334.435092 193.326308 
L 334.941454 193.551179 
L 335.486767 194.037633 
L 336.109982 194.901448 
L 336.85005 196.348008 
L 337.668019 198.466756 
L 338.602842 201.534205 
L 339.654517 205.76804 
L 340.861996 211.577274 
L 342.26423 219.459209 
L 343.93912 230.211153 
L 346.081422 245.507072 
L 348.223723 260.598125 
L 376.307349 260.598125 
L 376.463153 259.542382 
L 380.007688 233.303046 
L 381.955235 220.498185 
L 383.552223 211.416272 
L 384.876555 205.080994 
L 386.045083 200.512331 
L 387.057808 197.391455 
L 387.953679 195.314272 
L 388.732698 194.047005 
L 389.394864 193.371846 
L 389.979128 193.086176 
L 390.48549 193.074778 
L 390.991852 193.282761 
L 391.537166 193.751303 
L 392.160381 194.595076 
L 392.861497 195.932369 
L 393.679467 198.001004 
L 394.61429 201.014008 
L 395.665965 205.190907 
L 396.873444 210.941385 
L 398.275678 218.765308 
L 399.950568 229.464231 
L 402.09287 244.720855 
L 404.313073 260.598125 
L 432.396699 260.542645 
L 436.097038 233.093459 
L 438.044585 220.27935 
L 439.641573 211.19074 
L 440.965905 204.850679 
L 442.134433 200.278469 
L 443.147157 197.155079 
L 444.043029 195.076132 
L 444.822048 193.807698 
L 445.484214 193.131822 
L 446.068478 192.845732 
L 446.57484 192.834134 
L 447.081202 193.042069 
L 447.626515 193.51073 
L 448.24973 194.354856 
L 448.950847 195.692817 
L 449.768817 197.762593 
L 450.703639 200.777363 
L 451.755315 204.956816 
L 452.962794 210.71092 
L 454.365027 218.539903 
L 456.039918 229.245892 
L 458.182219 244.5128 
L 460.441374 260.598125 
L 488.447097 260.598125 
L 488.992411 256.479948 
L 492.264289 232.342004 
L 494.211836 219.585516 
L 495.769874 210.764055 
L 497.094206 204.454006 
L 498.262734 199.912004 
L 499.275458 196.817205 
L 500.17133 194.765108 
L 500.911397 193.571084 
L 501.573563 192.894529 
L 502.157827 192.608038 
L 502.66419 192.596246 
L 503.170552 192.804129 
L 503.715865 193.272892 
L 504.33908 194.117337 
L 505.040197 195.455913 
L 505.858166 197.526743 
L 506.792989 200.543149 
L 507.844664 204.724973 
L 509.052143 210.48245 
L 510.454377 218.316142 
L 512.129267 229.028717 
L 514.271569 244.305215 
L 516.569674 260.598125 
L 544.497496 260.598125 
L 544.614349 259.862572 
L 548.275737 232.676827 
L 550.223284 219.84602 
L 551.820272 210.745301 
L 553.144604 204.396583 
L 554.313132 199.817941 
L 555.325857 196.689981 
L 556.221728 194.607821 
L 557.000747 193.337251 
L 557.662913 192.660055 
L 558.247177 192.373184 
L 558.753539 192.361203 
L 559.259901 192.56903 
L 559.805215 193.03788 
L 560.42843 193.882612 
L 561.129546 195.221748 
L 561.947516 197.293544 
L 562.882339 200.311457 
L 563.934014 204.495469 
L 565.141493 210.256062 
L 566.543727 218.094112 
L 568.218617 228.812787 
L 570.360919 244.098179 
L 572.659024 260.598125 
L 600.586846 260.566221 
L 604.365087 232.469915 
L 606.312634 219.631669 
L 607.909622 210.525547 
L 609.233954 204.17296 
L 610.402482 199.591437 
L 611.415206 196.461427 
L 612.311078 194.377819 
L 613.090097 193.106283 
L 613.752263 192.428485 
L 614.336527 192.141253 
L 614.842889 192.12909 
L 615.349251 192.336857 
L 615.894564 192.805779 
L 616.517779 193.650766 
L 617.218896 194.990408 
L 618.036866 197.063082 
L 618.971688 200.082372 
L 620.023363 204.268387 
L 621.230843 210.031841 
L 622.633076 217.873896 
L 624.307967 228.598184 
L 626.450268 243.891768 
L 628.787324 260.598125 
L 642.225398 260.598125 
L 642.225398 260.598125 
" clip-path="url(#pf765c216a6)" style="fill: none; stroke: #000000; stroke-width: 1.5; stroke-linecap: square"/>
   </g>
   <g id="patch_9">
    <path d="M 53.328125 260.598125 
L 53.328125 162.718125 
" style="fill: none; stroke: #000000; stroke-width: 0.8; stroke-linejoin: miter; stroke-linecap: square"/>
   </g>
   <g id="patch_10">
    <path d="M 670.268125 260.598125 
L 670.268125 162.718125 
" style="fill: none; stroke: #000000; stroke-width: 0.8; stroke-linejoin: miter; stroke-linecap: square"/>
   </g>
   <g id="patch_11">
    <path d="M 53.328125 260.598125 
L 670.268125 260.598125 
" style="fill: none; stroke: #000000; stroke-width: 0.8; stroke-linejoin: miter; stroke-linecap: square"/>
   </g>
   <g id="patch_12">
    <path d="M 53.328125 162.718125 
L 670.268125 162.718125 
" style="fill: none; stroke: #000000; stroke-width: 0.8; stroke-linejoin: miter; stroke-linecap: square"/>
   </g>
   <g id="text_36">
    <!-- Overirradiance Events - GHI  do dia 11 ao dia 20 de September de 2024 -->
    <g transform="translate(145.298438 156.718125) scale(0.12 -0.12)">
     <use xlink:href="#DejaVuSans-4f"/>
     <use xlink:href="#DejaVuSans-76" x="78.710938"/>
     <use xlink:href="#DejaVuSans-65" x="137.890625"/>
     <use xlink:href="#DejaVuSans-72" x="199.414062"/>
     <use xlink:href="#DejaVuSans-69" x="240.527344"/>
     <use xlink:href="#DejaVuSans-72" x="268.310547"/>
     <use xlink:href="#DejaVuSans-72" x="307.673828"/>
     <use xlink:href="#DejaVuSans-61" x="348.787109"/>
     <use xlink:href="#DejaVuSans-64" x="410.066406"/>
     <use xlink:href="#DejaVuSans-69" x="473.542969"/>
     <use xlink:href="#DejaVuSans-61" x="501.326172"/>
     <use xlink:href="#DejaVuSans-6e" x="562.605469"/>
     <use xlink:href="#DejaVuSans-63" x="625.984375"/>
     <use xlink:href="#DejaVuSans-65" x="680.964844"/>
     <use xlink:href="#DejaVuSans-20" x="742.488281"/>
     <use xlink:href="#DejaVuSans-45" x="774.275391"/>
     <use xlink:href="#DejaVuSans-76" x="837.458984"/>
     <use xlink:href="#DejaVuSans-65" x="896.638672"/>
     <use xlink:href="#DejaVuSans-6e" x="958.162109"/>
     <use xlink:href="#DejaVuSans-74" x="1021.541016"/>
     <use xlink:href="#DejaVuSans-73" x="1060.75"/>
     <use xlink:href="#DejaVuSans-20" x="1112.849609"/>
     <use xlink:href="#DejaVuSans-2d" x="1144.636719"/>
     <use xlink:href="#DejaVuSans-20" x="1180.720703"/>
     <use xlink:href="#DejaVuSans-47" x="1212.507812"/>
     <use xlink:href="#DejaVuSans-48" x="1289.998047"/>
     <use xlink:href="#DejaVuSans-49" x="1365.193359"/>
     <use xlink:href="#DejaVuSans-20" x="1394.685547"/>
     <use xlink:href="#DejaVuSans-20" x="1426.472656"/>
     <use xlink:href="#DejaVuSans-64" x="1458.259766"/>
     <use xlink:href="#DejaVuSans-6f" x="1521.736328"/>
     <use xlink:href="#DejaVuSans-20" x="1582.917969"/>
     <use xlink:href="#DejaVuSans-64" x="1614.705078"/>
     <use xlink:href="#DejaVuSans-69" x="1678.181641"/>
     <use xlink:href="#DejaVuSans-61" x="1705.964844"/>
     <use xlink:href="#DejaVuSans-20" x="1767.244141"/>
     <use xlink:href="#DejaVuSans-31" x="1799.03125"/>
     <use xlink:href="#DejaVuSans-31" x="1862.654297"/>
     <use xlink:href="#DejaVuSans-20" x="1926.277344"/>
     <use xlink:href="#DejaVuSans-61" x="1958.064453"/>
     <use xlink:href="#DejaVuSans-6f" x="2019.34375"/>
     <use xlink:href="#DejaVuSans-20" x="2080.525391"/>
     <use xlink:href="#DejaVuSans-64" x="2112.3125"/>
     <use xlink:href="#DejaVuSans-69" x="2175.789062"/>
     <use xlink:href="#DejaVuSans-61" x="2203.572266"/>
     <use xlink:href="#DejaVuSans-20" x="2264.851562"/>
     <use xlink:href="#DejaVuSans-32" x="2296.638672"/>
     <use xlink:href="#DejaVuSans-30" x="2360.261719"/>
     <use xlink:href="#DejaVuSans-20" x="2423.884766"/>
     <use xlink:href="#DejaVuSans-64" x="2455.671875"/>
     <use xlink:href="#DejaVuSans-65" x="2519.148438"/>
     <use xlink:href="#DejaVuSans-20" x="2580.671875"/>
     <use xlink:href="#DejaVuSans-53" x="2612.458984"/>
     <use xlink:href="#DejaVuSans-65" x="2675.935547"/>
     <use xlink:href="#DejaVuSans-70" x="2737.458984"/>
     <use xlink:href="#DejaVuSans-74" x="2800.935547"/>
     <use xlink:href="#DejaVuSans-65" x="2840.144531"/>
     <use xlink:href="#DejaVuSans-6d" x="2901.667969"/>
     <use xlink:href="#DejaVuSans-62" x="2999.080078"/>
     <use xlink:href="#DejaVuSans-65" x="3062.556641"/>
     <use xlink:href="#DejaVuSans-72" x="3124.080078"/>
     <use xlink:href="#DejaVuSans-20" x="3165.193359"/>
     <use xlink:href="#DejaVuSans-64" x="3196.980469"/>
     <use xlink:href="#DejaVuSans-65" x="3260.457031"/>
     <use xlink:href="#DejaVuSans-20" x="3321.980469"/>
     <use xlink:href="#DejaVuSans-32" x="3353.767578"/>
     <use xlink:href="#DejaVuSans-30" x="3417.390625"/>
     <use xlink:href="#DejaVuSans-32" x="3481.013672"/>
     <use xlink:href="#DejaVuSans-34" x="3544.636719"/>
    </g>
   </g>
   <g id="legend_2">
    <g id="patch_13">
     <path d="M 677.268125 185.39625 
L 847.097813 185.39625 
Q 849.097813 185.39625 849.097813 183.39625 
L 849.097813 169.718125 
Q 849.097813 167.718125 847.097813 167.718125 
L 677.268125 167.718125 
Q 675.268125 167.718125 675.268125 169.718125 
L 675.268125 183.39625 
Q 675.268125 185.39625 677.268125 185.39625 
z
" style="fill: #ffffff; opacity: 0.8; stroke: #cccccc; stroke-linejoin: miter"/>
    </g>
    <g id="line2d_67">
     <path d="M 679.268125 175.816562 
L 689.268125 175.816562 
L 699.268125 175.816562 
" style="fill: none; stroke: #0000ff; stroke-width: 1.5; stroke-linecap: square"/>
     <g>
      <use xlink:href="#mdba0740993" x="689.268125" y="175.816562" style="fill: #0000ff; stroke: #0000ff"/>
     </g>
    </g>
    <g id="text_37">
     <!-- OverIrradiance -->
     <g transform="translate(707.268125 179.316562) scale(0.1 -0.1)">
      <use xlink:href="#DejaVuSans-4f"/>
      <use xlink:href="#DejaVuSans-76" x="78.710938"/>
      <use xlink:href="#DejaVuSans-65" x="137.890625"/>
      <use xlink:href="#DejaVuSans-72" x="199.414062"/>
      <use xlink:href="#DejaVuSans-49" x="240.527344"/>
      <use xlink:href="#DejaVuSans-72" x="270.019531"/>
      <use xlink:href="#DejaVuSans-72" x="309.382812"/>
      <use xlink:href="#DejaVuSans-61" x="350.496094"/>
      <use xlink:href="#DejaVuSans-64" x="411.775391"/>
      <use xlink:href="#DejaVuSans-69" x="475.251953"/>
      <use xlink:href="#DejaVuSans-61" x="503.035156"/>
      <use xlink:href="#DejaVuSans-6e" x="564.314453"/>
      <use xlink:href="#DejaVuSans-63" x="627.693359"/>
      <use xlink:href="#DejaVuSans-65" x="682.673828"/>
     </g>
    </g>
    <g id="line2d_68">
     <path d="M 801.691563 175.816562 
L 811.691563 175.816562 
L 821.691563 175.816562 
" style="fill: none; stroke: #000000; stroke-width: 1.5; stroke-linecap: square"/>
    </g>
    <g id="text_38">
     <!-- Ioh -->
     <g transform="translate(829.691563 179.316562) scale(0.1 -0.1)">
      <use xlink:href="#DejaVuSans-49"/>
      <use xlink:href="#DejaVuSans-6f" x="29.492188"/>
      <use xlink:href="#DejaVuSans-68" x="90.673828"/>
     </g>
    </g>
   </g>
  </g>
  <g id="axes_3">
   <g id="patch_14">
    <path d="M 53.328125 400.998125 
L 670.268125 400.998125 
L 670.268125 303.118125 
L 53.328125 303.118125 
z
" style="fill: #ffffff"/>
   </g>
   <g id="matplotlib.axis_5">
    <g id="xtick_23">
     <g id="line2d_69">
      <path d="M 81.370852 400.998125 
L 81.370852 303.118125 
" clip-path="url(#p1519322318)" style="fill: none; stroke-dasharray: 1.85,0.8; stroke-dashoffset: 0; stroke: #b0b0b0; stroke-width: 0.5"/>
     </g>
     <g id="line2d_70">
      <g>
       <use xlink:href="#m44aab1527e" x="81.370852" y="400.998125" style="stroke: #000000; stroke-width: 0.8"/>
      </g>
     </g>
     <g id="text_39">
      <!-- 21 -->
      <g transform="translate(75.008352 415.596562) scale(0.1 -0.1)">
       <use xlink:href="#DejaVuSans-32"/>
       <use xlink:href="#DejaVuSans-31" x="63.623047"/>
      </g>
     </g>
    </g>
    <g id="xtick_24">
     <g id="line2d_71">
      <path d="M 137.460202 400.998125 
L 137.460202 303.118125 
" clip-path="url(#p1519322318)" style="fill: none; stroke-dasharray: 1.85,0.8; stroke-dashoffset: 0; stroke: #b0b0b0; stroke-width: 0.5"/>
     </g>
     <g id="line2d_72">
      <g>
       <use xlink:href="#m44aab1527e" x="137.460202" y="400.998125" style="stroke: #000000; stroke-width: 0.8"/>
      </g>
     </g>
     <g id="text_40">
      <!-- 22 -->
      <g transform="translate(131.097702 415.596562) scale(0.1 -0.1)">
       <use xlink:href="#DejaVuSans-32"/>
       <use xlink:href="#DejaVuSans-32" x="63.623047"/>
      </g>
     </g>
    </g>
    <g id="xtick_25">
     <g id="line2d_73">
      <path d="M 193.549552 400.998125 
L 193.549552 303.118125 
" clip-path="url(#p1519322318)" style="fill: none; stroke-dasharray: 1.85,0.8; stroke-dashoffset: 0; stroke: #b0b0b0; stroke-width: 0.5"/>
     </g>
     <g id="line2d_74">
      <g>
       <use xlink:href="#m44aab1527e" x="193.549552" y="400.998125" style="stroke: #000000; stroke-width: 0.8"/>
      </g>
     </g>
     <g id="text_41">
      <!-- 23 -->
      <g transform="translate(187.187052 415.596562) scale(0.1 -0.1)">
       <use xlink:href="#DejaVuSans-32"/>
       <use xlink:href="#DejaVuSans-33" x="63.623047"/>
      </g>
     </g>
    </g>
    <g id="xtick_26">
     <g id="line2d_75">
      <path d="M 249.638901 400.998125 
L 249.638901 303.118125 
" clip-path="url(#p1519322318)" style="fill: none; stroke-dasharray: 1.85,0.8; stroke-dashoffset: 0; stroke: #b0b0b0; stroke-width: 0.5"/>
     </g>
     <g id="line2d_76">
      <g>
       <use xlink:href="#m44aab1527e" x="249.638901" y="400.998125" style="stroke: #000000; stroke-width: 0.8"/>
      </g>
     </g>
     <g id="text_42">
      <!-- 24 -->
      <g transform="translate(243.276401 415.596562) scale(0.1 -0.1)">
       <use xlink:href="#DejaVuSans-32"/>
       <use xlink:href="#DejaVuSans-34" x="63.623047"/>
      </g>
     </g>
    </g>
    <g id="xtick_27">
     <g id="line2d_77">
      <path d="M 305.728251 400.998125 
L 305.728251 303.118125 
" clip-path="url(#p1519322318)" style="fill: none; stroke-dasharray: 1.85,0.8; stroke-dashoffset: 0; stroke: #b0b0b0; stroke-width: 0.5"/>
     </g>
     <g id="line2d_78">
      <g>
       <use xlink:href="#m44aab1527e" x="305.728251" y="400.998125" style="stroke: #000000; stroke-width: 0.8"/>
      </g>
     </g>
     <g id="text_43">
      <!-- 25 -->
      <g transform="translate(299.365751 415.596562) scale(0.1 -0.1)">
       <use xlink:href="#DejaVuSans-32"/>
       <use xlink:href="#DejaVuSans-35" x="63.623047"/>
      </g>
     </g>
    </g>
    <g id="xtick_28">
     <g id="line2d_79">
      <path d="M 361.8176 400.998125 
L 361.8176 303.118125 
" clip-path="url(#p1519322318)" style="fill: none; stroke-dasharray: 1.85,0.8; stroke-dashoffset: 0; stroke: #b0b0b0; stroke-width: 0.5"/>
     </g>
     <g id="line2d_80">
      <g>
       <use xlink:href="#m44aab1527e" x="361.8176" y="400.998125" style="stroke: #000000; stroke-width: 0.8"/>
      </g>
     </g>
     <g id="text_44">
      <!-- 26 -->
      <g transform="translate(355.4551 415.596562) scale(0.1 -0.1)">
       <use xlink:href="#DejaVuSans-32"/>
       <use xlink:href="#DejaVuSans-36" x="63.623047"/>
      </g>
     </g>
    </g>
    <g id="xtick_29">
     <g id="line2d_81">
      <path d="M 417.90695 400.998125 
L 417.90695 303.118125 
" clip-path="url(#p1519322318)" style="fill: none; stroke-dasharray: 1.85,0.8; stroke-dashoffset: 0; stroke: #b0b0b0; stroke-width: 0.5"/>
     </g>
     <g id="line2d_82">
      <g>
       <use xlink:href="#m44aab1527e" x="417.90695" y="400.998125" style="stroke: #000000; stroke-width: 0.8"/>
      </g>
     </g>
     <g id="text_45">
      <!-- 27 -->
      <g transform="translate(411.54445 415.596562) scale(0.1 -0.1)">
       <use xlink:href="#DejaVuSans-32"/>
       <use xlink:href="#DejaVuSans-37" x="63.623047"/>
      </g>
     </g>
    </g>
    <g id="xtick_30">
     <g id="line2d_83">
      <path d="M 473.9963 400.998125 
L 473.9963 303.118125 
" clip-path="url(#p1519322318)" style="fill: none; stroke-dasharray: 1.85,0.8; stroke-dashoffset: 0; stroke: #b0b0b0; stroke-width: 0.5"/>
     </g>
     <g id="line2d_84">
      <g>
       <use xlink:href="#m44aab1527e" x="473.9963" y="400.998125" style="stroke: #000000; stroke-width: 0.8"/>
      </g>
     </g>
     <g id="text_46">
      <!-- 28 -->
      <g transform="translate(467.6338 415.596562) scale(0.1 -0.1)">
       <use xlink:href="#DejaVuSans-32"/>
       <use xlink:href="#DejaVuSans-38" x="63.623047"/>
      </g>
     </g>
    </g>
    <g id="xtick_31">
     <g id="line2d_85">
      <path d="M 530.085649 400.998125 
L 530.085649 303.118125 
" clip-path="url(#p1519322318)" style="fill: none; stroke-dasharray: 1.85,0.8; stroke-dashoffset: 0; stroke: #b0b0b0; stroke-width: 0.5"/>
     </g>
     <g id="line2d_86">
      <g>
       <use xlink:href="#m44aab1527e" x="530.085649" y="400.998125" style="stroke: #000000; stroke-width: 0.8"/>
      </g>
     </g>
     <g id="text_47">
      <!-- 29 -->
      <g transform="translate(523.723149 415.596562) scale(0.1 -0.1)">
       <use xlink:href="#DejaVuSans-32"/>
       <use xlink:href="#DejaVuSans-39" x="63.623047"/>
      </g>
     </g>
    </g>
    <g id="xtick_32">
     <g id="line2d_87">
      <path d="M 586.174999 400.998125 
L 586.174999 303.118125 
" clip-path="url(#p1519322318)" style="fill: none; stroke-dasharray: 1.85,0.8; stroke-dashoffset: 0; stroke: #b0b0b0; stroke-width: 0.5"/>
     </g>
     <g id="line2d_88">
      <g>
       <use xlink:href="#m44aab1527e" x="586.174999" y="400.998125" style="stroke: #000000; stroke-width: 0.8"/>
      </g>
     </g>
     <g id="text_48">
      <!-- 30 -->
      <g transform="translate(579.812499 415.596562) scale(0.1 -0.1)">
       <use xlink:href="#DejaVuSans-33"/>
       <use xlink:href="#DejaVuSans-30" x="63.623047"/>
      </g>
     </g>
    </g>
    <g id="xtick_33">
     <g id="line2d_89">
      <path d="M 642.264349 400.998125 
L 642.264349 303.118125 
" clip-path="url(#p1519322318)" style="fill: none; stroke-dasharray: 1.85,0.8; stroke-dashoffset: 0; stroke: #b0b0b0; stroke-width: 0.5"/>
     </g>
     <g id="line2d_90">
      <g>
       <use xlink:href="#m44aab1527e" x="642.264349" y="400.998125" style="stroke: #000000; stroke-width: 0.8"/>
      </g>
     </g>
     <g id="text_49">
      <!-- 01 -->
      <g transform="translate(635.901849 415.596562) scale(0.1 -0.1)">
       <use xlink:href="#DejaVuSans-30"/>
       <use xlink:href="#DejaVuSans-31" x="63.623047"/>
      </g>
     </g>
    </g>
   </g>
   <g id="matplotlib.axis_6">
    <g id="ytick_9">
     <g id="line2d_91">
      <path d="M 53.328125 400.998125 
L 670.268125 400.998125 
" clip-path="url(#p1519322318)" style="fill: none; stroke-dasharray: 1.85,0.8; stroke-dashoffset: 0; stroke: #b0b0b0; stroke-width: 0.5"/>
     </g>
     <g id="line2d_92">
      <g>
       <use xlink:href="#mca5b90a47c" x="53.328125" y="400.998125" style="stroke: #000000; stroke-width: 0.8"/>
      </g>
     </g>
     <g id="text_50">
      <!-- 0 -->
      <g transform="translate(39.965625 404.797344) scale(0.1 -0.1)">
       <use xlink:href="#DejaVuSans-30"/>
      </g>
     </g>
    </g>
    <g id="ytick_10">
     <g id="line2d_93">
      <path d="M 53.328125 373.809236 
L 670.268125 373.809236 
" clip-path="url(#p1519322318)" style="fill: none; stroke-dasharray: 1.85,0.8; stroke-dashoffset: 0; stroke: #b0b0b0; stroke-width: 0.5"/>
     </g>
     <g id="line2d_94">
      <g>
       <use xlink:href="#mca5b90a47c" x="53.328125" y="373.809236" style="stroke: #000000; stroke-width: 0.8"/>
      </g>
     </g>
     <g id="text_51">
      <!-- 500 -->
      <g transform="translate(27.240625 377.608455) scale(0.1 -0.1)">
       <use xlink:href="#DejaVuSans-35"/>
       <use xlink:href="#DejaVuSans-30" x="63.623047"/>
       <use xlink:href="#DejaVuSans-30" x="127.246094"/>
      </g>
     </g>
    </g>
    <g id="ytick_11">
     <g id="line2d_95">
      <path d="M 53.328125 346.620347 
L 670.268125 346.620347 
" clip-path="url(#p1519322318)" style="fill: none; stroke-dasharray: 1.85,0.8; stroke-dashoffset: 0; stroke: #b0b0b0; stroke-width: 0.5"/>
     </g>
     <g id="line2d_96">
      <g>
       <use xlink:href="#mca5b90a47c" x="53.328125" y="346.620347" style="stroke: #000000; stroke-width: 0.8"/>
      </g>
     </g>
     <g id="text_52">
      <!-- 1000 -->
      <g transform="translate(20.878125 350.419566) scale(0.1 -0.1)">
       <use xlink:href="#DejaVuSans-31"/>
       <use xlink:href="#DejaVuSans-30" x="63.623047"/>
       <use xlink:href="#DejaVuSans-30" x="127.246094"/>
       <use xlink:href="#DejaVuSans-30" x="190.869141"/>
      </g>
     </g>
    </g>
    <g id="ytick_12">
     <g id="line2d_97">
      <path d="M 53.328125 319.431458 
L 670.268125 319.431458 
" clip-path="url(#p1519322318)" style="fill: none; stroke-dasharray: 1.85,0.8; stroke-dashoffset: 0; stroke: #b0b0b0; stroke-width: 0.5"/>
     </g>
     <g id="line2d_98">
      <g>
       <use xlink:href="#mca5b90a47c" x="53.328125" y="319.431458" style="stroke: #000000; stroke-width: 0.8"/>
      </g>
     </g>
     <g id="text_53">
      <!-- 1500 -->
      <g transform="translate(20.878125 323.230677) scale(0.1 -0.1)">
       <use xlink:href="#DejaVuSans-31"/>
       <use xlink:href="#DejaVuSans-35" x="63.623047"/>
       <use xlink:href="#DejaVuSans-30" x="127.246094"/>
       <use xlink:href="#DejaVuSans-30" x="190.869141"/>
      </g>
     </g>
    </g>
    <g id="text_54">
     <!-- W/m² -->
     <g transform="translate(14.798438 365.56125) rotate(-90) scale(0.1 -0.1)">
      <use xlink:href="#DejaVuSans-57"/>
      <use xlink:href="#DejaVuSans-2f" x="98.876953"/>
      <use xlink:href="#DejaVuSans-6d" x="132.568359"/>
      <use xlink:href="#DejaVuSans-b2" x="229.980469"/>
     </g>
    </g>
   </g>
   <g id="line2d_99">
    <path d="M 0 0 
" clip-path="url(#p1519322318)" style="fill: none; stroke: #0000ff; stroke-width: 1.5; stroke-linecap: square"/>
    <g clip-path="url(#p1519322318)"/>
   </g>
   <g id="line2d_100">
    <path d="M 81.370852 400.998125 
L 95.743748 400.998125 
L 96.094307 398.386665 
L 99.56094 372.664027 
L 101.508487 359.818953 
L 103.105475 350.707867 
L 104.429807 344.351719 
L 105.598335 339.767543 
L 106.61106 336.635639 
L 107.506931 334.550692 
L 108.28595 333.278259 
L 108.948116 332.599899 
L 109.53238 332.312327 
L 110.038742 332.299989 
L 110.545104 332.507692 
L 111.090417 332.976672 
L 111.713632 333.821882 
L 112.414749 335.161976 
L 113.232719 337.235442 
L 114.167541 340.255977 
L 115.219217 344.443813 
L 116.426696 350.20987 
L 117.82893 358.055576 
L 119.50382 368.784988 
L 121.646121 384.086059 
L 124.022129 400.998125 
L 151.794147 400.998125 
L 151.872049 400.583176 
L 155.65029 372.459226 
L 157.597836 359.60794 
L 159.194825 350.492329 
L 160.519157 344.132934 
L 161.687685 339.546332 
L 162.700409 336.412694 
L 163.596281 334.326516 
L 164.3753 333.053255 
L 165.037465 332.374374 
L 165.62173 332.086484 
L 166.128092 332.073979 
L 166.634454 332.281615 
L 167.179767 332.750636 
L 167.802982 333.596039 
L 168.504099 334.93653 
L 169.322069 337.010702 
L 170.256891 340.032353 
L 171.308566 344.221824 
L 172.516045 349.990227 
L 173.918279 357.83923 
L 175.593169 368.573275 
L 177.735471 383.881128 
L 180.111478 400.998125 
L 207.883496 400.989012 
L 211.739639 372.255576 
L 213.687186 359.398694 
L 215.284175 350.279003 
L 216.608506 343.916672 
L 217.777035 339.327874 
L 218.789759 336.192661 
L 219.68563 334.105363 
L 220.464649 332.831345 
L 221.126815 332.151984 
L 221.711079 331.863797 
L 222.217441 331.851132 
L 222.723804 332.058699 
L 223.269117 332.527748 
L 223.892332 333.373311 
L 224.593449 334.714148 
L 225.411418 336.788938 
L 226.346241 339.811576 
L 227.397916 344.002499 
L 228.605395 349.77299 
L 230.007629 357.624934 
L 231.682519 368.363123 
L 233.824821 383.67705 
L 236.239779 400.998125 
L 263.933895 400.998125 
L 264.167601 399.302597 
L 267.828989 372.053138 
L 269.776536 359.191278 
L 271.373524 350.06795 
L 272.697856 343.702998 
L 273.866384 339.112234 
L 274.879109 335.975608 
L 275.77498 333.887301 
L 276.553999 332.612597 
L 277.216165 331.932797 
L 277.800429 331.644336 
L 278.306791 331.631519 
L 278.813153 331.839015 
L 279.358466 332.308078 
L 279.981681 333.153772 
L 280.682798 334.4949 
L 281.500768 336.570224 
L 282.43559 339.593718 
L 283.487266 343.785909 
L 284.694745 349.558232 
L 286.096978 357.412763 
L 287.771869 368.154605 
L 289.91417 383.473897 
L 292.368079 400.998125 
L 320.023245 400.904487 
L 323.918339 371.851971 
L 325.865885 358.985753 
L 327.462874 349.859233 
L 328.787206 343.491975 
L 329.955734 338.899476 
L 330.968458 335.761599 
L 331.86433 333.672394 
L 332.643348 332.397076 
L 333.305514 331.71688 
L 333.889778 331.428166 
L 334.396141 331.415206 
L 334.902503 331.62263 
L 335.447816 332.091693 
L 336.071031 332.937487 
L 336.772148 334.278855 
L 337.590117 336.354626 
L 338.52494 339.378848 
L 339.576615 343.572125 
L 340.784094 349.346023 
L 342.186328 357.202789 
L 343.861218 367.947792 
L 346.00352 383.271744 
L 348.457429 400.998125 
L 376.073644 400.998125 
L 381.877333 359.263496 
L 383.474322 350.06333 
L 384.837604 343.453914 
L 386.006133 338.826355 
L 387.018857 335.656391 
L 387.914728 333.537833 
L 388.693747 332.236491 
L 389.355913 331.533965 
L 389.940177 331.225492 
L 390.446539 331.195434 
L 390.952902 331.38584 
L 391.498215 331.836731 
L 392.12143 332.662039 
L 392.822547 333.980837 
L 393.640516 336.031093 
L 394.575339 339.027495 
L 395.627014 343.191546 
L 396.834493 348.935094 
L 398.236727 356.761614 
L 399.872666 367.214877 
L 401.976017 382.201668 
L 404.58573 400.998125 
L 432.124042 400.998125 
L 432.318797 399.623444 
L 436.097038 371.453685 
L 438.044585 358.580606 
L 439.641573 349.449039 
L 440.965905 343.078114 
L 442.134433 338.482842 
L 443.147157 335.342949 
L 444.043029 333.252284 
L 444.822048 331.975955 
L 445.484214 331.295094 
L 446.068478 331.005947 
L 446.57484 330.992727 
L 447.081202 331.200001 
L 447.626515 331.669026 
L 448.24973 332.514932 
L 448.950847 333.856626 
L 449.768817 335.933039 
L 450.703639 338.958335 
L 451.755315 343.153239 
L 452.962794 348.929524 
L 454.365027 356.7897 
L 456.039918 367.539565 
L 458.182219 382.87072 
L 460.71403 400.998125 
L 488.213392 400.927671 
L 492.186387 371.256678 
L 494.133934 358.381096 
L 495.730923 349.24767 
L 497.055255 342.875385 
L 498.223783 338.279074 
L 499.236507 335.138417 
L 500.132379 333.04719 
L 500.911397 331.770465 
L 501.573563 331.089337 
L 502.157827 330.800008 
L 502.66419 330.786674 
L 503.170552 330.993871 
L 503.715865 331.462858 
L 504.33908 332.308778 
L 505.040197 333.650558 
L 505.858166 335.727167 
L 506.792989 338.75281 
L 507.844664 342.948258 
L 509.052143 348.725358 
L 510.454377 356.586715 
L 512.129267 367.338283 
L 514.271569 382.671988 
L 516.80338 400.998125 
L 544.263791 400.998125 
L 545.08176 394.753788 
L 548.353639 370.516189 
L 550.301186 357.705209 
L 551.859223 348.844947 
L 553.183555 342.506235 
L 554.352083 337.942777 
L 555.364808 334.832592 
L 556.260679 332.769537 
L 557.000747 331.568422 
L 557.662913 330.887071 
L 558.247177 330.597585 
L 558.753539 330.584145 
L 559.259901 330.791266 
L 559.805215 331.260204 
L 560.42843 332.106108 
L 561.129546 333.447925 
L 561.947516 335.524649 
L 562.882339 338.550516 
L 563.934014 342.74633 
L 565.141493 348.523993 
L 566.543727 356.386186 
L 568.218617 367.138976 
L 570.360919 382.474535 
L 572.93168 400.998125 
L 600.314189 400.998125 
L 600.469993 399.946419 
L 604.365087 370.867208 
L 606.312634 357.988457 
L 607.909622 348.852642 
L 609.233954 342.478577 
L 610.402482 337.88088 
L 611.415206 334.739183 
L 612.311078 332.647171 
L 613.090097 331.369872 
L 613.752263 330.688341 
L 614.336527 330.398722 
L 614.842889 330.385187 
L 615.349251 330.592232 
L 615.894564 331.061109 
L 616.517779 331.906972 
L 617.218896 333.248777 
L 618.036866 335.325534 
L 618.971688 338.351501 
L 620.023363 342.547506 
L 621.230843 348.325486 
L 622.633076 356.18817 
L 624.307967 366.941705 
L 626.450268 382.278427 
L 629.059981 400.998125 
L 642.225398 400.998125 
L 642.225398 400.998125 
" clip-path="url(#p1519322318)" style="fill: none; stroke: #000000; stroke-width: 1.5; stroke-linecap: square"/>
   </g>
   <g id="patch_15">
    <path d="M 53.328125 400.998125 
L 53.328125 303.118125 
" style="fill: none; stroke: #000000; stroke-width: 0.8; stroke-linejoin: miter; stroke-linecap: square"/>
   </g>
   <g id="patch_16">
    <path d="M 670.268125 400.998125 
L 670.268125 303.118125 
" style="fill: none; stroke: #000000; stroke-width: 0.8; stroke-linejoin: miter; stroke-linecap: square"/>
   </g>
   <g id="patch_17">
    <path d="M 53.328125 400.998125 
L 670.268125 400.998125 
" style="fill: none; stroke: #000000; stroke-width: 0.8; stroke-linejoin: miter; stroke-linecap: square"/>
   </g>
   <g id="patch_18">
    <path d="M 53.328125 303.118125 
L 670.268125 303.118125 
" style="fill: none; stroke: #000000; stroke-width: 0.8; stroke-linejoin: miter; stroke-linecap: square"/>
   </g>
   <g id="text_55">
    <!-- Overirradiance Events - GHI  do dia 01 ao dia 30 de September de 2024 -->
    <g transform="translate(145.298438 297.118125) scale(0.12 -0.12)">
     <use xlink:href="#DejaVuSans-4f"/>
     <use xlink:href="#DejaVuSans-76" x="78.710938"/>
     <use xlink:href="#DejaVuSans-65" x="137.890625"/>
     <use xlink:href="#DejaVuSans-72" x="199.414062"/>
     <use xlink:href="#DejaVuSans-69" x="240.527344"/>
     <use xlink:href="#DejaVuSans-72" x="268.310547"/>
     <use xlink:href="#DejaVuSans-72" x="307.673828"/>
     <use xlink:href="#DejaVuSans-61" x="348.787109"/>
     <use xlink:href="#DejaVuSans-64" x="410.066406"/>
     <use xlink:href="#DejaVuSans-69" x="473.542969"/>
     <use xlink:href="#DejaVuSans-61" x="501.326172"/>
     <use xlink:href="#DejaVuSans-6e" x="562.605469"/>
     <use xlink:href="#DejaVuSans-63" x="625.984375"/>
     <use xlink:href="#DejaVuSans-65" x="680.964844"/>
     <use xlink:href="#DejaVuSans-20" x="742.488281"/>
     <use xlink:href="#DejaVuSans-45" x="774.275391"/>
     <use xlink:href="#DejaVuSans-76" x="837.458984"/>
     <use xlink:href="#DejaVuSans-65" x="896.638672"/>
     <use xlink:href="#DejaVuSans-6e" x="958.162109"/>
     <use xlink:href="#DejaVuSans-74" x="1021.541016"/>
     <use xlink:href="#DejaVuSans-73" x="1060.75"/>
     <use xlink:href="#DejaVuSans-20" x="1112.849609"/>
     <use xlink:href="#DejaVuSans-2d" x="1144.636719"/>
     <use xlink:href="#DejaVuSans-20" x="1180.720703"/>
     <use xlink:href="#DejaVuSans-47" x="1212.507812"/>
     <use xlink:href="#DejaVuSans-48" x="1289.998047"/>
     <use xlink:href="#DejaVuSans-49" x="1365.193359"/>
     <use xlink:href="#DejaVuSans-20" x="1394.685547"/>
     <use xlink:href="#DejaVuSans-20" x="1426.472656"/>
     <use xlink:href="#DejaVuSans-64" x="1458.259766"/>
     <use xlink:href="#DejaVuSans-6f" x="1521.736328"/>
     <use xlink:href="#DejaVuSans-20" x="1582.917969"/>
     <use xlink:href="#DejaVuSans-64" x="1614.705078"/>
     <use xlink:href="#DejaVuSans-69" x="1678.181641"/>
     <use xlink:href="#DejaVuSans-61" x="1705.964844"/>
     <use xlink:href="#DejaVuSans-20" x="1767.244141"/>
     <use xlink:href="#DejaVuSans-30" x="1799.03125"/>
     <use xlink:href="#DejaVuSans-31" x="1862.654297"/>
     <use xlink:href="#DejaVuSans-20" x="1926.277344"/>
     <use xlink:href="#DejaVuSans-61" x="1958.064453"/>
     <use xlink:href="#DejaVuSans-6f" x="2019.34375"/>
     <use xlink:href="#DejaVuSans-20" x="2080.525391"/>
     <use xlink:href="#DejaVuSans-64" x="2112.3125"/>
     <use xlink:href="#DejaVuSans-69" x="2175.789062"/>
     <use xlink:href="#DejaVuSans-61" x="2203.572266"/>
     <use xlink:href="#DejaVuSans-20" x="2264.851562"/>
     <use xlink:href="#DejaVuSans-33" x="2296.638672"/>
     <use xlink:href="#DejaVuSans-30" x="2360.261719"/>
     <use xlink:href="#DejaVuSans-20" x="2423.884766"/>
     <use xlink:href="#DejaVuSans-64" x="2455.671875"/>
     <use xlink:href="#DejaVuSans-65" x="2519.148438"/>
     <use xlink:href="#DejaVuSans-20" x="2580.671875"/>
     <use xlink:href="#DejaVuSans-53" x="2612.458984"/>
     <use xlink:href="#DejaVuSans-65" x="2675.935547"/>
     <use xlink:href="#DejaVuSans-70" x="2737.458984"/>
     <use xlink:href="#DejaVuSans-74" x="2800.935547"/>
     <use xlink:href="#DejaVuSans-65" x="2840.144531"/>
     <use xlink:href="#DejaVuSans-6d" x="2901.667969"/>
     <use xlink:href="#DejaVuSans-62" x="2999.080078"/>
     <use xlink:href="#DejaVuSans-65" x="3062.556641"/>
     <use xlink:href="#DejaVuSans-72" x="3124.080078"/>
     <use xlink:href="#DejaVuSans-20" x="3165.193359"/>
     <use xlink:href="#DejaVuSans-64" x="3196.980469"/>
     <use xlink:href="#DejaVuSans-65" x="3260.457031"/>
     <use xlink:href="#DejaVuSans-20" x="3321.980469"/>
     <use xlink:href="#DejaVuSans-32" x="3353.767578"/>
     <use xlink:href="#DejaVuSans-30" x="3417.390625"/>
     <use xlink:href="#DejaVuSans-32" x="3481.013672"/>
     <use xlink:href="#DejaVuSans-34" x="3544.636719"/>
    </g>
   </g>
   <g id="legend_3">
    <g id="patch_19">
     <path d="M 677.268125 325.79625 
L 847.097813 325.79625 
Q 849.097813 325.79625 849.097813 323.79625 
L 849.097813 310.118125 
Q 849.097813 308.118125 847.097813 308.118125 
L 677.268125 308.118125 
Q 675.268125 308.118125 675.268125 310.118125 
L 675.268125 323.79625 
Q 675.268125 325.79625 677.268125 325.79625 
z
" style="fill: #ffffff; opacity: 0.8; stroke: #cccccc; stroke-linejoin: miter"/>
    </g>
    <g id="line2d_101">
     <path d="M 679.268125 316.216563 
L 689.268125 316.216563 
L 699.268125 316.216563 
" style="fill: none; stroke: #0000ff; stroke-width: 1.5; stroke-linecap: square"/>
     <g>
      <use xlink:href="#mdba0740993" x="689.268125" y="316.216563" style="fill: #0000ff; stroke: #0000ff"/>
     </g>
    </g>
    <g id="text_56">
     <!-- OverIrradiance -->
     <g transform="translate(707.268125 319.716563) scale(0.1 -0.1)">
      <use xlink:href="#DejaVuSans-4f"/>
      <use xlink:href="#DejaVuSans-76" x="78.710938"/>
      <use xlink:href="#DejaVuSans-65" x="137.890625"/>
      <use xlink:href="#DejaVuSans-72" x="199.414062"/>
      <use xlink:href="#DejaVuSans-49" x="240.527344"/>
      <use xlink:href="#DejaVuSans-72" x="270.019531"/>
      <use xlink:href="#DejaVuSans-72" x="309.382812"/>
      <use xlink:href="#DejaVuSans-61" x="350.496094"/>
      <use xlink:href="#DejaVuSans-64" x="411.775391"/>
      <use xlink:href="#DejaVuSans-69" x="475.251953"/>
      <use xlink:href="#DejaVuSans-61" x="503.035156"/>
      <use xlink:href="#DejaVuSans-6e" x="564.314453"/>
      <use xlink:href="#DejaVuSans-63" x="627.693359"/>
      <use xlink:href="#DejaVuSans-65" x="682.673828"/>
     </g>
    </g>
    <g id="line2d_102">
     <path d="M 801.691563 316.216563 
L 811.691563 316.216563 
L 821.691563 316.216563 
" style="fill: none; stroke: #000000; stroke-width: 1.5; stroke-linecap: square"/>
    </g>
    <g id="text_57">
     <!-- Ioh -->
     <g transform="translate(829.691563 319.716563) scale(0.1 -0.1)">
      <use xlink:href="#DejaVuSans-49"/>
      <use xlink:href="#DejaVuSans-6f" x="29.492188"/>
      <use xlink:href="#DejaVuSans-68" x="90.673828"/>
     </g>
    </g>
   </g>
  </g>
 </g>
 <defs>
  <clipPath id="p4754611871">
   <rect x="53.328125" y="22.318125" width="616.94" height="97.88"/>
  </clipPath>
  <clipPath id="pf765c216a6">
   <rect x="53.328125" y="162.718125" width="616.94" height="97.88"/>
  </clipPath>
  <clipPath id="p1519322318">
   <rect x="53.328125" y="303.118125" width="616.94" height="97.88"/>
  </clipPath>
 </defs>
</svg>
